{
.appVersion = "1141";
DisplayStrings = (
"/nine.dnom",
"¥",
"+",
"/notequal",
">",
"¿",
"></greaterequal/lessequal ±/approxequal ~¬^/emptyset/infinity/integral/product/summation/radical/partialdiff %/perthousand/lozenge @&¶§©®/trademark °|¦/dagger/daggerdbl",
"â",
"/circumflexcomb/caroncomb",
"/commaturnedabovecomb",
"/idotless",
s
);
classes = (
{
automatic = 1;
code = "A Aacute Abreve Acircumflex Adieresis Agrave Amacron Aogonek Aring Atilde AE B C Cacute Ccaron Ccedilla Cdotaccent D Eth Dcaron Dcroat E Eacute Ecaron Ecircumflex Edieresis Edotaccent Egrave Emacron Eogonek F G Gbreve Gcommaaccent Gdotaccent H Hbar I Iacute Icircumflex Idieresis Idotaccent Igrave Imacron Iogonek J K Kcommaaccent L Lacute Lcaron Lcommaaccent Lslash M N Nacute Ncaron Ncommaaccent Eng Ntilde O Oacute Ocircumflex Odieresis Ograve Ohungarumlaut Omacron Oslash Otilde OE P Thorn Q R Racute Rcaron Rcommaaccent S Sacute Scaron Scedilla Scommaaccent T Tbar Tcaron Tcedilla Tcommaaccent U Uacute Ucircumflex Udieresis Ugrave Uhungarumlaut Umacron Uogonek Uring V W Wacute Wcircumflex Wdieresis Wgrave X Y Yacute Ycircumflex Ydieresis Ygrave Z Zacute Zcaron Zdotaccent";
name = Uppercase;
}
);
copyright = "Copyright (c) 2018, Dale Sattler [Noponies] <dale@noponies.com>.";
customParameters = (
{
name = license;
value = "This Font Software is licensed under the SIL Open Font License, Version 1.1. This license is available with a FAQ at: http://scripts.sil.org/OFL";
},
{
name = licenseURL;
value = "http://scripts.sil.org/OFL";
},
{
name = fsType;
value = (
);
},
{
name = "Use Typo Metrics";
value = 1;
},
{
name = "Disable Last Change";
value = 1;
},
{
name = "Use Line Breaks";
value = 1;
},
{
name = vendorID;
value = NOPN;
}
);
date = "2018-07-24 10:04:33 +0000";
designer = "Noponies / Dale Sattler";
designerURL = "http://noponies.com";
familyName = "Kulim Park";
featurePrefixes = (
{
automatic = 1;
code = "languagesystem DFLT dflt;
languagesystem latn dflt;
languagesystem latn ROM;

glyphs = (
{
color = 5;
glyphname = A;
layers = (
{
anchors = (
{
name = bottom;
position = "{302, 0}";
},
{
name = ogonek;
position = "{568, 0}";
},
{
name = top;
position = "{388, 700}";
}
);
layerId = "4BC9CD2E-8AD0-40CC-97AA-8C7B556514B0";
paths = (
{
closed = 1;
nodes = (
"138 1 LINE",
"370 550 LINE",
"466 1 LINE",
"593 1 LINE",
"462 700 LINE",
"311 700 LINE",
"9 1 LINE"
);
},
{
closed = 1;
nodes = (
"487 170 LINE",
"500 274 LINE",
"169 274 LINE",
"156 170 LINE"
);
}
);
width = 664;
},
{
anchors = (
{
name = bottom;
position = "{289, 0}";
},
{
name = ogonek;
position = "{547, 10}";
},
{
name = top;
position = "{375, 700}";
}
);
layerId = "3C8330F3-4770-4812-9C95-859F387513C1";
paths = (
{
closed = 1;
nodes = (
"65 0 LINE",
"368 640 LINE",
"515 0 LINE",
"569 0 LINE",
"409 700 LINE",
"341 700 LINE",
"9 0 LINE"
);
},
{
closed = 1;
nodes = (
"490 183 LINE",
"495 225 LINE",
"147 225 LINE",
"142 183 LINE"
);
}
);
width = 640;
}
);
leftKerningGroup = "upper-A";
unicode = 0041;
},
{
color = 5;
glyphname = AE;
layers = (
{
layerId = "4BC9CD2E-8AD0-40CC-97AA-8C7B556514B0";
paths = (
{
closed = 1;
nodes = (
"140 0 LINE",
"205 155 LINE",
"434 155 LINE",
"464 0 LINE",
"788 0 LINE",
"803 122 LINE",
"570 122 LINE",
"539 287 LINE",
"775 287 LINE",
"788 398 LINE",
"518 398 LINE",
"485 578 LINE",
"859 578 LINE",
"874 700 LINE",
"305 700 LINE",
"9 0 LINE"
);
},
{
closed = 1;
nodes = (
"366 548 LINE",
"410 281 LINE",
"258 281 LINE"
);
}
);
width = 869;
},
{
layerId = "3C8330F3-4770-4812-9C95-859F387513C1";
paths = (
{
closed = 1;
nodes = (
"65 0 LINE",
"151 183 LINE",
"473 183 LINE",
"515 0 LINE",
"731 0 LINE",
"737 46 LINE",
"559 46 LINE",
"496 320 LINE",
"709 320 LINE",
"714 366 LINE",
"485 366 LINE",
"419 654 LINE",
"812 654 LINE",
"817 700 LINE",
"341 700 LINE",
"9 0 LINE"
);
},
{
closed = 1;
nodes = (
"368 640 LINE",
"463 226 LINE",
"171 226 LINE"
);
}
);
width = 812;
}
);
leftKerningGroup = "upper-A";
unicode = 00C6;
},
{
color = 5;
glyphname = B;
layers = (
{
layerId = "4BC9CD2E-8AD0-40CC-97AA-8C7B556514B0";
paths = (
{
closed = 1;
nodes = (
"317 0 LINE SMOOTH",
"419 0 OFFCURVE",
"512 106 OFFCURVE",
"525 207 CURVE SMOOTH",
"533 274 OFFCURVE",
"511 334 OFFCURVE",
"472 369 CURVE",
"506 410 OFFCURVE",
"523 456 OFFCURVE",
"528 496 CURVE SMOOTH",
"541 604 OFFCURVE",
"479 700 OFFCURVE",
"369 700 CURVE SMOOTH",
"105 700 LINE",
"19 0 LINE"
);
},
{
closed = 1;
nodes = (
"178 290 LINE",
"355 290 LINE SMOOTH",
"389 290 OFFCURVE",
"408 259 OFFCURVE",
"403 219 CURVE SMOOTH",
"398 174 OFFCURVE",
"359 125 OFFCURVE",
"327 125 CURVE SMOOTH",
"158 125 LINE"
);
},
{
closed = 1;
nodes = (
"213 575 LINE",
"358 575 LINE SMOOTH",
"395 575 OFFCURVE",
"412 543 OFFCURVE",
"408 508 CURVE SMOOTH",
"402 461 OFFCURVE",
"365 410 OFFCURVE",
"330 410 CURVE SMOOTH",
"193 410 LINE"
);
}
);
width = 570;
},
{
layerId = "3C8330F3-4770-4812-9C95-859F387513C1";
paths = (
{
closed = 1;
nodes = (
"314 0 LINE SMOOTH",
"406 0 OFFCURVE",
"500 99 OFFCURVE",
"512 193 CURVE SMOOTH",
"520 262 OFFCURVE",
"495 318 OFFCURVE",
"425 364 CURVE",
"483 421 OFFCURVE",
"506 456 OFFCURVE",
"514 518 CURVE SMOOTH",
"527 622 OFFCURVE",
"462 700 OFFCURVE",
"364 700 CURVE SMOOTH",
"105 700 LINE",
"19 0 LINE"
);
},
{
closed = 1;
nodes = (
"111 327 LINE",
"357 327 LINE SMOOTH",
"429 327 OFFCURVE",
"468 266 OFFCURVE",
"460 199 CURVE SMOOTH",
"451 130 OFFCURVE",
"388 50 OFFCURVE",
"318 50 CURVE SMOOTH",
"77 50 LINE"
);
},
{
closed = 1;
nodes = (
"151 650 LINE",
"360 650 LINE SMOOTH",
"433 650 OFFCURVE",
"470 593 OFFCURVE",
"462 524 CURVE SMOOTH",
"452 448 OFFCURVE",
"386 373 OFFCURVE",
"320 373 CURVE SMOOTH",
"117 373 LINE"
);
}
);
width = 559;
}
);
unicode = 0042;
},
{
color = 5;
glyphname = C;
layers = (
{
anchors = (
{
name = bottom;
position = "{327, 0}";
},
{
name = top;
position = "{413, 700}";
}
);
layerId = "4BC9CD2E-8AD0-40CC-97AA-8C7B556514B0";
paths = (
{
closed = 1;
nodes = (
"454 -6 OFFCURVE",
"551 37 OFFCURVE",
"642 133 CURVE",
"552 217 LINE",
"489 149 OFFCURVE",
"426 119 OFFCURVE",
"361 119 CURVE SMOOTH",
"303 119 OFFCURVE",
"254 142 OFFCURVE",
"217 183 CURVE SMOOTH",
"185 228 OFFCURVE",
"169 282 OFFCURVE",
"176 343 CURVE SMOOTH",
"185 410 OFFCURVE",
"218 469 OFFCURVE",
"264 508 CURVE SMOOTH",
"308 553 OFFCURVE",
"365 580 OFFCURVE",
"428 580 CURVE SMOOTH",
"488 580 OFFCURVE",
"542 554 OFFCURVE",
"589 486 CURVE",
"692 562 LINE",
"624 658 OFFCURVE",
"536 705 OFFCURVE",
"433 705 CURVE SMOOTH",
"339 705 OFFCURVE",
"251 667 OFFCURVE",
"181 605 CURVE SMOOTH",
"112 539 OFFCURVE",
"64 449 OFFCURVE",
"53 355 CURVE SMOOTH",
"40 252 OFFCURVE",
"69 164 OFFCURVE",
"126 102 CURVE SMOOTH",
"179 37 OFFCURVE",
"257 -6 OFFCURVE",
"356 -6 CURVE SMOOTH"
);
}
);
width = 695;
},
{
anchors = (
{
name = bottom;
position = "{357, 0}";
},
{
name = top;
position = "{443, 700}";
}
);
layerId = "3C8330F3-4770-4812-9C95-859F387513C1";
paths = (
{
closed = 1;
nodes = (
"454 -5 OFFCURVE",
"544 31 OFFCURVE",
"620 102 CURVE",
"581 137 LINE",
"519 81 OFFCURVE",
"442 44 OFFCURVE",
"361 44 CURVE SMOOTH",
"279 44 OFFCURVE",
"212 78 OFFCURVE",
"163 133 CURVE SMOOTH",
"118 190 OFFCURVE",
"95 265 OFFCURVE",
"105 347 CURVE SMOOTH",
"115 432 OFFCURVE",
"158 508 OFFCURVE",
"219 563 CURVE SMOOTH",
"280 620 OFFCURVE",
"356 656 OFFCURVE",
"440 656 CURVE SMOOTH",
"519 656 OFFCURVE",
"586 621 OFFCURVE",
"635 565 CURVE",
"679 596 LINE",
"621 667 OFFCURVE",
"539 705 OFFCURVE",
"442 705 CURVE SMOOTH",
"346 705 OFFCURVE",
"255 666 OFFCURVE",
"183 603 CURVE SMOOTH",
"112 538 OFFCURVE",
"64 448 OFFCURVE",
"53 353 CURVE SMOOTH",
"40 251 OFFCURVE",
"67 164 OFFCURVE",
"124 101 CURVE SMOOTH",
"179 36 OFFCURVE",
"261 -5 OFFCURVE",
"359 -5 CURVE SMOOTH"
);
}
);
width = 677;
}
);
leftKerningGroup = "upper-rounds";
unicode = 0043;
},
{
color = 5;
glyphname = D;
layers = (
{
anchors = (
{
name = bottom;
position = "{288, 0}";
},
{
name = center;
position = "{205, 350}";
},
{
name = top;
position = "{374, 700}";
}
);
layerId = "4BC9CD2E-8AD0-40CC-97AA-8C7B556514B0";
paths = (
{
closed = 1;
nodes = (
"587 157 OFFCURVE",
"610 346 CURVE SMOOTH",
"633 537 OFFCURVE",
"506 703 OFFCURVE",
"314 703 CURVE SMOOTH",
"106 703 LINE",
"19 0 LINE",
"233 0 LINE SMOOTH",
"423 0 OFFCURVE"
);
},
{
closed = 1;
nodes = (
"503 484 OFFCURVE",
"487 358 CURVE SMOOTH",
"471 228 OFFCURVE",
"364 123 OFFCURVE",
"243 123 CURVE SMOOTH",
"154 123 LINE",
"211 580 LINE",
"304 580 LINE SMOOTH",
"424 580 OFFCURVE"
);
}
);
width = 638;
},
{
anchors = (
{
name = bottom;
position = "{288, 0}";
},
{
name = center;
position = "{216, 350}";
},
{
name = top;
position = "{374, 700}";
}
);
layerId = "3C8330F3-4770-4812-9C95-859F387513C1";
paths = (
{
closed = 1;
nodes = (
"585 155 OFFCURVE",
"609 349 CURVE SMOOTH",
"633 545 OFFCURVE",
"496 703 OFFCURVE",
"305 703 CURVE SMOOTH",
"106 703 LINE",
"19 0 LINE",
"220 0 LINE SMOOTH",
"410 0 OFFCURVE"
);
},
{
closed = 1;
nodes = (
"577 519 OFFCURVE",
"557 355 CURVE SMOOTH",
"537 190 OFFCURVE",
"392 48 OFFCURVE",
"224 48 CURVE SMOOTH",
"78 48 LINE",
"153 656 LINE",
"301 656 LINE SMOOTH",
"469 656 OFFCURVE"
);
}
);
width = 637;
}
);
unicode = 0044;
},
{
color = 5;
glyphname = E;
layers = (
{
anchors = (
{
name = bottom;
position = "{203, 0}";
},
{
name = ogonek;
position = "{391, 10}";
},
{
name = top;
position = "{289, 700}";
},
{
name = topleft;
position = "{75, 700}";
}
);
layerId = "4BC9CD2E-8AD0-40CC-97AA-8C7B556514B0";
paths = (
{
closed = 1;
nodes = (
"410 112 LINE",
"153 112 LINE",
"175 292 LINE",
"383 292 LINE",
"396 393 LINE",
"188 393 LINE",
"212 588 LINE",
"469 588 LINE",
"482 700 LINE",
"105 700 LINE",
"19 0 LINE",
"396 0 LINE"
);
}
);
width = 467;
},
{
anchors = (
{
name = bottom;
position = "{205, 0}";
},
{
name = ogonek;
position = "{393, 10}";
},
{
name = top;
position = "{291, 700}";
},
{
name = topleft;
position = "{77, 700}";
}
);
layerId = "3C8330F3-4770-4812-9C95-859F387513C1";
paths = (
{
closed = 1;
nodes = (
"404 46 LINE",
"77 46 LINE",
"111 320 LINE",
"376 320 LINE",
"381 366 LINE",
"116 366 LINE",
"152 654 LINE",
"479 654 LINE",
"484 700 LINE",
"105 700 LINE",
"19 0 LINE",
"398 0 LINE"
);
}
);
width = 469;
}
);
unicode = 0045;
},
{
color = 5;
glyphname = F;
layers = (
{
layerId = "4BC9CD2E-8AD0-40CC-97AA-8C7B556514B0";
paths = (
{
closed = 1;
nodes = (
"482 700 LINE",
"105 700 LINE",
"19 0 LINE",
"139 0 LINE",
"175 288 LINE",
"383 288 LINE",
"396 399 LINE",
"188 399 LINE",
"210 578 LINE",
"467 578 LINE"
);
}
);
width = 467;
},
{
layerId = "3C8330F3-4770-4812-9C95-859F387513C1";
paths = (
{
closed = 1;
nodes = (
"479 700 LINE",
"105 700 LINE",
"19 0 LINE",
"71 0 LINE",
"111 321 LINE",
"371 321 LINE",
"376 367 LINE",
"116 367 LINE",
"152 654 LINE",
"474 654 LINE"
);
}
);
width = 464;
}
);
unicode = 0046;
},
{
color = 5;
glyphname = G;
layers = (
{
anchors = (
{
name = bottom;
position = "{328, 0}";
},
{
name = top;
position = "{414, 700}";
}
);
layerId = "4BC9CD2E-8AD0-40CC-97AA-8C7B556514B0";
paths = (
{
closed = 1;
nodes = (
"494 -5 OFFCURVE",
"596 42 OFFCURVE",
"667 161 CURVE",
"690 360 LINE",
"451 360 LINE",
"436 242 LINE",
"549 242 LINE",
"542 198 LINE",
"500 143 OFFCURVE",
"449 121 OFFCURVE",
"361 121 CURVE SMOOTH",
"246 121 OFFCURVE",
"164 229 OFFCURVE",
"179 344 CURVE SMOOTH",
"194 472 OFFCURVE",
"303 578 OFFCURVE",
"427 578 CURVE SMOOTH",
"497 578 OFFCURVE",
"559 545 OFFCURVE",
"600 465 CURVE",
"712 530 LINE",
"650 646 OFFCURVE",
"552 705 OFFCURVE",
"433 705 CURVE SMOOTH",
"243 705 OFFCURVE",
"76 544 OFFCURVE",
"53 356 CURVE SMOOTH",
"29 158 OFFCURVE",
"164 -5 OFFCURVE",
"356 -5 CURVE SMOOTH"
);
}
);
width = 718;
},
{
anchors = (
{
name = bottom;
position = "{355, 0}";
},
{
name = top;
position = "{441, 700}";
}
);
layerId = "3C8330F3-4770-4812-9C95-859F387513C1";
paths = (
{
closed = 1;
nodes = (
"499 -8 OFFCURVE",
"596 40 OFFCURVE",
"665 147 CURVE",
"686 323 LINE",
"502 323 LINE",
"496 271 LINE",
"626 271 LINE",
"612 161 LINE",
"545 73 OFFCURVE",
"469 43 OFFCURVE",
"359 43 CURVE SMOOTH",
"196 43 OFFCURVE",
"85 181 OFFCURVE",
"106 344 CURVE SMOOTH",
"126 509 OFFCURVE",
"267 651 OFFCURVE",
"437 651 CURVE SMOOTH",
"528 651 OFFCURVE",
"604 612 OFFCURVE",
"651 540 CURVE",
"699 567 LINE",
"644 654 OFFCURVE",
"550 705 OFFCURVE",
"440 705 CURVE SMOOTH",
"251 705 OFFCURVE",
"77 547 OFFCURVE",
"52 350 CURVE SMOOTH",
"28 152 OFFCURVE",
"165 -8 OFFCURVE",
"356 -8 CURVE SMOOTH"
);
}
);
width = 717;
}
);
leftKerningGroup = "upper-rounds";
unicode = 0047;
},
{
color = 5;
glyphname = H;
layers = (
{
anchors = (
{
name = bottom;
position = "{268, 0}";
},
{
name = center;
position = "{337, 556}";
},
{
name = top;
position = "{354, 700}";
},
{
name = topleft;
position = "{71, 700}";
}
);
layerId = "4BC9CD2E-8AD0-40CC-97AA-8C7B556514B0";
paths = (
{
closed = 1;
nodes = (
"604 700 LINE",
"484 700 LINE",
"447 395 LINE",
"188 395 LINE",
"225 700 LINE",
"105 700 LINE",
"19 0 LINE",
"139 0 LINE",
"174 285 LINE",
"433 285 LINE",
"398 0 LINE",
"518 0 LINE"
);
}
);
width = 599;
},
{
anchors = (
{
name = bottom;
position = "{270, 0}";
},
{
name = center;
position = "{342, 586}";
},
{
name = top;
position = "{356, 700}";
},
{
name = topleft;
position = "{73, 700}";
}
);
layerId = "3C8330F3-4770-4812-9C95-859F387513C1";
paths = (
{
closed = 1;
nodes = (
"609 700 LINE",
"557 700 LINE",
"515 359 LINE",
"115 359 LINE",
"157 700 LINE",
"105 700 LINE",
"19 0 LINE",
"71 0 LINE",
"110 319 LINE",
"510 319 LINE",
"471 0 LINE",
"523 0 LINE"
);
}
);
width = 604;
}
);
unicode = 0048;
},
{
color = 5;
glyphname = I;
layers = (
{
anchors = (
{
name = bottom;
position = "{79, 0}";
},
{
name = ogonek;
position = "{105, 10}";
},
{
name = top;
position = "{165, 700}";
},
{
name = topleft;
position = "{75, 700}";
}
);
layerId = "4BC9CD2E-8AD0-40CC-97AA-8C7B556514B0";
paths = (
{
closed = 1;
nodes = (
"225 700 LINE",
"105 700 LINE",
"19 0 LINE",
"139 0 LINE"
);
}
);
width = 220;
},
{
anchors = (
{
name = bottom;
position = "{45, 0}";
},
{
name = ogonek;
position = "{83, 10}";
},
{
name = top;
position = "{131, 700}";
},
{
name = topleft;
position = "{75, 700}";
}
);
layerId = "3C8330F3-4770-4812-9C95-859F387513C1";
paths = (
{
closed = 1;
nodes = (
"157 700 LINE",
"105 700 LINE",
"19 0 LINE",
"71 0 LINE"
);
}
);
width = 152;
}
);
unicode = 0049;
},
{
color = 5;
glyphname = J;
layers = (
{
layerId = "4BC9CD2E-8AD0-40CC-97AA-8C7B556514B0";
paths = (
{
closed = 1;
nodes = (
"324 109 OFFCURVE",
"341 178 OFFCURVE",
"353 274 CURVE SMOOTH",
"405 700 LINE",
"288 700 LINE",
"237 280 LINE SMOOTH",
"225 189 OFFCURVE",
"212 129 OFFCURVE",
"161 123 CURVE SMOOTH",
"131 117 OFFCURVE",
"87 124 OFFCURVE",
"47 141 CURVE",
"4 26 LINE",
"112 -15 OFFCURVE",
"213 -29 OFFCURVE",
"287 59 CURVE SMOOTH"
);
}
);
width = 400;
},
{
layerId = "3C8330F3-4770-4812-9C95-859F387513C1";
paths = (
{
closed = 1;
nodes = (
"292 89 OFFCURVE",
"315 155 OFFCURVE",
"328 262 CURVE SMOOTH",
"382 700 LINE",
"330 700 LINE",
"277 264 LINE SMOOTH",
"264 164 OFFCURVE",
"247 111 OFFCURVE",
"216 80 CURVE SMOOTH",
"168 29 OFFCURVE",
"95 44 OFFCURVE",
"21 64 CURVE",
"2 18 LINE",
"67 -6 OFFCURVE",
"187 -30 OFFCURVE",
"256 47 CURVE SMOOTH"
);
}
);
width = 377;
}
);
unicode = 004A;
},
{
color = 5;
glyphname = K;
layers = (
{
anchors = (
{
name = bottom;
position = "{261, 0}";
},
{
name = top;
position = "{347, 700}";
}
);
layerId = "4BC9CD2E-8AD0-40CC-97AA-8C7B556514B0";
paths = (
{
closed = 1;
nodes = (
"341 435 LINE",
"596 702 LINE",
"433 702 LINE",
"193 452 LINE",
"224 701 LINE",
"105 701 LINE",
"19 0 LINE",
"138 0 LINE",
"171 257 LINE",
"245 334 LINE",
"389 0 LINE",
"529 0 LINE"
);
}
);
width = 584;
},
{
anchors = (
{
name = bottom;
position = "{256, 0}";
},
{
name = top;
position = "{342, 700}";
}
);
layerId = "3C8330F3-4770-4812-9C95-859F387513C1";
paths = (
{
closed = 1;
nodes = (
"294 452 LINE",
"544 702 LINE",
"473 702 LINE",
"113 342 LINE",
"157 701 LINE",
"105 701 LINE",
"19 0 LINE",
"71 0 LINE",
"104 261 LINE",
"252 410 LINE",
"442 0 LINE",
"502 0 LINE"
);
}
);
width = 556;
}
);
unicode = 004B;
},
{
color = 5;
glyphname = L;
layers = (
{
anchors = (
{
name = bottom;
position = "{179, 0}";
},
{
name = center;
position = "{126, 350}";
},
{
name = top;
position = "{265, 700}";
},
{
name = topright;
position = "{454, 700}";
}
);
layerId = "4BC9CD2E-8AD0-40CC-97AA-8C7B556514B0";
paths = (
{
closed = 1;
nodes = (
"363 118 LINE",
"154 118 LINE",
"225 700 LINE",
"105 700 LINE",
"19 0 LINE",
"348 0 LINE"
);
}
);
width = 419;
},
{
anchors = (
{
name = bottom;
position = "{179, 0}";
},
{
name = center;
position = "{96, 350}";
},
{
name = top;
position = "{265, 700}";
},
{
name = topright;
position = "{452, 700}";
}
);
layerId = "3C8330F3-4770-4812-9C95-859F387513C1";
paths = (
{
closed = 1;
nodes = (
"352 48 LINE",
"80 48 LINE",
"160 700 LINE",
"108 700 LINE",
"22 0 LINE",
"346 0 LINE"
);
}
);
width = 417;
}
);
unicode = 004C;
},
{
glyphname = Lslash;
layers = (
{
anchors = (
{
name = _center;
position = "{236, 350}";
}
);
components = (
{
alignment = -1;
name = L;
transform = "{1, 0, 0, 1, 122, 0}";
}
);
layerId = "4BC9CD2E-8AD0-40CC-97AA-8C7B556514B0";
paths = (
{
closed = 1;
nodes = (
"358 571 LINE",
"33 185 LINE",
"141 185 LINE",
"467 571 LINE"
);
}
);
width = 541;
},
{
anchors = (
{
name = _center;
position = "{174, 350}";
}
);
components = (
{
alignment = -1;
name = L;
transform = "{1, 0, 0, 1, 87, 0}";
}
);
layerId = "3C8330F3-4770-4812-9C95-859F387513C1";
paths = (
{
closed = 1;
nodes = (
"288 529 LINE",
"39 207 LINE",
"86 207 LINE",
"336 529 LINE"
);
}
);
width = 504;
}
);
leftMetricsKey = L;
rightMetricsKey = L;
unicode = 0141;
},
{
color = 5;
glyphname = M;
layers = (
{
layerId = "4BC9CD2E-8AD0-40CC-97AA-8C7B556514B0";
paths = (
{
closed = 1;
nodes = (
"139 0 LINE",
"208 553 LINE",
"208 553 LINE",
"335 100 LINE",
"448 100 LINE",
"686 553 LINE",
"685 553 LINE",
"617 0 LINE",
"737 0 LINE",
"823 700 LINE",
"628 700 LINE",
"408 258 LINE",
"298 700 LINE",
"105 700 LINE",
"19 0 LINE"
);
}
);
width = 818;
},
{
layerId = "3C8330F3-4770-4812-9C95-859F387513C1";
paths = (
{
closed = 1;
nodes = (
"71 0 LINE",
"151 648 LINE",
"209 648 LINE",
"362 115 LINE",
"431 115 LINE",
"713 648 LINE",
"771 648 LINE",
"691 0 LINE",
"743 0 LINE",
"829 700 LINE",
"684 700 LINE",
"401 167 LINE",
"250 700 LINE",
"105 700 LINE",
"19 0 LINE"
);
}
);
width = 824;
}
);
unicode = 004D;
},
{
color = 5;
glyphname = N;
layers = (
{
anchors = (
{
name = bottom;
position = "{280, 0}";
},
{
name = top;
position = "{366, 700}";
}
);
layerId = "4BC9CD2E-8AD0-40CC-97AA-8C7B556514B0";
paths = (
{
closed = 1;
nodes = (
"627 700 LINE",
"507 700 LINE",
"441 167 LINE",
"269 700 LINE",
"105 700 LINE",
"19 1 LINE",
"139 1 LINE",
"207 544 LINE",
"388 0 LINE",
"541 0 LINE"
);
}
);
width = 622;
},
{
anchors = (
{
name = bottom;
position = "{282, 0}";
},
{
name = top;
position = "{368, 700}";
}
);
layerId = "3C8330F3-4770-4812-9C95-859F387513C1";
paths = (
{
closed = 1;
nodes = (
"631 702 LINE",
"579 702 LINE",
"500 54 LINE",
"188 702 LINE",
"105 702 LINE",
"19 1 LINE",
"71 1 LINE",
"152 652 LINE",
"464 0 LINE",
"545 0 LINE"
);
}
);
width = 626;
}
);
unicode = 004E;
},
{
color = 5;
glyphname = Eng;
layers = (
{
components = (
{
name = N;
}
);
layerId = "4BC9CD2E-8AD0-40CC-97AA-8C7B556514B0";
paths = (
{
closed = 1;
nodes = (
"476 -174 OFFCURVE",
"528 -126 OFFCURVE",
"542 -2 CURVE",
"566 195 LINE",
"447 195 LINE",
"424 4 LINE",
"418 -70 OFFCURVE",
"365 -65 OFFCURVE",
"285 -65 CURVE",
"277 -168 LINE"
);
}
);
width = 623;
},
{
components = (
{
name = N;
}
);
layerId = "3C8330F3-4770-4812-9C95-859F387513C1";
paths = (
{
closed = 1;
nodes = (
"486 -148 OFFCURVE",
"533 -132 OFFCURVE",
"545 -4 CURVE",
"548 23 LINE",
"495 23 LINE",
"492 -2 LINE",
"481 -96 OFFCURVE",
"469 -99 OFFCURVE",
"386 -99 CURVE",
"382 -147 LINE"
);
}
);
width = 626;
}
);
unicode = 014A;
},
{
color = 5;
glyphname = O;
layers = (
{
anchors = (
{
name = bottom;
position = "{352, 0}";
},
{
name = center;
position = "{395, 350}";
},
{
name = ogonek;
position = "{478, 10}";
},
{
name = top;
position = "{438, 700}";
},
{
name = topleft;
position = "{75, 700}";
},
{
name = topright;
position = "{800, 700}";
}
);
layerId = "4BC9CD2E-8AD0-40CC-97AA-8C7B556514B0";
paths = (
{
closed = 1;
nodes = (
"712 148 OFFCURVE",
"736 342 CURVE SMOOTH",
"761 540 OFFCURVE",
"624 705 OFFCURVE",
"434 705 CURVE SMOOTH",
"251 705 OFFCURVE",
"76 546 OFFCURVE",
"53 354 CURVE SMOOTH",
"29 158 OFFCURVE",
"163 -5 OFFCURVE",
"357 -5 CURVE SMOOTH",
"543 -5 OFFCURVE"
);
},
{
closed = 1;
nodes = (
"629 482 OFFCURVE",
"614 354 CURVE SMOOTH",
"598 223 OFFCURVE",
"485 113 OFFCURVE",
"361 113 CURVE SMOOTH",
"244 113 OFFCURVE",
"160 216 OFFCURVE",
"175 342 CURVE SMOOTH",
"191 473 OFFCURVE",
"306 587 OFFCURVE",
"430 587 CURVE SMOOTH",
"546 587 OFFCURVE"
);
}
);
width = 765;
},
{
anchors = (
{
name = bottom;
position = "{352, 0}";
},
{
name = center;
position = "{395, 350}";
},
{
name = ogonek;
position = "{659, 10}";
},
{
name = top;
position = "{438, 700}";
},
{
name = topleft;
position = "{75, 700}";
},
{
name = topright;
position = "{800, 700}";
}
);
layerId = "3C8330F3-4770-4812-9C95-859F387513C1";
paths = (
{
closed = 1;
nodes = (
"713 150 OFFCURVE",
"737 345 CURVE SMOOTH",
"760 539 OFFCURVE",
"629 705 OFFCURVE",
"437 705 CURVE SMOOTH",
"253 705 OFFCURVE",
"76 545 OFFCURVE",
"52 351 CURVE SMOOTH",
"28 156 OFFCURVE",
"162 -5 OFFCURVE",
"354 -5 CURVE SMOOTH",
"542 -5 OFFCURVE"
);
},
{
closed = 1;
nodes = (
"705 515 OFFCURVE",
"684 351 CURVE SMOOTH",
"664 182 OFFCURVE",
"508 43 OFFCURVE",
"355 43 CURVE SMOOTH",
"202 43 OFFCURVE",
"85 183 OFFCURVE",
"105 345 CURVE SMOOTH",
"125 514 OFFCURVE",
"282 657 OFFCURVE",
"435 657 CURVE SMOOTH",
"586 657 OFFCURVE"
);
}
);
width = 765;
}
);
leftKerningGroup = "upper-rounds";
unicode = 004F;
},
{
color = 5;
glyphname = P;
layers = (
{
layerId = "4BC9CD2E-8AD0-40CC-97AA-8C7B556514B0";
paths = (
{
closed = 1;
nodes = (
"139 0 LINE",
"173 273 LINE",
"314 273 LINE SMOOTH",
"417 273 OFFCURVE",
"510 380 OFFCURVE",
"522 481 CURVE SMOOTH",
"536 593 OFFCURVE",
"475 700 OFFCURVE",
"365 700 CURVE SMOOTH",
"106 700 LINE",
"19 0 LINE"
);
},
{
closed = 1;
nodes = (
"211 582 LINE",
"350 582 LINE SMOOTH",
"382 582 OFFCURVE",
"412 545 OFFCURVE",
"406 493 CURVE SMOOTH",
"399 440 OFFCURVE",
"357 391 OFFCURVE",
"319 391 CURVE SMOOTH",
"187 391 LINE"
);
}
);
width = 534;
},
{
layerId = "3C8330F3-4770-4812-9C95-859F387513C1";
paths = (
{
closed = 1;
nodes = (
"71 0 LINE",
"109 309 LINE",
"327 309 LINE SMOOTH",
"422 309 OFFCURVE",
"514 409 OFFCURVE",
"526 501 CURVE SMOOTH",
"539 606 OFFCURVE",
"474 700 OFFCURVE",
"376 700 CURVE SMOOTH",
"106 700 LINE",
"19 0 LINE"
);
},
{
closed = 1;
nodes = (
"151 648 LINE",
"372 648 LINE SMOOTH",
"445 648 OFFCURVE",
"485 581 OFFCURVE",
"475 507 CURVE SMOOTH",
"467 436 OFFCURVE",
"398 360 OFFCURVE",
"331 360 CURVE SMOOTH",
"116 360 LINE"
);
}
);
width = 535;
}
);
unicode = 0050;
},
{
color = 5;
glyphname = Thorn;
layers = (
{
layerId = "4BC9CD2E-8AD0-40CC-97AA-8C7B556514B0";
paths = (
{
closed = 1;
nodes = (
"140 0 LINE",
"157 137 LINE",
"299 137 LINE SMOOTH",
"402 137 OFFCURVE",
"494 244 OFFCURVE",
"507 345 CURVE SMOOTH",
"521 460 OFFCURVE",
"456 564 OFFCURVE",
"349 564 CURVE SMOOTH",
"210 564 LINE",
"226 700 LINE",
"106 700 LINE",
"19 0 LINE"
);
},
{
closed = 1;
nodes = (
"195 444 LINE",
"336 444 LINE SMOOTH",
"374 444 OFFCURVE",
"398 405 OFFCURVE",
"392 357 CURVE SMOOTH",
"388 320 OFFCURVE",
"347 263 OFFCURVE",
"309 263 CURVE SMOOTH",
"173 263 LINE"
);
}
);
width = 535;
},
{
layerId = "3C8330F3-4770-4812-9C95-859F387513C1";
paths = (
{
closed = 1;
nodes = (
"73 0 LINE",
"92 154 LINE",
"290 154 LINE SMOOTH",
"384 154 OFFCURVE",
"478 256 OFFCURVE",
"489 348 CURVE SMOOTH",
"502 453 OFFCURVE",
"436 547 OFFCURVE",
"339 547 CURVE SMOOTH",
"140 547 LINE",
"159 700 LINE",
"106 700 LINE",
"19 0 LINE"
);
},
{
closed = 1;
nodes = (
"134 494 LINE",
"335 494 LINE SMOOTH",
"409 494 OFFCURVE",
"448 428 OFFCURVE",
"439 354 CURVE SMOOTH",
"430 282 OFFCURVE",
"362 207 OFFCURVE",
"295 207 CURVE SMOOTH",
"99 207 LINE"
);
}
);
width = 517;
}
);
unicode = 00DE;
},
{
color = 5;
glyphname = Q;
layers = (
{
layerId = "4BC9CD2E-8AD0-40CC-97AA-8C7B556514B0";
paths = (
{
closed = 1;
nodes = (
"408 -5 OFFCURVE",
"459 6 OFFCURVE",
"511 31 CURVE",
"546 -10 OFFCURVE",
"589 -14 OFFCURVE",
"691 -12 CURVE",
"700 103 LINE",
"673 100 OFFCURVE",
"646 101 OFFCURVE",
"622 110 CURVE",
"685 175 OFFCURVE",
"726 254 OFFCURVE",
"736 342 CURVE SMOOTH",
"760 539 OFFCURVE",
"627 703 OFFCURVE",
"433 703 CURVE SMOOTH",
"245 703 OFFCURVE",
"76 543 OFFCURVE",
"53 354 CURVE SMOOTH",
"29 158 OFFCURVE",
"163 -5 OFFCURVE",
"357 -5 CURVE SMOOTH"
);
},
{
closed = 1;
nodes = (
"241 115 OFFCURVE",
"163 223 OFFCURVE",
"177 342 CURVE SMOOTH",
"192 465 OFFCURVE",
"302 582 OFFCURVE",
"429 582 CURVE SMOOTH",
"548 582 OFFCURVE",
"627 475 OFFCURVE",
"612 354 CURVE SMOOTH",
"606 307 OFFCURVE",
"589 266 OFFCURVE",
"564 228 CURVE",
"537 288 OFFCURVE",
"458 322 OFFCURVE",
"373 335 CURVE",
"362 206 LINE",
"422 191 OFFCURVE",
"442 184 OFFCURVE",
"456 139 CURVE",
"426 123 OFFCURVE",
"396 115 OFFCURVE",
"361 115 CURVE SMOOTH"
);
}
);
width = 765;
},
{
layerId = "3C8330F3-4770-4812-9C95-859F387513C1";
paths = (
{
closed = 1;
nodes = (
"421 -5 OFFCURVE",
"486 14 OFFCURVE",
"544 50 CURVE",
"569 10 OFFCURVE",
"599 -5 OFFCURVE",
"675 -3 CURVE",
"679 45 LINE",
"621 43 OFFCURVE",
"600 53 OFFCURVE",
"586 79 CURVE",
"667 144 OFFCURVE",
"724 239 OFFCURVE",
"737 345 CURVE SMOOTH",
"760 539 OFFCURVE",
"629 705 OFFCURVE",
"437 705 CURVE SMOOTH",
"253 705 OFFCURVE",
"76 545 OFFCURVE",
"52 351 CURVE SMOOTH",
"28 156 OFFCURVE",
"162 -5 OFFCURVE",
"354 -5 CURVE SMOOTH"
);
},
{
closed = 1;
nodes = (
"192 40 OFFCURVE",
"85 183 OFFCURVE",
"105 345 CURVE SMOOTH",
"125 514 OFFCURVE",
"272 660 OFFCURVE",
"435 660 CURVE SMOOTH",
"596 660 OFFCURVE",
"705 515 OFFCURVE",
"684 351 CURVE SMOOTH",
"674 263 OFFCURVE",
"629 183 OFFCURVE",
"567 126 CURVE",
"537 214 OFFCURVE",
"513 253 OFFCURVE",
"415 277 CURVE",
"411 224 LINE",
"498 197 OFFCURVE",
"494 173 OFFCURVE",
"522 93 CURVE",
"473 60 OFFCURVE",
"415 40 OFFCURVE",
"355 40 CURVE SMOOTH"
);
}
);
width = 765;
}
);
leftKerningGroup = "upper-rounds";
unicode = 0051;
},
{
color = 5;
glyphname = R;
layers = (
{
anchors = (
{
name = bottom;
position = "{255, 0}";
},
{
name = top;
position = "{341, 700}";
}
);
layerId = "4BC9CD2E-8AD0-40CC-97AA-8C7B556514B0";
paths = (
{
closed = 1;
nodes = (
"372 283 LINE",
"453 315 OFFCURVE",
"514 400 OFFCURVE",
"524 481 CURVE SMOOTH",
"538 595 OFFCURVE",
"472 700 OFFCURVE",
"367 700 CURVE SMOOTH",
"106 700 LINE",
"19 0 LINE",
"139 0 LINE",
"173 273 LINE",
"235 273 LINE",
"361 0 LINE",
"502 0 LINE"
);
},
{
closed = 1;
nodes = (
"408 530 OFFCURVE",
"404 493 CURVE SMOOTH",
"398 449 OFFCURVE",
"361 400 OFFCURVE",
"322 400 CURVE SMOOTH",
"188 400 LINE",
"211 580 LINE",
"349 580 LINE SMOOTH",
"388 580 OFFCURVE"
);
}
);
width = 574;
},
{
anchors = (
{
name = bottom;
position = "{241, 0}";
},
{
name = top;
position = "{327, 700}";
}
);
layerId = "3C8330F3-4770-4812-9C95-859F387513C1";
paths = (
{
closed = 1;
nodes = (
"318 309 LINE",
"420 308 OFFCURVE",
"511 406 OFFCURVE",
"523 501 CURVE SMOOTH",
"536 608 OFFCURVE",
"466 700 OFFCURVE",
"375 700 CURVE SMOOTH",
"106 700 LINE",
"19 0 LINE",
"71 0 LINE",
"109 309 LINE",
"256 309 LINE",
"411 0 LINE",
"472 0 LINE"
);
},
{
closed = 1;
nodes = (
"480 579 OFFCURVE",
"471 507 CURVE SMOOTH",
"464 442 OFFCURVE",
"396 360 OFFCURVE",
"330 360 CURVE SMOOTH",
"116 360 LINE",
"151 648 LINE",
"371 648 LINE SMOOTH",
"441 648 OFFCURVE"
);
}
);
width = 543;
}
);
unicode = 0052;
},
{
color = 5;
glyphname = S;
layers = (
{
anchors = (
{
name = bottom;
position = "{246, 0}";
},
{
name = top;
position = "{332, 700}";
}
);
layerId = "4BC9CD2E-8AD0-40CC-97AA-8C7B556514B0";
paths = (
{
closed = 1;
nodes = (
"382 -10 OFFCURVE",
"492 82 OFFCURVE",
"507 201 CURVE SMOOTH",
"524 339 OFFCURVE",
"447 384 OFFCURVE",
"309 422 CURVE",
"239 447 OFFCURVE",
"190 456 OFFCURVE",
"199 511 CURVE SMOOTH",
"208 565 OFFCURVE",
"269 588 OFFCURVE",
"327 586 CURVE SMOOTH",
"373 585 OFFCURVE",
"416 569 OFFCURVE",
"453 548 CURVE",
"545 633 LINE",
"474 684 OFFCURVE",
"397 706 OFFCURVE",
"324 706 CURVE SMOOTH",
"208 706 OFFCURVE",
"110 652 OFFCURVE",
"82 539 CURVE SMOOTH",
"47 387 OFFCURVE",
"149 342 OFFCURVE",
"323 295 CURVE SMOOTH",
"364 281 OFFCURVE",
"393 251 OFFCURVE",
"388 213 CURVE SMOOTH",
"382 159 OFFCURVE",
"325 114 OFFCURVE",
"259 114 CURVE SMOOTH",
"212 114 OFFCURVE",
"154 139 OFFCURVE",
"119 181 CURVE",
"22 99 LINE",
"71 39 OFFCURVE",
"164 -10 OFFCURVE",
"256 -10 CURVE SMOOTH"
);
}
);
width = 553;
},
{
anchors = (
{
name = bottom;
position = "{233, 0}";
},
{
name = top;
position = "{319, 700}";
}
);
layerId = "3C8330F3-4770-4812-9C95-859F387513C1";
paths = (
{
closed = 1;
nodes = (
"359 -8 OFFCURVE",
"477 78 OFFCURVE",
"491 191 CURVE SMOOTH",
"507 321 OFFCURVE",
"437 356 OFFCURVE",
"298 393 CURVE SMOOTH",
"211 418 OFFCURVE",
"140 449 OFFCURVE",
"151 532 CURVE SMOOTH",
"161 619 OFFCURVE",
"248 652 OFFCURVE",
"336 652 CURVE SMOOTH",
"387 652 OFFCURVE",
"439 640 OFFCURVE",
"487 621 CURVE",
"523 668 LINE",
"471 692 OFFCURVE",
"401 704 OFFCURVE",
"340 704 CURVE SMOOTH",
"201 704 OFFCURVE",
"112 644 OFFCURVE",
"95 543 CURVE SMOOTH",
"77 436 OFFCURVE",
"159 372 OFFCURVE",
"274 344 CURVE",
"403 311 OFFCURVE",
"449 274 OFFCURVE",
"437 197 CURVE SMOOTH",
"424 103 OFFCURVE",
"334 44 OFFCURVE",
"237 44 CURVE SMOOTH",
"181 44 OFFCURVE",
"116 67 OFFCURVE",
"64 106 CURVE",
"18 71 LINE",
"69 27 OFFCURVE",
"148 -8 OFFCURVE",
"236 -8 CURVE SMOOTH"
);
}
);
width = 538;
}
);
unicode = 0053;
},
{
color = 5;
glyphname = T;
layers = (
{
anchors = (
{
name = bottom;
position = "{267, 0}";
},
{
name = center;
position = "{310, 350}";
},
{
name = top;
position = "{353, 700}";
}
);
layerId = "4BC9CD2E-8AD0-40CC-97AA-8C7B556514B0";
paths = (
{
closed = 1;
nodes = (
"611 700 LINE",
"95 700 LINE",
"82 590 LINE",
"280 590 LINE",
"207 0 LINE",
"327 0 LINE",
"400 590 LINE",
"598 590 LINE"
);
}
);
width = 596;
},
{
anchors = (
{
name = bottom;
position = "{267, 0}";
},
{
name = center;
position = "{310, 350}";
},
{
name = top;
position = "{353, 700}";
}
);
layerId = "3C8330F3-4770-4812-9C95-859F387513C1";
paths = (
{
closed = 1;
nodes = (
"611 700 LINE",
"95 700 LINE",
"89 652 LINE",
"321 652 LINE",
"241 0 LINE",
"293 0 LINE",
"373 652 LINE",
"605 652 LINE"
);
}
);
width = 596;
}
);
unicode = 0054;
},
{
color = 5;
glyphname = U;
layers = (
{
anchors = (
{
name = bottom;
position = "{273, 0}";
},
{
name = ogonek;
position = "{395, 16}";
},
{
name = top;
position = "{359, 700}";
},
{
name = topright;
position = "{646, 700}";
}
);
layerId = "4BC9CD2E-8AD0-40CC-97AA-8C7B556514B0";
paths = (
{
closed = 1;
nodes = (
"480 95 OFFCURVE",
"531 188 CURVE SMOOTH",
"549 224 OFFCURVE",
"565 231 OFFCURVE",
"569 269 CURVE SMOOTH",
"622 700 LINE",
"502 700 LINE",
"448 256 LINE SMOOTH",
"438 180 OFFCURVE",
"367 120 OFFCURVE",
"282 120 CURVE SMOOTH",
"204 120 OFFCURVE",
"151 173 OFFCURVE",
"160 250 CURVE",
"214 700 LINE",
"95 700 LINE",
"41 256 LINE SMOOTH",
"23 113 OFFCURVE",
"122 -5 OFFCURVE",
"277 -5 CURVE SMOOTH",
"389 -5 OFFCURVE"
);
},
{
closed = 1;
nodes = (
"416 0 LINE",
"536 0 LINE",
"567 254 LINE",
"447 254 LINE"
);
}
);
width = 617;
},
{
anchors = (
{
name = bottom;
position = "{259, 0}";
},
{
name = ogonek;
position = "{501, 10}";
},
{
name = top;
position = "{345, 700}";
},
{
name = topright;
position = "{625, 700}";
}
);
layerId = "3C8330F3-4770-4812-9C95-859F387513C1";
paths = (
{
closed = 1;
nodes = (
"466 50 OFFCURVE",
"518 135 CURVE SMOOTH",
"536 166 OFFCURVE",
"548 200 OFFCURVE",
"552 237 CURVE SMOOTH",
"609 700 LINE",
"557 700 LINE",
"501 241 LINE SMOOTH",
"488 133 OFFCURVE",
"387 45 OFFCURVE",
"270 45 CURVE SMOOTH",
"158 45 OFFCURVE",
"78 132 OFFCURVE",
"92 239 CURVE",
"147 700 LINE",
"95 700 LINE",
"39 241 LINE SMOOTH",
"22 103 OFFCURVE",
"128 -5 OFFCURVE",
"268 -5 CURVE SMOOTH",
"368 -5 OFFCURVE"
);
},
{
closed = 1;
nodes = (
"471 0 LINE",
"523 0 LINE",
"554 254 LINE",
"502 254 LINE"
);
}
);
width = 604;
}
);
unicode = 0055;
},
{
color = 5;
glyphname = V;
layers = (
{
layerId = "4BC9CD2E-8AD0-40CC-97AA-8C7B556514B0";
paths = (
{
closed = 1;
nodes = (
"505 700 LINE",
"299 175 LINE",
"223 700 LINE",
"96 700 LINE",
"223 0 LINE",
"335 0 LINE",
"634 700 LINE"
);
}
);
width = 618;
},
{
layerId = "3C8330F3-4770-4812-9C95-859F387513C1";
paths = (
{
closed = 1;
nodes = (
"551 700 LINE",
"269 53 LINE",
"147 700 LINE",
"96 700 LINE",
"231 0 LINE",
"297 0 LINE",
"604 700 LINE"
);
}
);
width = 588;
}
);
leftKerningGroup = "upper-angled";
unicode = 0056;
},
{
color = 5;
glyphname = W;
layers = (
{
anchors = (
{
name = bottom;
position = "{512, 0}";
},
{
name = top;
position = "{598, 700}";
}
);
layerId = "4BC9CD2E-8AD0-40CC-97AA-8C7B556514B0";
paths = (
{
closed = 1;
nodes = (
"965 700 LINE",
"747 178 LINE",
"646 589 LINE",
"523 589 LINE",
"320 178 LINE",
"230 700 LINE",
"96 700 LINE",
"230 0 LINE",
"361 0 LINE",
"565 415 LINE",
"667 0 LINE",
"798 0 LINE",
"1101 700 LINE"
);
}
);
width = 1085;
},
{
anchors = (
{
name = bottom;
position = "{502, 0}";
},
{
name = top;
position = "{588, 700}";
}
);
layerId = "3C8330F3-4770-4812-9C95-859F387513C1";
paths = (
{
closed = 1;
nodes = (
"1030 700 LINE",
"745 50 LINE",
"604 575 LINE",
"543 575 LINE",
"272 51 LINE",
"145 700 LINE",
"96 700 LINE",
"230 0 LINE",
"306 0 LINE",
"567 519 LINE",
"702 0 LINE",
"778 0 LINE",
"1082 700 LINE"
);
}
);
width = 1066;
}
);
leftKerningGroup = "upper-angled";
unicode = 0057;
},
{
color = 5;
glyphname = X;
layers = (
{
layerId = "4BC9CD2E-8AD0-40CC-97AA-8C7B556514B0";
paths = (
{
closed = 1;
nodes = (
"157 0 LINE",
"335 262 LINE",
"447 0 LINE",
"592 0 LINE",
"417 355 LINE",
"676 700 LINE",
"527 700 LINE",
"354 446 LINE",
"245 700 LINE",
"100 700 LINE",
"272 355 LINE",
"8 0 LINE"
);
}
);
width = 664;
},
{
layerId = "3C8330F3-4770-4812-9C95-859F387513C1";
paths = (
{
closed = 1;
nodes = (
"71 0 LINE",
"304 311 LINE",
"461 0 LINE",
"520 0 LINE",
"341 355 LINE",
"600 700 LINE",
"540 700 LINE",
"313 397 LINE",
"162 700 LINE",
"104 700 LINE",
"276 355 LINE",
"9 0 LINE"
);
}
);
width = 591;
}
);
unicode = 0058;
},
{
color = 5;
glyphname = Y;
layers = (
{
anchors = (
{
name = bottom;
position = "{292, 0}";
},
{
name = top;
position = "{378, 700}";
},
{
name = topleft;
position = "{53, 700}";
}
);
layerId = "4BC9CD2E-8AD0-40CC-97AA-8C7B556514B0";
paths = (
{
closed = 1;
nodes = (
"541 700 LINE",
"335 361 LINE",
"213 700 LINE",
"96 700 LINE",
"263 239 LINE",
"232 0 LINE",
"353 0 LINE",
"384 239 LINE",
"662 700 LINE"
);
}
);
width = 646;
},
{
anchors = (
{
name = bottom;
position = "{280, 0}";
},
{
name = top;
position = "{366, 700}";
},
{
name = topleft;
position = "{75, 700}";
}
);
layerId = "3C8330F3-4770-4812-9C95-859F387513C1";
paths = (
{
closed = 1;
nodes = (
"578 700 LINE",
"315 290 LINE",
"154 700 LINE",
"96 700 LINE",
"283 234 LINE",
"254 0 LINE",
"306 0 LINE",
"335 234 LINE",
"638 700 LINE"
);
}
);
width = 622;
}
);
unicode = 0059;
},
{
color = 5;
glyphname = Z;
layers = (
{
anchors = (
{
name = bottom;
position = "{250, 0}";
},
{
name = top;
position = "{336, 700}";
}
);
guideLines = (
{
angle = 55.9228;
position = "{223, 338}";
},
{
angle = 55.8403;
position = "{383, 364}";
}
);
layerId = "4BC9CD2E-8AD0-40CC-97AA-8C7B556514B0";
paths = (
{
closed = 1;
nodes = (
"504 110 LINE",
"167 110 LINE",
"560 602 LINE",
"571 700 LINE",
"100 700 LINE",
"87 588 LINE",
"411 588 LINE",
"21 100 LINE",
"9 0 LINE",
"490 0 LINE"
);
}
);
width = 561;
},
{
anchors = (
{
name = bottom;
position = "{250, 0}";
},
{
name = top;
position = "{336, 700}";
}
);
layerId = "3C8330F3-4770-4812-9C95-859F387513C1";
paths = (
{
closed = 1;
nodes = (
"497 51 LINE",
"81 51 LINE",
"565 646 LINE",
"571 700 LINE",
"100 700 LINE",
"94 648 LINE",
"501 648 LINE",
"15 52 LINE",
"9 0 LINE",
"490 0 LINE"
);
}
);
width = 561;
}
);
unicode = 005A;
},
{
color = 3;
glyphname = a;
layers = (
{
anchors = (
{
name = bottom;
position = "{222, 0}";
},
{
name = ogonek;
position = "{429, 10}";
},
{
name = top;
position = "{285, 510}";
}
);
layerId = "4BC9CD2E-8AD0-40CC-97AA-8C7B556514B0";
paths = (
{
closed = 1;
nodes = (
"214 -7 OFFCURVE",
"268 5 OFFCURVE",
"315 44 CURVE",
"307 0 LINE",
"429 0 LINE",
"461 261 LINE SMOOTH",
"470 334 OFFCURVE",
"479 400 OFFCURVE",
"448 435 CURVE SMOOTH",
"376 533 OFFCURVE",
"178 523 OFFCURVE",
"65 424 CURVE",
"127 347 LINE",
"195 413 OFFCURVE",
"359 430 OFFCURVE",
"349 346 CURVE SMOOTH",
"342 311 LINE",
"203 343 OFFCURVE",
"45 287 OFFCURVE",
"28 154 CURVE SMOOTH",
"16 58 OFFCURVE",
"65 0 OFFCURVE",
"168 -5 CURVE SMOOTH"
);
},
{
closed = 1;
nodes = (
"248 88 OFFCURVE",
"127 71 OFFCURVE",
"136 143 CURVE SMOOTH",
"143 204 OFFCURVE",
"196 237 OFFCURVE",
"334 227 CURVE",
"319 143 LINE"
);
}
);
width = 510;
},
{
anchors = (
{
name = bottom;
position = "{220, 0}";
},
{
name = ogonek;
position = "{425, 10}";
},
{
name = top;
position = "{282, 500}";
}
);
layerId = "3C8330F3-4770-4812-9C95-859F387513C1";
paths = (
{
closed = 1;
nodes = (
"246 -5 OFFCURVE",
"318 13 OFFCURVE",
"375 46 CURVE",
"368 0 LINE",
"420 0 LINE",
"451 244 LINE",
"464 354 OFFCURVE",
"479 440 OFFCURVE",
"395 481 CURVE SMOOTH",
"310 524 OFFCURVE",
"162 511 OFFCURVE",
"77 412 CURVE",
"111 372 LINE",
"184 481 OFFCURVE",
"428 492 OFFCURVE",
"410 350 CURVE SMOOTH",
"404 310 LINE",
"191 346 OFFCURVE",
"46 302 OFFCURVE",
"27 145 CURVE SMOOTH",
"15 43 OFFCURVE",
"93 -5 OFFCURVE",
"182 -5 CURVE SMOOTH"
);
},
{
closed = 1;
nodes = (
"273 33 OFFCURVE",
"61 13 OFFCURVE",
"76 139 CURVE SMOOTH",
"92 264 OFFCURVE",
"234 291 OFFCURVE",
"402 264 CURVE",
"380 104 LINE"
);
}
);
width = 502;
}
);
leftKerningGroup = "rounded-low";
unicode = 0061;
},
{
color = 5;
glyphname = b;
layers = (
{
layerId = "4BC9CD2E-8AD0-40CC-97AA-8C7B556514B0";
paths = (
{
closed = 1;
nodes = (
"481 149 OFFCURVE",
"493 253 CURVE SMOOTH",
"511 393 OFFCURVE",
"446 507 OFFCURVE",
"301 507 CURVE SMOOTH",
"274 507 OFFCURVE",
"226 504 OFFCURVE",
"199 485 CURVE",
"227 700 LINE",
"107 700 LINE",
"21 0 LINE",
"141 0 LINE",
"148 42 LINE",
"178 1 OFFCURVE",
"276 -18 OFFCURVE",
"341 7 CURVE SMOOTH",
"431 47 OFFCURVE"
);
},
{
closed = 1;
nodes = (
"387 371 OFFCURVE",
"374 265 CURVE SMOOTH",
"357 132 OFFCURVE",
"254 75 OFFCURVE",
"156 139 CURVE",
"189 369 LINE",
"298 410 OFFCURVE"
);
}
);
width = 533;
},
{
layerId = "3C8330F3-4770-4812-9C95-859F387513C1";
paths = (
{
closed = 1;
nodes = (
"461 96 OFFCURVE",
"480 249 CURVE SMOOTH",
"499 402 OFFCURVE",
"424 505 OFFCURVE",
"277 505 CURVE SMOOTH",
"235 505 OFFCURVE",
"197 506 OFFCURVE",
"129 478 CURVE",
"157 700 LINE",
"105 700 LINE",
"19 0 LINE",
"71 0 LINE",
"79 52 LINE",
"114 27 OFFCURVE",
"154 -5 OFFCURVE",
"227 -5 CURVE SMOOTH",
"369 -5 OFFCURVE"
);
},
{
closed = 1;
nodes = (
"451 442 OFFCURVE",
"428 255 CURVE SMOOTH",
"404 60 OFFCURVE",
"224 -15 OFFCURVE",
"82 95 CURVE",
"124 426 LINE",
"304 499 OFFCURVE"
);
}
);
width = 520;
}
);
unicode = 0062;
},
{
color = 5;
glyphname = c;
layers = (
{
anchors = (
{
name = bottom;
position = "{223, 0}";
},
{
name = top;
position = "{285, 500}";
}
);
layerId = "4BC9CD2E-8AD0-40CC-97AA-8C7B556514B0";
paths = (
{
closed = 1;
nodes = (
"379 159 LINE",
"281 65 OFFCURVE",
"144 108 OFFCURVE",
"160 244 CURVE SMOOTH",
"176 376 OFFCURVE",
"333 438 OFFCURVE",
"401 341 CURVE",
"488 422 LINE",
"332 582 OFFCURVE",
"71 503 OFFCURVE",
"41 256 CURVE SMOOTH",
"11 11 OFFCURVE",
"257 -93 OFFCURVE",
"444 67 CURVE"
);
}
);
width = 508;
},
{
anchors = (
{
name = bottom;
position = "{229, 0}";
},
{
name = top;
position = "{291, 500}";
}
);
layerId = "3C8330F3-4770-4812-9C95-859F387513C1";
paths = (
{
closed = 1;
nodes = (
"394 104 LINE",
"245 -21 OFFCURVE",
"69 67 OFFCURVE",
"92 252 CURVE SMOOTH",
"114 431 OFFCURVE",
"301 506 OFFCURVE",
"432 400 CURVE",
"466 437 LINE",
"308 579 OFFCURVE",
"68 478 OFFCURVE",
"41 258 CURVE SMOOTH",
"13 31 OFFCURVE",
"226 -94 OFFCURVE",
"421 61 CURVE"
);
}
);
width = 483;
}
);
leftKerningGroup = "rounded-low";
unicode = 0063;
},
{
color = 5;
glyphname = d;
layers = (
{
anchors = (
{
name = bottom;
position = "{219, 0}";
},
{
name = center;
position = "{305, 250}";
},
{
name = top;
position = "{305, 700}";
},
{
name = topright;
position = "{522, 500}";
}
);
layerId = "4BC9CD2E-8AD0-40CC-97AA-8C7B556514B0";
paths = (
{
closed = 1;
nodes = (
"196 -16 OFFCURVE",
"297 -3 OFFCURVE",
"337 38 CURVE",
"330 0 LINE",
"450 0 LINE",
"536 700 LINE",
"416 700 LINE",
"387 481 LINE",
"365 500 OFFCURVE",
"317 507 OFFCURVE",
"284 507 CURVE SMOOTH",
"145 507 OFFCURVE",
"58 399 OFFCURVE",
"42 265 CURVE SMOOTH",
"28 155 OFFCURVE",
"57 49 OFFCURVE",
"142 11 CURVE SMOOTH"
);
},
{
closed = 1;
nodes = (
"232 77 OFFCURVE",
"146 126 OFFCURVE",
"161 253 CURVE SMOOTH",
"175 365 OFFCURVE",
"279 412 OFFCURVE",
"378 371 CURVE",
"345 141 LINE"
);
}
);
width = 531;
},
{
anchors = (
{
name = bottom;
position = "{219, 0}";
},
{
name = center;
position = "{340, 591}";
},
{
name = top;
position = "{305, 698}";
},
{
name = topright;
position = "{521, 500}";
}
);
layerId = "3C8330F3-4770-4812-9C95-859F387513C1";
paths = (
{
closed = 1;
nodes = (
"306 -5 OFFCURVE",
"352 25 OFFCURVE",
"394 50 CURVE",
"387 0 LINE",
"439 0 LINE",
"525 700 LINE",
"473 700 LINE",
"445 476 LINE",
"383 504 OFFCURVE",
"345 505 OFFCURVE",
"301 505 CURVE SMOOTH",
"156 505 OFFCURVE",
"59 404 OFFCURVE",
"41 255 CURVE SMOOTH",
"21 98 OFFCURVE",
"91 -5 OFFCURVE",
"235 -5 CURVE SMOOTH"
);
},
{
closed = 1;
nodes = (
"230 -13 OFFCURVE",
"69 58 OFFCURVE",
"93 249 CURVE SMOOTH",
"116 440 OFFCURVE",
"279 499 OFFCURVE",
"441 426 CURVE",
"398 97 LINE"
);
}
);
width = 520;
}
);
leftKerningGroup = "rounded-low";
unicode = 0064;
},
{
color = 5;
glyphname = eth;
layers = (
{
layerId = "4BC9CD2E-8AD0-40CC-97AA-8C7B556514B0";
paths = (
{
closed = 1;
nodes = (
"347 -18 OFFCURVE",
"473 72 OFFCURVE",
"506 203 CURVE SMOOTH",
"532 313 OFFCURVE",
"508 427 OFFCURVE",
"443 571 CURVE",
"526 602 LINE",
"506 691 LINE",
"403 655 LINE",
"377 709 LINE",
"229 702 LINE",
"255 661 OFFCURVE",
"280 621 OFFCURVE",
"283 614 CURVE",
"198 581 LINE",
"220 493 LINE",
"329 533 LINE",
"337 520 OFFCURVE",
"353 486 OFFCURVE",
"363 459 CURVE",
"233 512 OFFCURVE",
"82 427 OFFCURVE",
"44 274 CURVE SMOOTH",
"13 145 OFFCURVE",
"90 14 OFFCURVE",
"223 -1 CURVE SMOOTH"
);
},
{
closed = 1;
nodes = (
"186 131 OFFCURVE",
"148 185 OFFCURVE",
"164 248 CURVE SMOOTH",
"178 309 OFFCURVE",
"240 362 OFFCURVE",
"308 355 CURVE SMOOTH",
"367 346 OFFCURVE",
"402 291 OFFCURVE",
"386 231 CURVE",
"374 169 OFFCURVE",
"311 117 OFFCURVE",
"242 122 CURVE SMOOTH"
);
}
);
width = 554;
},
{
layerId = "3C8330F3-4770-4812-9C95-859F387513C1";
paths = (
{
closed = 1;
nodes = (
"374 -5 OFFCURVE",
"493 94 OFFCURVE",
"508 220 CURVE SMOOTH",
"522 330 OFFCURVE",
"491 447 OFFCURVE",
"377 600 CURVE",
"482 636 LINE",
"474 673 LINE",
"354 633 LINE",
"299 700 LINE",
"234 701 LINE",
"260 672 OFFCURVE",
"282 644 OFFCURVE",
"304 617 CURVE",
"194 580 LINE",
"202 543 LINE",
"327 585 LINE",
"371 524 OFFCURVE",
"405 465 OFFCURVE",
"435 399 CURVE",
"311 529 OFFCURVE",
"60 414 OFFCURVE",
"37 226 CURVE SMOOTH",
"21 96 OFFCURVE",
"117 -5 OFFCURVE",
"248 -5 CURVE SMOOTH"
);
},
{
closed = 1;
nodes = (
"150 46 OFFCURVE",
"77 125 OFFCURVE",
"88 220 CURVE SMOOTH",
"101 320 OFFCURVE",
"191 399 OFFCURVE",
"294 399 CURVE SMOOTH",
"391 399 OFFCURVE",
"466 324 OFFCURVE",
"454 226 CURVE SMOOTH",
"441 123 OFFCURVE",
"341 46 OFFCURVE",
"247 46 CURVE SMOOTH"
);
}
);
width = 552;
}
);
leftKerningGroup = "rounded-low";
unicode = 00F0;
},
{
color = 3;
glyphname = e;
layers = (
{
anchors = (
{
name = bottom;
position = "{250, 0}";
},
{
name = ogonek;
position = "{367, 10}";
},
{
name = top;
position = "{313, 510}";
}
);
layerId = "4BC9CD2E-8AD0-40CC-97AA-8C7B556514B0";
paths = (
{
closed = 1;
nodes = (
"526 272 OFFCURVE",
"527 328 OFFCURVE",
"511 374 CURVE SMOOTH",
"488 458 OFFCURVE",
"418 505 OFFCURVE",
"308 506 CURVE SMOOTH",
"162 507 OFFCURVE",
"60 414 OFFCURVE",
"42 269 CURVE SMOOTH",
"21 93 OFFCURVE",
"95 -9 OFFCURVE",
"267 -9 CURVE SMOOTH",
"338 -9 OFFCURVE",
"417 12 OFFCURVE",
"497 74 CURVE",
"438 169 LINE",
"331 83 OFFCURVE",
"158 80 OFFCURVE",
"163 201 CURVE",
"513 201 LINE"
);
},
{
closed = 1;
nodes = (
"393 394 OFFCURVE",
"428 345 OFFCURVE",
"421 291 CURVE",
"173 285 LINE",
"180 338 OFFCURVE",
"231 394 OFFCURVE",
"316 394 CURVE SMOOTH"
);
}
);
width = 562;
},
{
anchors = (
{
name = bottom;
position = "{250, 0}";
},
{
name = ogonek;
position = "{477, 10}";
},
{
name = top;
position = "{312, 500}";
}
);
background = {
components = (
{
name = o;
}
);
};
layerId = "3C8330F3-4770-4812-9C95-859F387513C1";
paths = (
{
closed = 1;
nodes = (
"518 292 OFFCURVE",
"521 340 OFFCURVE",
"510 376 CURVE SMOOTH",
"487 461 OFFCURVE",
"414 505 OFFCURVE",
"311 505 CURVE SMOOTH",
"157 505 OFFCURVE",
"60 413 OFFCURVE",
"42 266 CURVE SMOOTH",
"20 90 OFFCURVE",
"99 -16 OFFCURVE",
"265 -9 CURVE SMOOTH",
"336 -6 OFFCURVE",
"406 14 OFFCURVE",
"471 59 CURVE",
"449 103 LINE",
"270 -14 OFFCURVE",
"67 32 OFFCURVE",
"92 239 CURVE",
"507 239 LINE"
);
},
{
closed = 1;
nodes = (
"414 455 OFFCURVE",
"477 404 OFFCURVE",
"463 292 CURVE",
"102 290 LINE",
"117 411 OFFCURVE",
"210 455 OFFCURVE",
"309 455 CURVE SMOOTH"
);
}
);
width = 562;
}
);
leftKerningGroup = "rounded-low";
unicode = 0065;
},
{
color = 5;
glyphname = f;
layers = (
{
layerId = "4BC9CD2E-8AD0-40CC-97AA-8C7B556514B0";
paths = (
{
closed = 1;
nodes = (
"304 587 OFFCURVE",
"389 587 CURVE",
"398 705 LINE",
"238 713 OFFCURVE",
"161 636 OFFCURVE",
"145 501 CURVE",
"70 498 LINE",
"58 393 LINE",
"131 393 LINE",
"82 -2 LINE",
"200 -2 LINE",
"249 393 LINE",
"323 393 LINE",
"335 498 LINE",
"261 495 LINE",
"272 569 OFFCURVE"
);
}
);
width = 385;
},
{
layerId = "3C8330F3-4770-4812-9C95-859F387513C1";
paths = (
{
closed = 1;
nodes = (
"245 664 OFFCURVE",
"385 656 CURVE",
"389 704 LINE",
"219 714 OFFCURVE",
"186 632 OFFCURVE",
"170 501 CURVE",
"71 500 LINE",
"65 454 LINE",
"164 454 LINE",
"108 0 LINE",
"160 0 LINE",
"216 454 LINE",
"322 454 LINE",
"328 500 LINE",
"222 499 LINE",
"234 602 OFFCURVE"
);
}
);
width = 374;
}
);
unicode = 0066;
},
{
color = 3;
glyphname = g;
layers = (
{
anchors = (
{
name = bottom;
position = "{242, 0}";
},
{
name = top;
position = "{305, 510}";
}
);
layerId = "4BC9CD2E-8AD0-40CC-97AA-8C7B556514B0";
paths = (
{
closed = 1;
nodes = (
"357 -204 OFFCURVE",
"439 -116 OFFCURVE",
"456 25 CURVE SMOOTH",
"515 500 LINE",
"395 500 LINE",
"390 477 LINE",
"226 555 OFFCURVE",
"64 449 OFFCURVE",
"40 252 CURVE SMOOTH",
"18 75 OFFCURVE",
"166 -65 OFFCURVE",
"335 24 CURVE",
"330 -5 OFFCURVE",
"320 -35 OFFCURVE",
"302 -53 CURVE SMOOTH",
"264 -107 OFFCURVE",
"178 -95 OFFCURVE",
"132 -42 CURVE",
"49 -118 LINE",
"75 -164 OFFCURVE",
"158 -204 OFFCURVE",
"227 -204 CURVE SMOOTH"
);
},
{
closed = 1;
nodes = (
"143 129 OFFCURVE",
"157 240 CURVE SMOOTH",
"174 377 OFFCURVE",
"276 431 OFFCURVE",
"380 364 CURVE",
"347 134 LINE",
"242 92 OFFCURVE"
);
}
);
width = 534;
},
{
anchors = (
{
name = bottom;
position = "{232, 0}";
},
{
name = top;
position = "{294, 500}";
}
);
layerId = "3C8330F3-4770-4812-9C95-859F387513C1";
paths = (
{
closed = 1;
nodes = (
"357 -204 OFFCURVE",
"429 -128 OFFCURVE",
"444 -1 CURVE SMOOTH",
"506 500 LINE",
"453 500 LINE",
"448 471 LINE",
"262 556 OFFCURVE",
"59 474 OFFCURVE",
"39 240 CURVE SMOOTH",
"22 43 OFFCURVE",
"213 -65 OFFCURVE",
"397 37 CURVE",
"389 -22 OFFCURVE",
"382 -51 OFFCURVE",
"361 -86 CURVE SMOOTH",
"314 -171 OFFCURVE",
"184 -167 OFFCURVE",
"107 -116 CURVE",
"71 -154 LINE",
"114 -185 OFFCURVE",
"160 -204 OFFCURVE",
"217 -204 CURVE SMOOTH"
);
},
{
closed = 1;
nodes = (
"75 75 OFFCURVE",
"91 234 CURVE SMOOTH",
"111 439 OFFCURVE",
"256 493 OFFCURVE",
"444 417 CURVE",
"402 93 LINE",
"241 9 OFFCURVE"
);
}
);
width = 525;
}
);
leftKerningGroup = "rounded-low";
unicode = 0067;
},
{
color = 5;
glyphname = h;
layers = (
{
anchors = (
{
name = bottom;
position = "{231, 0}";
},
{
name = center;
position = "{216, 610}";
},
{
name = top;
position = "{317, 700}";
}
);
layerId = "4BC9CD2E-8AD0-40CC-97AA-8C7B556514B0";
paths = (
{
closed = 1;
nodes = (
"488 285 LINE SMOOTH",
"503 401 OFFCURVE",
"447 488 OFFCURVE",
"325 502 CURVE SMOOTH",
"280 507 OFFCURVE",
"233 502 OFFCURVE",
"198 475 CURVE",
"227 700 LINE",
"107 700 LINE",
"21 0 LINE",
"141 0 LINE",
"178 300 LINE",
"183 338 OFFCURVE",
"228 385 OFFCURVE",
"287 385 CURVE SMOOTH",
"345 385 OFFCURVE",
"377 359 OFFCURVE",
"369 291 CURVE SMOOTH",
"333 0 LINE",
"453 0 LINE"
);
}
);
width = 524;
},
{
anchors = (
{
name = bottom;
position = "{231, 0}";
},
{
name = center;
position = "{254, 584}";
},
{
name = top;
position = "{317, 700}";
}
);
layerId = "3C8330F3-4770-4812-9C95-859F387513C1";
paths = (
{
closed = 1;
nodes = (
"487 303 LINE SMOOTH",
"504 439 OFFCURVE",
"426 505 OFFCURVE",
"289 505 CURVE SMOOTH",
"243 505 OFFCURVE",
"171 487 OFFCURVE",
"126 437 CURVE",
"159 700 LINE",
"107 700 LINE",
"21 0 LINE",
"73 0 LINE",
"116 348 LINE",
"123 402 OFFCURVE",
"214 458 OFFCURVE",
"293 458 CURVE SMOOTH",
"389 458 OFFCURVE",
"449 412 OFFCURVE",
"436 305 CURVE SMOOTH",
"398 0 LINE",
"450 0 LINE"
);
}
);
width = 521;
}
);
leftKerningGroup = "angleds-low";
unicode = 0068;
},
{
color = 5;
glyphname = i;
layers = (
{
components = (
{
name = idotless;
transform = "{1, 0, 0, 1, 27, 0}";
}
);
layerId = "4BC9CD2E-8AD0-40CC-97AA-8C7B556514B0";
paths = (
{
closed = 1;
nodes = (
"217 559 OFFCURVE",
"249 591 OFFCURVE",
"249 632 CURVE SMOOTH",
"249 672 OFFCURVE",
"217 704 OFFCURVE",
"177 704 CURVE SMOOTH",
"136 704 OFFCURVE",
"104 672 OFFCURVE",
"104 632 CURVE SMOOTH",
"104 591 OFFCURVE",
"136 559 OFFCURVE",
"177 559 CURVE SMOOTH"
);
}
);
width = 246;
},
{
components = (
{
name = idotless;
transform = "{1, 0, 0, 1, 19, 0}";
}
);
layerId = "3C8330F3-4770-4812-9C95-859F387513C1";
paths = (
{
closed = 1;
nodes = (
"163 570 OFFCURVE",
"181 588 OFFCURVE",
"181 610 CURVE SMOOTH",
"181 632 OFFCURVE",
"163 650 OFFCURVE",
"141 650 CURVE SMOOTH",
"119 650 OFFCURVE",
"101 632 OFFCURVE",
"101 610 CURVE SMOOTH",
"101 588 OFFCURVE",
"119 570 OFFCURVE",
"141 570 CURVE SMOOTH"
);
}
);
width = 181;
}
);
leftKerningGroup = "angleds-low";
unicode = 0069;
},
{
color = 5;
glyphname = idotless;
layers = (
{
anchors = (
{
name = bottom;
position = "{78, 0}";
},
{
name = ogonek;
position = "{172, 10}";
},
{
name = top;
position = "{140, 500}";
}
);
layerId = "4BC9CD2E-8AD0-40CC-97AA-8C7B556514B0";
paths = (
{
closed = 1;
nodes = (
"191 500 LINE",
"81 500 LINE",
"19 0 LINE",
"129 0 LINE"
);
}
);
width = 210;
},
{
anchors = (
{
name = bottom;
position = "{46, 0}";
},
{
name = ogonek;
position = "{120, 10}";
},
{
name = top;
position = "{108, 500}";
}
);
layerId = "3C8330F3-4770-4812-9C95-859F387513C1";
paths = (
{
closed = 1;
nodes = (
"133 500 LINE",
"81 500 LINE",
"19 0 LINE",
"71 0 LINE"
);
}
);
width = 152;
}
);
unicode = 0131;
},
{
color = 5;
glyphname = j;
layers = (
{
components = (
{
name = jdotless;
}
);
guideLines = (
{
angle = 90;
position = "{140, 673}";
}
);
layerId = "4BC9CD2E-8AD0-40CC-97AA-8C7B556514B0";
paths = (
{
closed = 1;
nodes = (
"179 560 OFFCURVE",
"211 593 OFFCURVE",
"210 634 CURVE SMOOTH",
"209 673 OFFCURVE",
"179 705 OFFCURVE",
"140 705 CURVE SMOOTH",
"99 705 OFFCURVE",
"68 673 OFFCURVE",
"67 634 CURVE SMOOTH",
"66 593 OFFCURVE",
"99 562 OFFCURVE",
"140 561 CURVE SMOOTH"
);
}
);
width = 260;
},
{
components = (
{
name = jdotless;
}
);
guideLines = (
{
angle = 270;
position = "{142, 640}";
}
);
layerId = "3C8330F3-4770-4812-9C95-859F387513C1";
paths = (
{
closed = 1;
nodes = (
"164 580 OFFCURVE",
"182 598 OFFCURVE",
"182 620 CURVE SMOOTH",
"182 642 OFFCURVE",
"164 660 OFFCURVE",
"142 660 CURVE SMOOTH",
"120 660 OFFCURVE",
"102 642 OFFCURVE",
"102 620 CURVE SMOOTH",
"102 598 OFFCURVE",
"120 580 OFFCURVE",
"142 580 CURVE SMOOTH"
);
}
);
width = 232;
}
);
unicode = 006A;
},
{
color = 5;
glyphname = jdotless;
layers = (
{
layerId = "3C8330F3-4770-4812-9C95-859F387513C1";
paths = (
{
closed = 1;
nodes = (
"54 -169 OFFCURVE",
"123 -111 OFFCURVE",
"140 33 CURVE SMOOTH",
"198 500 LINE",
"147 500 LINE",
"90 35 LINE SMOOTH",
"75 -84 OFFCURVE",
"30 -118 OFFCURVE",
"-77 -125 CURVE",
"-81 -176 LINE"
);
}
);
width = 217;
},
{
layerId = "4BC9CD2E-8AD0-40CC-97AA-8C7B556514B0";
paths = (
{
closed = 1;
nodes = (
"67 -182 OFFCURVE",
"154 -107 OFFCURVE",
"174 52 CURVE SMOOTH",
"229 500 LINE",
"110 500 LINE",
"55 58 LINE SMOOTH",
"44 -33 OFFCURVE",
"20 -59 OFFCURVE",
"-71 -61 CURVE",
"-80 -177 LINE"
);
}
);
width = 248;
}
);
unicode = 0237;
},
{
glyphname = k;
layers = (
{
anchors = (
{
name = bottom;
position = "{263, 0}";
},
{
name = top;
position = "{263, 500}";
}
);
layerId = "4BC9CD2E-8AD0-40CC-97AA-8C7B556514B0";
paths = (
{
closed = 1;
nodes = (
"170 0 LINE",
"170 249 LINE",
"180 258 LINE",
"344 0 LINE",
"485 0 LINE",
"272 340 LINE",
"449 502 LINE",
"275 502 LINE",
"170 405 LINE",
"170 700 LINE",
"50 700 LINE",
"50 0 LINE"
);
}
);
width = 525;
},
{
anchors = (
{
name = bottom;
position = "{249, 0}";
},
{
name = top;
position = "{249, 500}";
}
);
layerId = "3C8330F3-4770-4812-9C95-859F387513C1";
paths = (
{
closed = 1;
nodes = (
"103 0 LINE",
"103 257 LINE",
"172 314 LINE",
"389 0 LINE",
"449 0 LINE",
"213 348 LINE",
"378 487 LINE",
"299 487 LINE",
"103 327 LINE",
"103 700 LINE",
"50 700 LINE",
"50 0 LINE"
);
}
);
width = 489;
}
);
leftKerningGroup = "angleds-low";
unicode = 006B;
},
{
color = 5;
glyphname = l;
layers = (
{
anchors = (
{
name = bottom;
position = "{97, 0}";
},
{
name = center;
position = "{121, 336}";
},
{
name = top;
position = "{165, 700}";
},
{
name = topright;
position = "{231, 500}";
}
);
layerId = "4BC9CD2E-8AD0-40CC-97AA-8C7B556514B0";
paths = (
{
closed = 1;
nodes = (
"225 700 LINE",
"105 700 LINE",
"19 0 LINE",
"139 0 LINE"
);
}
);
width = 220;
},
{
anchors = (
{
name = bottom;
position = "{48, 0}";
},
{
name = center;
position = "{88, 323}";
},
{
name = top;
position = "{134, 700}";
},
{
name = topright;
position = "{166, 500}";
}
);
layerId = "3C8330F3-4770-4812-9C95-859F387513C1";
paths = (
{
closed = 1;
nodes = (
"160 700 LINE",
"108 700 LINE",
"22 0 LINE",
"74 0 LINE"
);
}
);
width = 154;
}
);
unicode = 006C;
},
{
glyphname = lslash;
layers = (
{
components = (
{
alignment = -1;
name = l;
transform = "{1, 0, 0, 1, 122, 0}";
}
);
layerId = "4BC9CD2E-8AD0-40CC-97AA-8C7B556514B0";
paths = (
{
closed = 1;
nodes = (
"356 561 LINE",
"31 175 LINE",
"139 175 LINE",
"465 561 LINE"
);
}
);
width = 467;
},
{
components = (
{
alignment = -1;
name = l;
transform = "{1, 0, 0, 1, 83, 0}";
}
);
layerId = "3C8330F3-4770-4812-9C95-859F387513C1";
paths = (
{
closed = 1;
nodes = (
"265 531 LINE",
"44 244 LINE",
"91 244 LINE",
"313 531 LINE"
);
}
);
width = 319;
}
);
leftMetricsKey = l;
rightMetricsKey = l;
unicode = 0142;
},
{
color = 5;
glyphname = m;
layers = (
{
layerId = "4BC9CD2E-8AD0-40CC-97AA-8C7B556514B0";
paths = (
{
closed = 1;
nodes = (
"820 285 LINE SMOOTH",
"836 414 OFFCURVE",
"749 505 OFFCURVE",
"635 505 CURVE SMOOTH",
"578 505 OFFCURVE",
"503 485 OFFCURVE",
"462 439 CURVE",
"436 481 OFFCURVE",
"378 505 OFFCURVE",
"314 505 CURVE SMOOTH",
"275 505 OFFCURVE",
"230 496 OFFCURVE",
"194 464 CURVE",
"201 500 LINE",
"81 500 LINE",
"19 0 LINE",
"139 0 LINE",
"174 285 LINE",
"183 356 OFFCURVE",
"244 383 OFFCURVE",
"302 383 CURVE SMOOTH",
"352 383 OFFCURVE",
"391 362 OFFCURVE",
"382 291 CURVE SMOOTH",
"346 0 LINE",
"462 0 LINE",
"497 285 LINE SMOOTH",
"506 356 OFFCURVE",
"562 384 OFFCURVE",
"624 384 CURVE SMOOTH",
"678 384 OFFCURVE",
"710 362 OFFCURVE",
"701 291 CURVE SMOOTH",
"665 0 LINE",
"785 0 LINE"
);
}
);
width = 856;
},
{
layerId = "3C8330F3-4770-4812-9C95-859F387513C1";
paths = (
{
closed = 1;
nodes = (
"814 299 LINE SMOOTH",
"831 436 OFFCURVE",
"743 505 OFFCURVE",
"640 505 CURVE SMOOTH",
"568 505 OFFCURVE",
"500 478 OFFCURVE",
"454 415 CURVE",
"413 478 OFFCURVE",
"344 507 OFFCURVE",
"274 506 CURVE SMOOTH",
"218 504 OFFCURVE",
"163 483 OFFCURVE",
"124 441 CURVE",
"132 500 LINE",
"81 500 LINE",
"19 0 LINE",
"70 0 LINE",
"107 299 LINE",
"120 407 OFFCURVE",
"214 459 OFFCURVE",
"277 459 CURVE SMOOTH",
"369 459 OFFCURVE",
"427 409 OFFCURVE",
"413 301 CURVE SMOOTH",
"376 0 LINE",
"427 0 LINE",
"464 299 LINE SMOOTH",
"477 402 OFFCURVE",
"546 459 OFFCURVE",
"636 459 CURVE SMOOTH",
"723 459 OFFCURVE",
"776 404 OFFCURVE",
"763 301 CURVE SMOOTH",
"726 0 LINE",
"777 0 LINE"
);
}
);
width = 848;
}
);
leftKerningGroup = "angleds-low";
unicode = 006D;
},
{
color = 5;
glyphname = n;
layers = (
{
anchors = (
{
name = bottom;
position = "{252, 0}";
},
{
name = top;
position = "{315, 510}";
}
);
layerId = "4BC9CD2E-8AD0-40CC-97AA-8C7B556514B0";
paths = (
{
closed = 1;
nodes = (
"505 289 LINE SMOOTH",
"521 417 OFFCURVE",
"448 506 OFFCURVE",
"318 506 CURVE SMOOTH",
"277 506 OFFCURVE",
"221 497 OFFCURVE",
"195 466 CURVE",
"201 500 LINE",
"81 500 LINE",
"19 0 LINE",
"139 0 LINE",
"175 289 LINE",
"185 370 OFFCURVE",
"263 388 OFFCURVE",
"305 388 CURVE SMOOTH",
"344 388 OFFCURVE",
"395 376 OFFCURVE",
"386 295 CURVE SMOOTH",
"349 0 LINE",
"469 0 LINE"
);
}
);
width = 540;
},
{
anchors = (
{
name = bottom;
position = "{229, 0}";
},
{
name = top;
position = "{291, 500}";
}
);
layerId = "3C8330F3-4770-4812-9C95-859F387513C1";
paths = (
{
closed = 1;
nodes = (
"486 299 LINE SMOOTH",
"503 441 OFFCURVE",
"404 505 OFFCURVE",
"292 506 CURVE SMOOTH",
"229 507 OFFCURVE",
"167 484 OFFCURVE",
"124 435 CURVE",
"133 500 LINE",
"81 500 LINE",
"19 0 LINE",
"71 0 LINE",
"108 299 LINE",
"120 396 OFFCURVE",
"206 455 OFFCURVE",
"290 455 CURVE SMOOTH",
"376 455 OFFCURVE",
"447 408 OFFCURVE",
"434 301 CURVE SMOOTH",
"397 0 LINE",
"449 0 LINE"
);
}
);
width = 520;
}
);
leftKerningGroup = "angleds-low";
unicode = 006E;
},
{
color = 5;
glyphname = eng;
layers = (
{
components = (
{
name = n;
}
);
layerId = "4BC9CD2E-8AD0-40CC-97AA-8C7B556514B0";
paths = (
{
closed = 1;
nodes = (
"392 -175 OFFCURVE",
"455 -116 OFFCURVE",
"469 -1 CURVE",
"479 76 LINE",
"359 76 LINE",
"350 3 LINE",
"342 -57 OFFCURVE",
"318 -71 OFFCURVE",
"233 -71 CURVE",
"225 -175 LINE"
);
}
);
width = 550;
},
{
components = (
{
name = n;
}
);
layerId = "3C8330F3-4770-4812-9C95-859F387513C1";
paths = (
{
closed = 1;
nodes = (
"381 -124 OFFCURVE",
"439 -86 OFFCURVE",
"449 -4 CURVE",
"452 22 LINE",
"400 22 LINE",
"397 -2 LINE",
"391 -51 OFFCURVE",
"358 -77 OFFCURVE",
"302 -88 CURVE",
"297 -139 LINE"
);
}
);
width = 520;
}
);
unicode = 014B;
},
{
color = 5;
glyphname = o;
layers = (
{
anchors = (
{
name = bottom;
position = "{251, 0}";
},
{
name = center;
position = "{282, 250}";
},
{
name = ogonek;
position = "{353, 10}";
},
{
name = top;
position = "{314, 510}";
},
{
name = topright;
position = "{575, 500}";
}
);
layerId = "4BC9CD2E-8AD0-40CC-97AA-8C7B556514B0";
paths = (
{
closed = 1;
nodes = (
"395 -10 OFFCURVE",
"504 87 OFFCURVE",
"522 235 CURVE SMOOTH",
"544 414 OFFCURVE",
"453 505 OFFCURVE",
"308 505 CURVE SMOOTH",
"166 505 OFFCURVE",
"61 420 OFFCURVE",
"40 247 CURVE SMOOTH",
"21 93 OFFCURVE",
"108 -10 OFFCURVE",
"255 -10 CURVE SMOOTH"
);
},
{
closed = 1;
nodes = (
"182 105 OFFCURVE",
"145 165 OFFCURVE",
"153 235 CURVE SMOOTH",
"164 326 OFFCURVE",
"222 390 OFFCURVE",
"304 390 CURVE SMOOTH",
"384 390 OFFCURVE",
"419 328 OFFCURVE",
"409 247 CURVE SMOOTH",
"400 174 OFFCURVE",
"344 105 OFFCURVE",
"259 105 CURVE SMOOTH"
);
}
);
width = 564;
},
{
anchors = (
{
name = bottom;
position = "{251, 0}";
},
{
name = center;
position = "{282, 250}";
},
{
name = ogonek;
position = "{479, 10}";
},
{
name = top;
position = "{313, 500}";
},
{
name = topright;
position = "{575, 500}";
}
);
layerId = "3C8330F3-4770-4812-9C95-859F387513C1";
paths = (
{
closed = 1;
nodes = (
"394 -10 OFFCURVE",
"504 90 OFFCURVE",
"523 238 CURVE SMOOTH",
"544 416 OFFCURVE",
"455 505 OFFCURVE",
"311 505 CURVE SMOOTH",
"180 505 OFFCURVE",
"61 418 OFFCURVE",
"39 244 CURVE SMOOTH",
"21 92 OFFCURVE",
"109 -10 OFFCURVE",
"252 -10 CURVE SMOOTH"
);
},
{
closed = 1;
nodes = (
"128 41 OFFCURVE",
"76 127 OFFCURVE",
"90 238 CURVE SMOOTH",
"105 363 OFFCURVE",
"181 454 OFFCURVE",
"309 454 CURVE SMOOTH",
"431 454 OFFCURVE",
"488 368 OFFCURVE",
"472 244 CURVE SMOOTH",
"458 129 OFFCURVE",
"378 41 OFFCURVE",
"254 41 CURVE SMOOTH"
);
}
);
width = 564;
}
);
leftKerningGroup = "rounded-low";
unicode = 006F;
},
{
color = 5;
glyphname = p;
layers = (
{
layerId = "4BC9CD2E-8AD0-40CC-97AA-8C7B556514B0";
paths = (
{
closed = 1;
nodes = (
"144 19 LINE",
"166 0 OFFCURVE",
"224 -7 OFFCURVE",
"257 -7 CURVE SMOOTH",
"381 -5 OFFCURVE",
"493 101 OFFCURVE",
"509 235 CURVE SMOOTH",
"534 437 OFFCURVE",
"360 565 OFFCURVE",
"195 474 CURVE",
"201 500 LINE",
"81 500 LINE",
"-5 -200 LINE",
"115 -200 LINE"
);
},
{
closed = 1;
nodes = (
"186 359 LINE",
"303 425 OFFCURVE",
"405 375 OFFCURVE",
"390 247 CURVE SMOOTH",
"375 130 OFFCURVE",
"262 74 OFFCURVE",
"153 129 CURVE"
);
}
);
width = 551;
},
{
layerId = "3C8330F3-4770-4812-9C95-859F387513C1";
paths = (
{
closed = 1;
nodes = (
"76 34 LINE",
"128 1 OFFCURVE",
"175 -5 OFFCURVE",
"219 -5 CURVE SMOOTH",
"364 -5 OFFCURVE",
"461 96 OFFCURVE",
"479 245 CURVE SMOOTH",
"506 465 OFFCURVE",
"344 564 OFFCURVE",
"128 470 CURVE",
"133 500 LINE",
"81 500 LINE",
"-5 -200 LINE",
"47 -200 LINE"
);
},
{
closed = 1;
nodes = (
"122 403 LINE",
"289 506 OFFCURVE",
"450 436 OFFCURVE",
"427 251 CURVE SMOOTH",
"404 64 OFFCURVE",
"226 -6 OFFCURVE",
"82 90 CURVE"
);
}
);
width = 520;
}
);
leftKerningGroup = "angleds-low";
unicode = 0070;
},
{
color = 5;
glyphname = thorn;
layers = (
{
layerId = "4BC9CD2E-8AD0-40CC-97AA-8C7B556514B0";
paths = (
{
closed = 1;
nodes = (
"118 -170 LINE",
"145 27 LINE",
"190 2 OFFCURVE",
"271 -1 OFFCURVE",
"322 11 CURVE SMOOTH",
"427 41 OFFCURVE",
"498 140 OFFCURVE",
"511 249 CURVE SMOOTH",
"529 396 OFFCURVE",
"483 486 OFFCURVE",
"369 517 CURVE SMOOTH",
"322 532 OFFCURVE",
"242 526 OFFCURVE",
"198 499 CURVE",
"225 700 LINE",
"105 700 LINE",
"-2 -170 LINE"
);
},
{
closed = 1;
nodes = (
"259 127 OFFCURVE",
"194 128 OFFCURVE",
"155 146 CURVE",
"186 366 LINE",
"221 390 OFFCURVE",
"293 408 OFFCURVE",
"335 397 CURVE SMOOTH",
"385 380 OFFCURVE",
"402 346 OFFCURVE",
"391 261 CURVE SMOOTH",
"383 190 OFFCURVE",
"345 148 OFFCURVE",
"293 137 CURVE SMOOTH"
);
}
);
width = 551;
},
{
layerId = "3C8330F3-4770-4812-9C95-859F387513C1";
paths = (
{
closed = 1;
nodes = (
"50 -170 LINE",
"78 50 LINE",
"144 15 OFFCURVE",
"213 12 OFFCURVE",
"285 28 CURVE SMOOTH",
"391 56 OFFCURVE",
"466 135 OFFCURVE",
"480 252 CURVE SMOOTH",
"498 398 OFFCURVE",
"449 475 OFFCURVE",
"339 501 CURVE SMOOTH",
"282 517 OFFCURVE",
"203 511 OFFCURVE",
"128 466 CURVE",
"157 700 LINE",
"105 700 LINE",
"-2 -170 LINE"
);
},
{
closed = 1;
nodes = (
"212 63 OFFCURVE",
"141 70 OFFCURVE",
"83 100 CURVE",
"122 408 LINE",
"180 443 OFFCURVE",
"260 467 OFFCURVE",
"323 453 CURVE SMOOTH",
"415 429 OFFCURVE",
"441 361 OFFCURVE",
"428 258 CURVE SMOOTH",
"417 165 OFFCURVE",
"362 99 OFFCURVE",
"273 79 CURVE SMOOTH"
);
}
);
width = 520;
}
);
unicode = 00FE;
},
{
color = 5;
glyphname = q;
layers = (
{
layerId = "4BC9CD2E-8AD0-40CC-97AA-8C7B556514B0";
paths = (
{
closed = 1;
nodes = (
"446 -200 LINE",
"532 500 LINE",
"412 500 LINE",
"406 472 LINE",
"264 563 OFFCURVE",
"64 443 OFFCURVE",
"40 247 CURVE SMOOTH",
"22 107 OFFCURVE",
"112 -5 OFFCURVE",
"242 -7 CURVE SMOOTH",
"269 -7 OFFCURVE",
"327 -4 OFFCURVE",
"354 15 CURVE",
"326 -200 LINE"
);
},
{
closed = 1;
nodes = (
"146 124 OFFCURVE",
"159 235 CURVE SMOOTH",
"176 369 OFFCURVE",
"296 427 OFFCURVE",
"397 361 CURVE",
"364 131 LINE",
"241 76 OFFCURVE"
);
}
);
width = 551;
},
{
layerId = "3C8330F3-4770-4812-9C95-859F387513C1";
paths = (
{
closed = 1;
nodes = (
"415 -200 LINE",
"501 500 LINE",
"449 500 LINE",
"444 468 LINE",
"251 562 OFFCURVE",
"67 467 OFFCURVE",
"40 251 CURVE SMOOTH",
"21 98 OFFCURVE",
"96 -5 OFFCURVE",
"243 -5 CURVE SMOOTH",
"285 -5 OFFCURVE",
"332 -1 OFFCURVE",
"392 32 CURVE",
"363 -200 LINE"
);
},
{
closed = 1;
nodes = (
"70 62 OFFCURVE",
"92 245 CURVE SMOOTH",
"116 434 OFFCURVE",
"295 508 OFFCURVE",
"438 405 CURVE",
"398 92 LINE",
"230 -4 OFFCURVE"
);
}
);
width = 520;
}
);
leftKerningGroup = "rounded-low";
unicode = 0071;
},
{
color = 5;
glyphname = r;
layers = (
{
anchors = (
{
name = bottom;
position = "{181, 0}";
},
{
name = top;
position = "{243, 500}";
}
);
layerId = "4BC9CD2E-8AD0-40CC-97AA-8C7B556514B0";
paths = (
{
closed = 1;
nodes = (
"138 0 LINE",
"177 319 LINE",
"181 367 OFFCURVE",
"269 404 OFFCURVE",
"343 378 CURVE",
"410 479 LINE",
"324 507 OFFCURVE",
"252 518 OFFCURVE",
"194 465 CURVE",
"200 500 LINE",
"81 500 LINE",
"19 0 LINE"
);
}
);
width = 413;
},
{
anchors = (
{
name = bottom;
position = "{162, 0}";
},
{
name = top;
position = "{224, 500}";
}
);
layerId = "3C8330F3-4770-4812-9C95-859F387513C1";
paths = (
{
closed = 1;
nodes = (
"71 0 LINE",
"112 333 LINE",
"120 399 OFFCURVE",
"206 479 OFFCURVE",
"302 442 CURVE",
"328 490 LINE",
"227 518 OFFCURVE",
"172 496 OFFCURVE",
"126 449 CURVE",
"133 500 LINE",
"81 500 LINE",
"19 0 LINE"
);
}
);
width = 329;
}
);
leftKerningGroup = "angleds-low";
unicode = 0072;
},
{
color = 5;
glyphname = s;
layers = (
{
anchors = (
{
name = bottom;
position = "{187, 0}";
},
{
name = top;
position = "{249, 500}";
}
);
layerId = "4BC9CD2E-8AD0-40CC-97AA-8C7B556514B0";
paths = (
{
closed = 1;
nodes = (
"129 -58 OFFCURVE",
"362 -22 OFFCURVE",
"382 145 CURVE SMOOTH",
"390 211 OFFCURVE",
"361 251 OFFCURVE",
"320 270 CURVE SMOOTH",
"262 307 OFFCURVE",
"179 308 OFFCURVE",
"185 353 CURVE SMOOTH",
"189 387 OFFCURVE",
"219 401 OFFCURVE",
"253 401 CURVE SMOOTH",
"279 401 OFFCURVE",
"312 393 OFFCURVE",
"331 373 CURVE",
"412 437 LINE",
"383 476 OFFCURVE",
"327 505 OFFCURVE",
"254 505 CURVE SMOOTH",
"107 505 OFFCURVE",
"7 369 OFFCURVE",
"101 272 CURVE SMOOTH",
"156 210 OFFCURVE",
"271 215 OFFCURVE",
"276 170 CURVE SMOOTH",
"276 129 OFFCURVE",
"245 97 OFFCURVE",
"195 97 CURVE SMOOTH",
"159 97 OFFCURVE",
"127 110 OFFCURVE",
"95 141 CURVE",
"19 70 LINE"
);
}
);
width = 435;
},
{
anchors = (
{
name = bottom;
position = "{162, 0}";
},
{
name = top;
position = "{224, 500}";
}
);
layerId = "3C8330F3-4770-4812-9C95-859F387513C1";
paths = (
{
closed = 1;
nodes = (
"107 -37 OFFCURVE",
"298 -27 OFFCURVE",
"345 95 CURVE SMOOTH",
"379 183 OFFCURVE",
"337 242 OFFCURVE",
"257 270 CURVE SMOOTH",
"159 301 OFFCURVE",
"94 320 OFFCURVE",
"111 382 CURVE",
"122 432 OFFCURVE",
"165 455 OFFCURVE",
"216 457 CURVE SMOOTH",
"255 457 OFFCURVE",
"300 447 OFFCURVE",
"338 424 CURVE",
"374 457 LINE",
"339 491 OFFCURVE",
"264 511 OFFCURVE",
"195 503 CURVE SMOOTH",
"59 486 OFFCURVE",
"3 331 OFFCURVE",
"125 266 CURVE SMOOTH",
"194 232 OFFCURVE",
"289 227 OFFCURVE",
"308 162 CURVE SMOOTH",
"324 100 OFFCURVE",
"258 40 OFFCURVE",
"179 38 CURVE SMOOTH",
"136 37 OFFCURVE",
"92 54 OFFCURVE",
"50 86 CURVE",
"16 52 LINE"
);
}
);
width = 410;
}
);
leftKerningGroup = "rounded-low";
unicode = 0073;
},
{
color = 5;
glyphname = germandbls;
layers = (
{
layerId = "4BC9CD2E-8AD0-40CC-97AA-8C7B556514B0";
paths = (
{
closed = 1;
nodes = (
"511 96 OFFCURVE",
"524 197 CURVE SMOOTH",
"532 264 OFFCURVE",
"511 334 OFFCURVE",
"472 369 CURVE",
"506 410 OFFCURVE",
"522 446 OFFCURVE",
"527 486 CURVE SMOOTH",
"541 604 OFFCURVE",
"479 700 OFFCURVE",
"369 700 CURVE SMOOTH",
"105 700 LINE",
"19 0 LINE",
"139 0 LINE",
"175 290 LINE",
"355 290 LINE SMOOTH",
"389 290 OFFCURVE",
"407 249 OFFCURVE",
"402 209 CURVE SMOOTH",
"396 164 OFFCURVE",
"358 120 OFFCURVE",
"326 120 CURVE SMOOTH",
"268 120 LINE",
"253 0 LINE",
"317 0 LINE SMOOTH",
"419 0 OFFCURVE"
);
},
{
closed = 1;
nodes = (
"411 533 OFFCURVE",
"406 498 CURVE SMOOTH",
"401 451 OFFCURVE",
"365 410 OFFCURVE",
"330 410 CURVE SMOOTH",
"190 410 LINE",
"210 575 LINE",
"358 575 LINE SMOOTH",
"395 575 OFFCURVE"
);
}
);
width = 570;
},
{
layerId = "3C8330F3-4770-4812-9C95-859F387513C1";
paths = (
{
closed = 1;
nodes = (
"501 99 OFFCURVE",
"513 193 CURVE SMOOTH",
"521 262 OFFCURVE",
"496 318 OFFCURVE",
"426 364 CURVE",
"484 421 OFFCURVE",
"507 456 OFFCURVE",
"515 518 CURVE SMOOTH",
"528 622 OFFCURVE",
"463 700 OFFCURVE",
"365 700 CURVE SMOOTH",
"105 700 LINE",
"19 0 LINE",
"72 0 LINE",
"112 327 LINE",
"358 327 LINE SMOOTH",
"430 327 OFFCURVE",
"469 266 OFFCURVE",
"461 199 CURVE SMOOTH",
"452 130 OFFCURVE",
"389 50 OFFCURVE",
"319 50 CURVE SMOOTH",
"155 50 LINE",
"149 0 LINE",
"315 0 LINE SMOOTH",
"407 0 OFFCURVE"
);
},
{
closed = 1;
nodes = (
"471 593 OFFCURVE",
"463 524 CURVE SMOOTH",
"453 448 OFFCURVE",
"387 373 OFFCURVE",
"321 373 CURVE SMOOTH",
"118 373 LINE",
"152 650 LINE",
"361 650 LINE SMOOTH",
"434 650 OFFCURVE"
);
}
);
width = 560;
}
);
unicode = 00DF;
},
{
color = 3;
glyphname = t;
layers = (
{
anchors = (
{
name = bottom;
position = "{171, 0}";
},
{
name = center;
position = "{245, 602}";
},
{
name = top;
position = "{257, 700}";
},
{
name = topright;
position = "{405, 500}";
}
);
layerId = "4BC9CD2E-8AD0-40CC-97AA-8C7B556514B0";
paths = (
{
closed = 1;
nodes = (
"95 31 OFFCURVE",
"153 -2 OFFCURVE",
"300 -2 CURVE",
"312 -2 LINE",
"327 117 LINE",
"307 117 LINE",
"263 118 OFFCURVE",
"222 105 OFFCURVE",
"237 224 CURVE SMOOTH",
"257 389 LINE",
"335 389 LINE",
"349 500 LINE",
"271 500 LINE",
"295 700 LINE",
"177 700 LINE",
"153 500 LINE",
"80 500 LINE",
"66 389 LINE",
"139 389 LINE",
"120 230 LINE SMOOTH"
);
}
);
width = 392;
},
{
anchors = (
{
name = bottom;
position = "{170, 0}";
},
{
name = center;
position = "{245, 607}";
},
{
name = top;
position = "{256, 700}";
},
{
name = topright;
position = "{428, 695}";
}
);
layerId = "3C8330F3-4770-4812-9C95-859F387513C1";
paths = (
{
closed = 1;
nodes = (
"118 33 OFFCURVE",
"114 -3 OFFCURVE",
"221 -3 CURVE",
"247 -3 LINE",
"253 49 LINE",
"222 49 LINE",
"160 50 OFFCURVE",
"176 75 OFFCURVE",
"193 207 CURVE SMOOTH",
"223 451 LINE",
"318 451 LINE",
"324 500 LINE",
"229 500 LINE",
"253 700 LINE",
"200 700 LINE",
"176 500 LINE",
"80 500 LINE",
"74 451 LINE",
"170 451 LINE",
"140 209 LINE SMOOTH"
);
}
);
width = 335;
}
);
unicode = 0074;
},
{
color = 5;
glyphname = u;
layers = (
{
anchors = (
{
name = bottom;
position = "{249, 0}";
},
{
name = ogonek;
position = "{459, 10}";
},
{
name = top;
position = "{312, 510}";
},
{
name = topright;
position = "{551, 500}";
}
);
layerId = "4BC9CD2E-8AD0-40CC-97AA-8C7B556514B0";
paths = (
{
closed = 1;
nodes = (
"521 500 LINE",
"401 500 LINE",
"366 215 LINE",
"357 147 OFFCURVE",
"294 116 OFFCURVE",
"245 116 CURVE SMOOTH",
"187 116 OFFCURVE",
"147 141 OFFCURVE",
"155 209 CURVE SMOOTH",
"191 500 LINE",
"71 500 LINE",
"36 215 LINE SMOOTH",
"27 143 OFFCURVE",
"44 84 OFFCURVE",
"81 50 CURVE SMOOTH",
"138 -12 OFFCURVE",
"305 -19 OFFCURVE",
"346 46 CURVE",
"339 0 LINE",
"459 0 LINE"
);
}
);
width = 540;
},
{
anchors = (
{
name = bottom;
position = "{229, 0}";
},
{
name = ogonek;
position = "{438, 10}";
},
{
name = top;
position = "{291, 500}";
},
{
name = topright;
position = "{530, 500}";
}
);
layerId = "3C8330F3-4770-4812-9C95-859F387513C1";
paths = (
{
closed = 1;
nodes = (
"500 500 LINE",
"448 500 LINE",
"411 201 LINE",
"398 93 OFFCURVE",
"302 41 OFFCURVE",
"229 41 CURVE SMOOTH",
"133 41 OFFCURVE",
"73 91 OFFCURVE",
"87 199 CURVE SMOOTH",
"124 500 LINE",
"71 500 LINE",
"34 201 LINE SMOOTH",
"26 132 OFFCURVE",
"43 81 OFFCURVE",
"80 48 CURVE SMOOTH",
"156 -29 OFFCURVE",
"318 -25 OFFCURVE",
"395 64 CURVE",
"386 0 LINE",
"438 0 LINE"
);
}
);
width = 519;
}
);
leftKerningGroup = "rounded-low";
unicode = 0075;
},
{
color = 3;
glyphname = v;
layers = (
{
layerId = "4BC9CD2E-8AD0-40CC-97AA-8C7B556514B0";
paths = (
{
closed = 1;
nodes = (
"431 500 LINE",
"267 134 LINE",
"195 500 LINE",
"71 500 LINE",
"190 0 LINE",
"317 0 LINE",
"557 500 LINE"
);
}
);
width = 566;
},
{
layerId = "3C8330F3-4770-4812-9C95-859F387513C1";
paths = (
{
closed = 1;
nodes = (
"473 500 LINE",
"244 55 LINE",
"125 500 LINE",
"71 500 LINE",
"199 0 LINE",
"278 0 LINE",
"529 500 LINE"
);
}
);
width = 538;
}
);
leftKerningGroup = "angled-low";
unicode = 0076;
},
{
color = 5;
glyphname = w;
layers = (
{
anchors = (
{
name = bottom;
position = "{430, 0}";
},
{
name = top;
position = "{492, 500}";
}
);
layerId = "4BC9CD2E-8AD0-40CC-97AA-8C7B556514B0";
paths = (
{
closed = 1;
nodes = (
"777 500 LINE",
"624 133 LINE",
"554 500 LINE",
"429 500 LINE",
"267 132 LINE",
"205 500 LINE",
"71 500 LINE",
"181 0 LINE",
"327 0 LINE",
"473 337 LINE",
"536 0 LINE",
"682 0 LINE",
"913 500 LINE"
);
}
);
width = 922;
},
{
anchors = (
{
name = bottom;
position = "{403, 0}";
},
{
name = top;
position = "{465, 500}";
}
);
layerId = "3C8330F3-4770-4812-9C95-859F387513C1";
paths = (
{
closed = 1;
nodes = (
"809 500 LINE",
"597 49 LINE",
"500 500 LINE",
"429 500 LINE",
"223 49 LINE",
"120 500 LINE",
"71 500 LINE",
"179 0 LINE",
"256 0 LINE",
"460 453 LINE",
"553 0 LINE",
"630 0 LINE",
"859 500 LINE"
);
}
);
width = 868;
}
);
leftKerningGroup = "angled-low";
unicode = 0077;
},
{
color = 5;
glyphname = x;
layers = (
{
layerId = "4BC9CD2E-8AD0-40CC-97AA-8C7B556514B0";
paths = (
{
closed = 1;
nodes = (
"348 254 LINE",
"529 500 LINE",
"383 500 LINE",
"280 341 LINE",
"218 500 LINE",
"75 500 LINE",
"194 254 LINE",
"8 0 LINE",
"154 0 LINE",
"263 166 LINE",
"330 0 LINE",
"472 0 LINE"
);
}
);
width = 544;
},
{
layerId = "3C8330F3-4770-4812-9C95-859F387513C1";
paths = (
{
closed = 1;
nodes = (
"268 254 LINE",
"452 500 LINE",
"391 500 LINE",
"237 293 LINE",
"134 500 LINE",
"74 500 LINE",
"198 254 LINE",
"9 0 LINE",
"70 0 LINE",
"229 215 LINE",
"338 0 LINE",
"397 0 LINE"
);
}
);
width = 468;
}
);
leftKerningGroup = "angled-low";
unicode = 0078;
},
{
color = 5;
glyphname = y;
layers = (
{
anchors = (
{
name = bottom;
position = "{254, 0}";
},
{
name = top;
position = "{317, 510}";
}
);
layerId = "4BC9CD2E-8AD0-40CC-97AA-8C7B556514B0";
paths = (
{
closed = 1;
nodes = (
"233 -173 OFFCURVE",
"269 -97 OFFCURVE",
"352 70 CURVE",
"560 500 LINE",
"426 500 LINE",
"274 146 LINE",
"201 500 LINE",
"71 500 LINE",
"190 11 LINE",
"166 -40 OFFCURVE",
"126 -55 OFFCURVE",
"77 -54 CURVE",
"68 -174 LINE"
);
}
);
width = 569;
},
{
anchors = (
{
name = bottom;
position = "{235, 0}";
},
{
name = top;
position = "{297, 500}";
}
);
layerId = "3C8330F3-4770-4812-9C95-859F387513C1";
paths = (
{
closed = 1;
nodes = (
"155 -168 OFFCURVE",
"225 -95 OFFCURVE",
"271 -2 CURVE SMOOTH",
"522 500 LINE",
"462 500 LINE",
"245 57 LINE",
"127 500 LINE",
"71 500 LINE",
"204 -10 LINE",
"198 -58 OFFCURVE",
"125 -121 OFFCURVE",
"64 -121 CURVE",
"60 -170 LINE"
);
}
);
width = 531;
}
);
leftKerningGroup = "angled-low";
unicode = 0079;
},
{
color = 5;
glyphname = z;
layers = (
{
anchors = (
{
name = bottom;
position = "{204, 0}";
},
{
name = top;
position = "{267, 510}";
}
);
guideLines = (
{
angle = 50.3977;
position = "{318, 264}";
},
{
angle = 230.6774;
position = "{152, 234}";
}
);
layerId = "4BC9CD2E-8AD0-40CC-97AA-8C7B556514B0";
paths = (
{
closed = 1;
nodes = (
"413 115 LINE",
"176 115 LINE",
"450 403 LINE",
"461 500 LINE",
"78 500 LINE",
"64 385 LINE",
"296 385 LINE",
"20 93 LINE",
"9 0 LINE",
"399 0 LINE"
);
}
);
width = 470;
},
{
anchors = (
{
name = bottom;
position = "{204, 0}";
},
{
name = top;
position = "{266, 500}";
}
);
guideLines = (
{
angle = 51.1296;
position = "{270, 252}";
},
{
angle = 231.4795;
position = "{199, 246}";
}
);
layerId = "3C8330F3-4770-4812-9C95-859F387513C1";
paths = (
{
closed = 1;
nodes = (
"405 49 LINE",
"83 49 LINE",
"455 450 LINE",
"461 500 LINE",
"78 500 LINE",
"72 451 LINE",
"387 451 LINE",
"14 45 LINE",
"9 0 LINE",
"399 0 LINE"
);
}
);
width = 470;
}
);
unicode = 007A;
},
{
glyphname = ordfeminine;
layers = (
{
anchors = (
{
name = bottom;
position = "{181, 424}";
},
{
name = ogonek;
position = "{298, 430}";
},
{
name = top;
position = "{217, 712}";
}
);
layerId = "4BC9CD2E-8AD0-40CC-97AA-8C7B556514B0";
paths = (
{
closed = 1;
nodes = (
"178 420 OFFCURVE",
"208 426 OFFCURVE",
"234 448 CURVE",
"229 424 LINE",
"298 424 LINE",
"316 570 LINE SMOOTH",
"321 611 OFFCURVE",
"325 649 OFFCURVE",
"307 668 CURVE SMOOTH",
"267 724 OFFCURVE",
"155 720 OFFCURVE",
"91 664 CURVE",
"128 619 LINE",
"166 656 OFFCURVE",
"259 668 OFFCURVE",
"253 621 CURVE SMOOTH",
"248 600 LINE",
"169 618 OFFCURVE",
"81 587 OFFCURVE",
"72 513 CURVE SMOOTH",
"65 458 OFFCURVE",
"93 424 OFFCURVE",
"153 421 CURVE SMOOTH"
);
},
{
closed = 1;
nodes = (
"195 474 OFFCURVE",
"127 463 OFFCURVE",
"132 502 CURVE SMOOTH",
"137 538 OFFCURVE",
"167 558 OFFCURVE",
"245 552 CURVE",
"235 506 LINE"
);
}
);
width = 317;
},
{
associatedMasterId = "3C8330F3-4770-4812-9C95-859F387513C1";
layerId = "E1ADDF7C-A343-4E6D-B630-136BDFE64807";
paths = (
{
closed = 1;
nodes = (
"249 391 LINE",
"316 391 LINE",
"316 665 LINE",
"249 665 LINE"
);
},
{
closed = 1;
nodes = (
"214 394 OFFCURVE",
"250 409 OFFCURVE",
"275 434 CURVE SMOOTH",
"300 459 OFFCURVE",
"315 492 OFFCURVE",
"315 531 CURVE SMOOTH",
"315 568 OFFCURVE",
"299 603 OFFCURVE",
"275 628 CURVE SMOOTH",
"250 654 OFFCURVE",
"214 668 OFFCURVE",
"177 668 CURVE SMOOTH",
"138 668 OFFCURVE",
"105 653 OFFCURVE",
"80 628 CURVE SMOOTH",
"55 603 OFFCURVE",
"40 568 OFFCURVE",
"40 531 CURVE SMOOTH",
"40 492 OFFCURVE",
"55 459 OFFCURVE",
"80 434 CURVE SMOOTH",
"105 409 OFFCURVE",
"138 394 OFFCURVE",
"177 394 CURVE SMOOTH"
);
},
{
closed = 1;
nodes = (
"216 601 OFFCURVE",
"247 570 OFFCURVE",
"247 531 CURVE SMOOTH",
"247 492 OFFCURVE",
"216 461 OFFCURVE",
"177 461 CURVE SMOOTH",
"138 461 OFFCURVE",
"107 492 OFFCURVE",
"107 531 CURVE SMOOTH",
"107 570 OFFCURVE",
"138 601 OFFCURVE",
"177 601 CURVE SMOOTH"
);
}
);
width = 356;
},
{
anchors = (
{
name = bottom;
position = "{158.738, 424}";
},
{
name = ogonek;
position = "{273.371, 429.647}";
},
{
name = top;
position = "{158.738, 706.347}";
}
);
layerId = "3C8330F3-4770-4812-9C95-859F387513C1";
paths = (
{
closed = 1;
nodes = (
"172.855 421.177 OFFCURVE",
"207 432 OFFCURVE",
"235 451 CURVE",
"235 424 LINE",
"271.677 424 LINE",
"272.241 562.35 LINE",
"273 624 OFFCURVE",
"275.065 673.03 OFFCURVE",
"225.372 696.182 CURVE SMOOTH",
"173.42 720.464 OFFCURVE",
"89 713 OFFCURVE",
"48 657 CURVE",
"73 632 LINE",
"105 687 OFFCURVE",
"235 692 OFFCURVE",
"235 624 CURVE SMOOTH",
"235 599 LINE",
"112 619 OFFCURVE",
"39.588 593.973 OFFCURVE",
"39.588 504.186 CURVE SMOOTH",
"39.588 447.717 OFFCURVE",
"86.457 421.177 OFFCURVE",
"136.15 421.177 CURVE SMOOTH"
);
},
{
closed = 1;
nodes = (
"184 447 OFFCURVE",
"75 437 OFFCURVE",
"75 504 CURVE SMOOTH",
"75 568 OFFCURVE",
"147 581 OFFCURVE",
"235 567 CURVE",
"235 483 LINE"
);
}
);
width = 312;
}
);
note = ordfeminine;
unicode = 00AA;
},
{
glyphname = ordmasculine;
layers = (
{
anchors = (
{
name = bottom;
position = "{197, 424}";
},
{
name = center;
position = "{215, 565}";
},
{
name = ogonek;
position = "{254, 430}";
},
{
name = top;
position = "{233, 712}";
},
{
name = topright;
position = "{380, 706}";
}
);
layerId = "4BC9CD2E-8AD0-40CC-97AA-8C7B556514B0";
paths = (
{
closed = 1;
nodes = (
"279 418 OFFCURVE",
"340 472 OFFCURVE",
"350 554 CURVE SMOOTH",
"362 656 OFFCURVE",
"310 709 OFFCURVE",
"227 709 CURVE SMOOTH",
"148 709 OFFCURVE",
"90 662 OFFCURVE",
"78 566 CURVE SMOOTH",
"67 478 OFFCURVE",
"118 418 OFFCURVE",
"202 418 CURVE SMOOTH"
);
},
{
closed = 1;
nodes = (
"157 483 OFFCURVE",
"137 516 OFFCURVE",
"142 554 CURVE SMOOTH",
"148 607 OFFCURVE",
"182 644 OFFCURVE",
"230 644 CURVE SMOOTH",
"273 644 OFFCURVE",
"292 610 OFFCURVE",
"286 566 CURVE SMOOTH",
"281 523 OFFCURVE",
"248 483 OFFCURVE",
"200 483 CURVE SMOOTH"
);
}
);
width = 353;
},
{
associatedMasterId = "3C8330F3-4770-4812-9C95-859F387513C1";
layerId = "E1ADDF7C-A343-4E6D-B630-136BDFE64807";
paths = (
{
closed = 1;
nodes = (
"214 394 OFFCURVE",
"250 409 OFFCURVE",
"275 434 CURVE SMOOTH",
"300 459 OFFCURVE",
"315 492 OFFCURVE",
"315 531 CURVE SMOOTH",
"315 568 OFFCURVE",
"299 603 OFFCURVE",
"275 628 CURVE SMOOTH",
"250 654 OFFCURVE",
"214 668 OFFCURVE",
"177 668 CURVE SMOOTH",
"138 668 OFFCURVE",
"105 653 OFFCURVE",
"80 628 CURVE SMOOTH",
"55 603 OFFCURVE",
"40 568 OFFCURVE",
"40 531 CURVE SMOOTH",
"40 492 OFFCURVE",
"55 459 OFFCURVE",
"80 434 CURVE SMOOTH",
"105 409 OFFCURVE",
"138 394 OFFCURVE",
"177 394 CURVE SMOOTH"
);
},
{
closed = 1;
nodes = (
"216 601 OFFCURVE",
"247 570 OFFCURVE",
"247 531 CURVE SMOOTH",
"247 492 OFFCURVE",
"216 461 OFFCURVE",
"177 461 CURVE SMOOTH",
"138 461 OFFCURVE",
"107 492 OFFCURVE",
"107 531 CURVE SMOOTH",
"107 570 OFFCURVE",
"138 601 OFFCURVE",
"177 601 CURVE SMOOTH"
);
}
);
width = 355;
},
{
anchors = (
{
name = bottom;
position = "{176.04, 424}";
},
{
name = center;
position = "{176.04, 564.993}";
},
{
name = ogonek;
position = "{303.498, 429.64}";
},
{
name = top;
position = "{176.04, 705.986}";
},
{
name = topright;
position = "{323.801, 705.986}";
}
);
layerId = "3C8330F3-4770-4812-9C95-859F387513C1";
paths = (
{
closed = 1;
nodes = (
"256.688 418.36 OFFCURVE",
"312.521 475.321 OFFCURVE",
"312.521 559.917 CURVE SMOOTH",
"312.521 659.176 OFFCURVE",
"256.688 708.806 OFFCURVE",
"176.04 708.806 CURVE SMOOTH",
"101.596 708.806 OFFCURVE",
"39.559 659.176 OFFCURVE",
"39.559 559.917 CURVE SMOOTH",
"39.559 475.321 OFFCURVE",
"95.956 418.36 OFFCURVE",
"176.04 418.36 CURVE SMOOTH"
);
},
{
closed = 1;
nodes = (
"112 459 OFFCURVE",
"80 503 OFFCURVE",
"80 560 CURVE SMOOTH",
"80 622 OFFCURVE",
"112 668 OFFCURVE",
"176 668 CURVE SMOOTH",
"238 668 OFFCURVE",
"273 624 OFFCURVE",
"272 560 CURVE SMOOTH",
"272 503 OFFCURVE",
"238 459 OFFCURVE",
"176 459 CURVE SMOOTH"
);
}
);
width = 353;
}
);
note = ordmasculine;
unicode = 00BA;
},
{
color = 5;
glyphname = zero;
layers = (
{
layerId = "4BC9CD2E-8AD0-40CC-97AA-8C7B556514B0";
paths = (
{
closed = 1;
nodes = (
"601 171 OFFCURVE",
"633 255 OFFCURVE",
"644 344 CURVE SMOOTH",
"655 438 OFFCURVE",
"642 526 OFFCURVE",
"600 590 CURVE SMOOTH",
"561 660 OFFCURVE",
"490 705 OFFCURVE",
"387 705 CURVE SMOOTH",
"288 705 OFFCURVE",
"209 663 OFFCURVE",
"152 601 CURVE SMOOTH",
"96 531 OFFCURVE",
"64 445 OFFCURVE",
"53 356 CURVE SMOOTH",
"41 261 OFFCURVE",
"55 174 OFFCURVE",
"97 110 CURVE SMOOTH",
"135 39 OFFCURVE",
"203 -5 OFFCURVE",
"310 -5 CURVE SMOOTH",
"408 -5 OFFCURVE",
"488 35 OFFCURVE",
"546 100 CURVE SMOOTH"
);
},
{
closed = 1;
nodes = (
"527 478 OFFCURVE",
"532 421 OFFCURVE",
"524 356 CURVE SMOOTH",
"515 285 OFFCURVE",
"493 227 OFFCURVE",
"457 187 CURVE SMOOTH",
"426 143 OFFCURVE",
"377 117 OFFCURVE",
"315 117 CURVE SMOOTH",
"254 117 OFFCURVE",
"217 140 OFFCURVE",
"192 177 CURVE SMOOTH",
"169 222 OFFCURVE",
"163 278 OFFCURVE",
"172 344 CURVE SMOOTH",
"180 415 OFFCURVE",
"202 473 OFFCURVE",
"239 513 CURVE SMOOTH",
"272 556 OFFCURVE",
"316 582 OFFCURVE",
"382 582 CURVE SMOOTH",
"439 582 OFFCURVE",
"480 560 OFFCURVE",
"504 523 CURVE SMOOTH"
);
}
);
width = 672;
},
{
layerId = "3C8330F3-4770-4812-9C95-859F387513C1";
paths = (
{
closed = 1;
nodes = (
"598 164 OFFCURVE",
"632 253 OFFCURVE",
"644 347 CURVE SMOOTH",
"656 444 OFFCURVE",
"642 533 OFFCURVE",
"600 597 CURVE SMOOTH",
"560 662 OFFCURVE",
"491 705 OFFCURVE",
"390 705 CURVE SMOOTH",
"291 705 OFFCURVE",
"212 666 OFFCURVE",
"155 603 CURVE SMOOTH",
"99 538 OFFCURVE",
"64 448 OFFCURVE",
"53 353 CURVE SMOOTH",
"41 255 OFFCURVE",
"55 166 OFFCURVE",
"96 102 CURVE SMOOTH",
"136 37 OFFCURVE",
"205 -5 OFFCURVE",
"307 -5 CURVE SMOOTH",
"406 -5 OFFCURVE",
"484 35 OFFCURVE",
"542 98 CURVE SMOOTH"
);
},
{
closed = 1;
nodes = (
"594 506 OFFCURVE",
"601 431 OFFCURVE",
"591 353 CURVE SMOOTH",
"581 272 OFFCURVE",
"555 196 OFFCURVE",
"507 141 CURVE SMOOTH",
"462 84 OFFCURVE",
"394 47 OFFCURVE",
"309 47 CURVE SMOOTH",
"225 47 OFFCURVE",
"167 82 OFFCURVE",
"133 137 CURVE SMOOTH",
"102 194 OFFCURVE",
"95 270 OFFCURVE",
"105 347 CURVE SMOOTH",
"115 428 OFFCURVE",
"141 504 OFFCURVE",
"188 559 CURVE SMOOTH",
"234 616 OFFCURVE",
"301 651 OFFCURVE",
"387 651 CURVE SMOOTH",
"470 651 OFFCURVE",
"529 618 OFFCURVE",
"562 563 CURVE SMOOTH"
);
}
);
width = 672;
}
);
unicode = 0030;
},
{
color = 5;
glyphname = one;
layers = (
{
layerId = "4BC9CD2E-8AD0-40CC-97AA-8C7B556514B0";
paths = (
{
closed = 1;
nodes = (
"373 700 LINE",
"239 700 LINE",
"75 535 LINE",
"149 456 LINE",
"237 552 LINE",
"168 0 LINE",
"287 0 LINE"
);
}
);
width = 358;
},
{
layerId = "3C8330F3-4770-4812-9C95-859F387513C1";
paths = (
{
closed = 1;
nodes = (
"260 700 LINE",
"191 700 LINE",
"85 620 LINE",
"116 585 LINE",
"202 650 LINE",
"122 0 LINE",
"174 0 LINE"
);
}
);
width = 245;
}
);
unicode = 0031;
},
{
color = 5;
glyphname = two;
layers = (
{
layerId = "4BC9CD2E-8AD0-40CC-97AA-8C7B556514B0";
paths = (
{
closed = 1;
nodes = (
"487 0 LINE",
"502 117 LINE",
"180 114 LINE",
"184 134 OFFCURVE",
"229 162 OFFCURVE",
"284 188 CURVE SMOOTH",
"424 268 OFFCURVE",
"538 332 OFFCURVE",
"550 452 CURVE",
"566 581 OFFCURVE",
"486 700 OFFCURVE",
"344 702 CURVE SMOOTH",
"200 704 OFFCURVE",
"98 638 OFFCURVE",
"79 484 CURVE",
"201 478 LINE",
"210 553 OFFCURVE",
"259 584 OFFCURVE",
"336 585 CURVE",
"421 584 OFFCURVE",
"464 482 OFFCURVE",
"409 419 CURVE",
"356 355 OFFCURVE",
"280 321 OFFCURVE",
"208 284 CURVE SMOOTH",
"121 233 OFFCURVE",
"45 178 OFFCURVE",
"32 74 CURVE",
"23 0 LINE"
);
}
);
width = 558;
},
{
layerId = "3C8330F3-4770-4812-9C95-859F387513C1";
paths = (
{
closed = 1;
nodes = (
"486 0 LINE",
"493 51 LINE",
"86 50 LINE",
"95 122 OFFCURVE",
"129 130 OFFCURVE",
"238 183 CURVE SMOOTH",
"394 259 OFFCURVE",
"532 341 OFFCURVE",
"550 486 CURVE SMOOTH",
"564 601 OFFCURVE",
"479 707 OFFCURVE",
"332 707 CURVE SMOOTH",
"177 707 OFFCURVE",
"110 631 OFFCURVE",
"88 546 CURVE",
"147 544 LINE",
"168 623 OFFCURVE",
"233 655 OFFCURVE",
"319 655 CURVE SMOOTH",
"426 655 OFFCURVE",
"513 585 OFFCURVE",
"501 488 CURVE SMOOTH",
"489 388 OFFCURVE",
"373 299 OFFCURVE",
"213 228 CURVE SMOOTH",
"119 186 OFFCURVE",
"46 162 OFFCURVE",
"33 55 CURVE",
"26 0 LINE"
);
}
);
width = 557;
}
);
unicode = 0032;
},
{
color = 5;
glyphname = three;
layers = (
{
layerId = "4BC9CD2E-8AD0-40CC-97AA-8C7B556514B0";
paths = (
{
closed = 1;
nodes = (
"371 -7 OFFCURVE",
"484 85 OFFCURVE",
"498 202 CURVE SMOOTH",
"506 268 OFFCURVE",
"471 319 OFFCURVE",
"434 356 CURVE",
"484 394 OFFCURVE",
"516 441 OFFCURVE",
"523 494 CURVE SMOOTH",
"537 611 OFFCURVE",
"450 703 OFFCURVE",
"333 703 CURVE SMOOTH",
"222 703 OFFCURVE",
"136 638 OFFCURVE",
"91 514 CURVE",
"210 484 LINE",
"233 545 OFFCURVE",
"270 577 OFFCURVE",
"328 577 CURVE SMOOTH",
"373 577 OFFCURVE",
"406 548 OFFCURVE",
"400 506 CURVE SMOOTH",
"395 464 OFFCURVE",
"372 403 OFFCURVE",
"299 403 CURVE SMOOTH",
"209 403 LINE",
"198 315 LINE",
"288 315 LINE SMOOTH",
"367 315 OFFCURVE",
"382 257 OFFCURVE",
"377 214 CURVE SMOOTH",
"370 164 OFFCURVE",
"319 119 OFFCURVE",
"256 119 CURVE SMOOTH",
"207 119 OFFCURVE",
"169 151 OFFCURVE",
"152 211 CURVE",
"32 181 LINE",
"55 72 OFFCURVE",
"128 -7 OFFCURVE",
"251 -7 CURVE SMOOTH"
);
}
);
width = 544;
},
{
layerId = "3C8330F3-4770-4812-9C95-859F387513C1";
paths = (
{
closed = 1;
nodes = (
"347 -8 OFFCURVE",
"462 74 OFFCURVE",
"476 187 CURVE SMOOTH",
"484 249 OFFCURVE",
"467 321 OFFCURVE",
"388 361 CURVE",
"471 411 OFFCURVE",
"495 464 OFFCURVE",
"502 517 CURVE SMOOTH",
"516 631 OFFCURVE",
"431 704 OFFCURVE",
"319 704 CURVE SMOOTH",
"235 704 OFFCURVE",
"141 652 OFFCURVE",
"105 566 CURVE",
"156 548 LINE",
"183 613 OFFCURVE",
"250 653 OFFCURVE",
"317 653 CURVE SMOOTH",
"393 653 OFFCURVE",
"460 601 OFFCURVE",
"450 523 CURVE SMOOTH",
"441 443 OFFCURVE",
"365 385 OFFCURVE",
"275 385 CURVE SMOOTH",
"218 385 LINE",
"212 339 LINE",
"271 339 LINE SMOOTH",
"363 339 OFFCURVE",
"435 276 OFFCURVE",
"425 193 CURVE SMOOTH",
"415 108 OFFCURVE",
"326 43 OFFCURVE",
"232 43 CURVE SMOOTH",
"173 43 OFFCURVE",
"112 77 OFFCURVE",
"82 127 CURVE",
"30 113 LINE",
"67 37 OFFCURVE",
"130 -8 OFFCURVE",
"229 -8 CURVE SMOOTH"
);
}
);
width = 524;
}
);
unicode = 0033;
},
{
color = 5;
glyphname = four;
layers = (
{
layerId = "4BC9CD2E-8AD0-40CC-97AA-8C7B556514B0";
paths = (
{
closed = 1;
nodes = (
"554 294 LINE",
"457 294 LINE",
"507 700 LINE",
"349 700 LINE",
"43 279 LINE",
"31 177 LINE",
"323 177 LINE",
"301 0 LINE",
"421 0 LINE",
"443 177 LINE",
"540 177 LINE"
);
},
{
closed = 1;
nodes = (
"182 294 LINE",
"370 550 LINE",
"369 550 LINE",
"337 294 LINE"
);
}
);
width = 589;
},
{
layerId = "3C8330F3-4770-4812-9C95-859F387513C1";
paths = (
{
closed = 1;
nodes = (
"546 244 LINE",
"435 244 LINE",
"491 702 LINE",
"377 702 LINE",
"40 256 LINE",
"34 198 LINE",
"379 198 LINE",
"354 0 LINE",
"405 0 LINE",
"430 198 LINE",
"541 198 LINE"
);
},
{
closed = 1;
nodes = (
"87 244 LINE",
"395 650 LINE",
"434 650 LINE",
"384 244 LINE"
);
}
);
width = 587;
}
);
unicode = 0034;
},
{
color = 5;
glyphname = five;
layers = (
{
layerId = "4BC9CD2E-8AD0-40CC-97AA-8C7B556514B0";
paths = (
{
closed = 1;
nodes = (
"361 -7 OFFCURVE",
"486 97 OFFCURVE",
"503 230 CURVE SMOOTH",
"523 394 OFFCURVE",
"441 521 OFFCURVE",
"244 474 CURVE",
"272 575 LINE",
"525 575 LINE",
"540 700 LINE",
"174 700 LINE",
"101 348 LINE",
"196 305 LINE",
"263 411 OFFCURVE",
"400 358 OFFCURVE",
"386 242 CURVE SMOOTH",
"378 176 OFFCURVE",
"306 118 OFFCURVE",
"243 118 CURVE SMOOTH",
"186 118 OFFCURVE",
"158 142 OFFCURVE",
"118 195 CURVE",
"24 110 LINE",
"84 29 OFFCURVE",
"143 -7 OFFCURVE",
"238 -7 CURVE SMOOTH"
);
}
);
width = 535;
},
{
layerId = "3C8330F3-4770-4812-9C95-859F387513C1";
paths = (
{
closed = 1;
nodes = (
"341 -6 OFFCURVE",
"462 94 OFFCURVE",
"477 221 CURVE SMOOTH",
"500 406 OFFCURVE",
"338 516 OFFCURVE",
"159 420 CURVE",
"216 652 LINE",
"518 652 LINE",
"524 700 LINE",
"171 700 LINE",
"98 375 LINE",
"154 352 LINE",
"286 457 OFFCURVE",
"447 390 OFFCURVE",
"427 227 CURVE SMOOTH",
"415 125 OFFCURVE",
"319 44 OFFCURVE",
"221 44 CURVE SMOOTH",
"147 44 OFFCURVE",
"105 64 OFFCURVE",
"60 113 CURVE",
"19 78 LINE",
"71 19 OFFCURVE",
"127 -6 OFFCURVE",
"219 -6 CURVE SMOOTH"
);
}
);
width = 521;
}
);
unicode = 0035;
},
{
color = 5;
glyphname = six;
layers = (
{
layerId = "4BC9CD2E-8AD0-40CC-97AA-8C7B556514B0";
paths = (
{
closed = 1;
nodes = (
"374 -8 OFFCURVE",
"493 94 OFFCURVE",
"509 228 CURVE SMOOTH",
"528 382 OFFCURVE",
"408 500 OFFCURVE",
"263 458 CURVE",
"323 542 OFFCURVE",
"431 626 OFFCURVE",
"509 698 CURVE",
"351 702 LINE",
"281 643 OFFCURVE",
"220 587 OFFCURVE",
"169 531 CURVE SMOOTH",
"98 443 OFFCURVE",
"53 353 OFFCURVE",
"39 240 CURVE SMOOTH",
"22 105 OFFCURVE",
"115 -8 OFFCURVE",
"248 -8 CURVE SMOOTH"
);
},
{
closed = 1;
nodes = (
"194 118 OFFCURVE",
"152 169 OFFCURVE",
"159 228 CURVE SMOOTH",
"168 297 OFFCURVE",
"229 351 OFFCURVE",
"294 351 CURVE SMOOTH",
"351 351 OFFCURVE",
"396 305 OFFCURVE",
"388 240 CURVE SMOOTH",
"379 171 OFFCURVE",
"319 118 OFFCURVE",
"255 118 CURVE SMOOTH"
);
}
);
width = 552;
},
{
layerId = "3C8330F3-4770-4812-9C95-859F387513C1";
paths = (
{
closed = 1;
nodes = (
"375 -5 OFFCURVE",
"493 94 OFFCURVE",
"508 220 CURVE SMOOTH",
"532 412 OFFCURVE",
"309 531 OFFCURVE",
"153 399 CURVE",
"229 503 OFFCURVE",
"310 592 OFFCURVE",
"430 699 CURVE",
"363 701 LINE",
"340 680 OFFCURVE",
"302 644 OFFCURVE",
"272 616 CURVE SMOOTH",
"112 455 OFFCURVE",
"50 335 OFFCURVE",
"37 226 CURVE SMOOTH",
"21 96 OFFCURVE",
"118 -5 OFFCURVE",
"246 -5 CURVE SMOOTH"
);
},
{
closed = 1;
nodes = (
"159 46 OFFCURVE",
"79 121 OFFCURVE",
"91 220 CURVE SMOOTH",
"104 322 OFFCURVE",
"199 399 OFFCURVE",
"298 399 CURVE SMOOTH",
"399 399 OFFCURVE",
"469 322 OFFCURVE",
"457 226 CURVE SMOOTH",
"445 127 OFFCURVE",
"350 46 OFFCURVE",
"251 46 CURVE SMOOTH"
);
}
);
width = 552;
}
);
unicode = 0036;
},
{
color = 5;
glyphname = seven;
layers = (
{
layerId = "4BC9CD2E-8AD0-40CC-97AA-8C7B556514B0";
paths = (
{
closed = 1;
nodes = (
"95 700 LINE",
"80 576 LINE",
"323 576 LINE",
"83 0 LINE",
"207 0 LINE",
"461 610 LINE",
"472 700 LINE"
);
}
);
width = 457;
},
{
layerId = "3C8330F3-4770-4812-9C95-859F387513C1";
paths = (
{
closed = 1;
nodes = (
"95 702 LINE",
"89 650 LINE",
"411 650 LINE",
"118 0 LINE",
"179 0 LINE",
"469 650 LINE",
"477 702 LINE"
);
}
);
width = 461;
}
);
unicode = 0037;
},
{
color = 5;
glyphname = eight;
layers = (
{
layerId = "4BC9CD2E-8AD0-40CC-97AA-8C7B556514B0";
paths = (
{
closed = 1;
nodes = (
"368 -5 OFFCURVE",
"483 81 OFFCURVE",
"499 208 CURVE SMOOTH",
"507 278 OFFCURVE",
"475 334 OFFCURVE",
"431 371 CURVE",
"472 408 OFFCURVE",
"503 452 OFFCURVE",
"509 500 CURVE SMOOTH",
"523 613 OFFCURVE",
"443 705 OFFCURVE",
"323 705 CURVE SMOOTH",
"211 705 OFFCURVE",
"113 621 OFFCURVE",
"99 512 CURVE SMOOTH",
"93 458 OFFCURVE",
"118 412 OFFCURVE",
"145 379 CURVE",
"90 338 OFFCURVE",
"44 284 OFFCURVE",
"36 220 CURVE SMOOTH",
"21 95 OFFCURVE",
"110 -5 OFFCURVE",
"246 -5 CURVE SMOOTH"
);
},
{
closed = 1;
nodes = (
"185 111 OFFCURVE",
"150 148 OFFCURVE",
"158 208 CURVE SMOOTH",
"166 271 OFFCURVE",
"215 310 OFFCURVE",
"284 310 CURVE SMOOTH",
"349 310 OFFCURVE",
"385 277 OFFCURVE",
"378 220 CURVE SMOOTH",
"370 154 OFFCURVE",
"319 111 OFFCURVE",
"250 111 CURVE SMOOTH"
);
},
{
closed = 1;
nodes = (
"240 426 OFFCURVE",
"214 452 OFFCURVE",
"220 500 CURVE SMOOTH",
"226 554 OFFCURVE",
"265 586 OFFCURVE",
"318 586 CURVE SMOOTH",
"367 586 OFFCURVE",
"394 560 OFFCURVE",
"388 512 CURVE SMOOTH",
"382 458 OFFCURVE",
"342 426 OFFCURVE",
"288 426 CURVE SMOOTH"
);
}
);
width = 544;
},
{
layerId = "3C8330F3-4770-4812-9C95-859F387513C1";
paths = (
{
closed = 1;
nodes = (
"366 -5 OFFCURVE",
"482 79 OFFCURVE",
"496 194 CURVE SMOOTH",
"504 260 OFFCURVE",
"473 337 OFFCURVE",
"393 374 CURVE",
"467 410 OFFCURVE",
"500 477 OFFCURVE",
"506 523 CURVE SMOOTH",
"518 625 OFFCURVE",
"437 705 OFFCURVE",
"325 705 CURVE SMOOTH",
"221 705 OFFCURVE",
"117 628 OFFCURVE",
"105 529 CURVE SMOOTH",
"99 478 OFFCURVE",
"121 411 OFFCURVE",
"180 376 CURVE",
"91 340 OFFCURVE",
"41 261 OFFCURVE",
"34 200 CURVE SMOOTH",
"19 77 OFFCURVE",
"115 -5 OFFCURVE",
"242 -5 CURVE SMOOTH"
);
},
{
closed = 1;
nodes = (
"143 45 OFFCURVE",
"75 101 OFFCURVE",
"86 194 CURVE SMOOTH",
"97 286 OFFCURVE",
"180 346 OFFCURVE",
"285 346 CURVE SMOOTH",
"381 346 OFFCURVE",
"456 297 OFFCURVE",
"444 200 CURVE SMOOTH",
"432 100 OFFCURVE",
"344 45 OFFCURVE",
"244 45 CURVE SMOOTH"
);
},
{
closed = 1;
nodes = (
"203 396 OFFCURVE",
"148 443 OFFCURVE",
"158 523 CURVE SMOOTH",
"167 603 OFFCURVE",
"232 655 OFFCURVE",
"323 655 CURVE SMOOTH",
"410 655 OFFCURVE",
"463 607 OFFCURVE",
"453 529 CURVE SMOOTH",
"443 448 OFFCURVE",
"378 396 OFFCURVE",
"287 396 CURVE SMOOTH"
);
}
);
width = 543;
}
);
unicode = 0038;
},
{
color = 5;
glyphname = nine;
layers = (
{
layerId = "4BC9CD2E-8AD0-40CC-97AA-8C7B556514B0";
paths = (
{
closed = 1;
nodes = (
"203 708 OFFCURVE",
"84 606 OFFCURVE",
"67 472 CURVE SMOOTH",
"48 318 OFFCURVE",
"168 200 OFFCURVE",
"313 242 CURVE",
"253 158 OFFCURVE",
"146 74 OFFCURVE",
"68 2 CURVE",
"226 -2 LINE",
"295 57 OFFCURVE",
"357 113 OFFCURVE",
"408 169 CURVE SMOOTH",
"478 257 OFFCURVE",
"524 347 OFFCURVE",
"538 460 CURVE SMOOTH",
"554 595 OFFCURVE",
"462 708 OFFCURVE",
"328 708 CURVE SMOOTH"
);
},
{
closed = 1;
nodes = (
"382 582 OFFCURVE",
"424 531 OFFCURVE",
"417 472 CURVE SMOOTH",
"409 403 OFFCURVE",
"348 349 OFFCURVE",
"283 349 CURVE SMOOTH",
"226 349 OFFCURVE",
"181 395 OFFCURVE",
"189 460 CURVE SMOOTH",
"197 529 OFFCURVE",
"257 582 OFFCURVE",
"322 582 CURVE SMOOTH"
);
}
);
width = 552;
},
{
layerId = "3C8330F3-4770-4812-9C95-859F387513C1";
paths = (
{
closed = 1;
nodes = (
"202 705 OFFCURVE",
"84 606 OFFCURVE",
"68 480 CURVE SMOOTH",
"45 288 OFFCURVE",
"268 169 OFFCURVE",
"424 301 CURVE",
"348 197 OFFCURVE",
"267 108 OFFCURVE",
"147 1 CURVE",
"214 -1 LINE",
"236 20 OFFCURVE",
"275 56 OFFCURVE",
"305 84 CURVE SMOOTH",
"464 245 OFFCURVE",
"526 365 OFFCURVE",
"540 474 CURVE SMOOTH",
"555 604 OFFCURVE",
"459 705 OFFCURVE",
"331 705 CURVE SMOOTH"
);
},
{
closed = 1;
nodes = (
"418 654 OFFCURVE",
"497 579 OFFCURVE",
"485 480 CURVE SMOOTH",
"473 378 OFFCURVE",
"377 301 OFFCURVE",
"278 301 CURVE SMOOTH",
"177 301 OFFCURVE",
"108 378 OFFCURVE",
"120 474 CURVE SMOOTH",
"132 573 OFFCURVE",
"227 654 OFFCURVE",
"326 654 CURVE SMOOTH"
);
}
);
width = 552;
}
);
unicode = 0039;
},
{
color = 5;
glyphname = zero.dnom;
layers = (
{
layerId = "4BC9CD2E-8AD0-40CC-97AA-8C7B556514B0";
paths = (
{
closed = 1;
nodes = (
"394 108 OFFCURVE",
"414 162 OFFCURVE",
"421 219 CURVE SMOOTH",
"429 281 OFFCURVE",
"420 339 OFFCURVE",
"392 379 CURVE SMOOTH",
"367 426 OFFCURVE",
"321 456 OFFCURVE",
"252 456 CURVE SMOOTH",
"190 456 OFFCURVE",
"138 429 OFFCURVE",
"101 390 CURVE SMOOTH",
"65 343 OFFCURVE",
"45 288 OFFCURVE",
"38 231 CURVE SMOOTH",
"30 168 OFFCURVE",
"39 111 OFFCURVE",
"67 71 CURVE SMOOTH",
"91 24 OFFCURVE",
"136 -6 OFFCURVE",
"206 -6 CURVE SMOOTH",
"269 -6 OFFCURVE",
"320 20 OFFCURVE",
"359 61 CURVE SMOOTH"
);
},
{
closed = 1;
nodes = (
"347 309 OFFCURVE",
"349 272 OFFCURVE",
"344 231 CURVE SMOOTH",
"338 184 OFFCURVE",
"323 146 OFFCURVE",
"299 121 CURVE SMOOTH",
"279 91 OFFCURVE",
"247 74 OFFCURVE",
"205 74 CURVE SMOOTH",
"167 74 OFFCURVE",
"144 88 OFFCURVE",
"127 111 CURVE SMOOTH",
"112 141 OFFCURVE",
"109 177 OFFCURVE",
"114 219 CURVE SMOOTH",
"120 266 OFFCURVE",
"134 304 OFFCURVE",
"160 329 CURVE SMOOTH",
"179 357 OFFCURVE",
"209 376 OFFCURVE",
"253 376 CURVE SMOOTH",
"289 376 OFFCURVE",
"315 362 OFFCURVE",
"332 339 CURVE SMOOTH"
);
}
);
width = 465;
},
{
layerId = "3C8330F3-4770-4812-9C95-859F387513C1";
paths = (
{
closed = 1;
nodes = (
"392 104 OFFCURVE",
"414 162 OFFCURVE",
"422 222 CURVE SMOOTH",
"429 286 OFFCURVE",
"420 344 OFFCURVE",
"392 385 CURVE SMOOTH",
"367 427 OFFCURVE",
"321 456 OFFCURVE",
"255 456 CURVE SMOOTH",
"191 456 OFFCURVE",
"141 431 OFFCURVE",
"103 390 CURVE SMOOTH",
"67 348 OFFCURVE",
"45 289 OFFCURVE",
"37 228 CURVE SMOOTH",
"29 164 OFFCURVE",
"39 106 OFFCURVE",
"66 65 CURVE SMOOTH",
"92 22 OFFCURVE",
"137 -6 OFFCURVE",
"203 -6 CURVE SMOOTH",
"267 -6 OFFCURVE",
"318 20 OFFCURVE",
"355 61 CURVE SMOOTH"
);
},
{
closed = 1;
nodes = (
"389 327 OFFCURVE",
"393 278 OFFCURVE",
"387 228 CURVE SMOOTH",
"381 175 OFFCURVE",
"363 125 OFFCURVE",
"332 90 CURVE SMOOTH",
"303 52 OFFCURVE",
"259 28 OFFCURVE",
"203 28 CURVE SMOOTH",
"149 28 OFFCURVE",
"111 50 OFFCURVE",
"89 86 CURVE SMOOTH",
"69 123 OFFCURVE",
"65 173 OFFCURVE",
"71 222 CURVE SMOOTH",
"77 275 OFFCURVE",
"95 325 OFFCURVE",
"126 360 CURVE SMOOTH",
"155 398 OFFCURVE",
"199 421 OFFCURVE",
"255 421 CURVE SMOOTH",
"309 421 OFFCURVE",
"347 400 OFFCURVE",
"368 364 CURVE SMOOTH"
);
}
);
width = 465;
}
);
},
{
color = 5;
glyphname = one.dnom;
layers = (
{
layerId = "4BC9CD2E-8AD0-40CC-97AA-8C7B556514B0";
paths = (
{
closed = 1;
nodes = (
"246 453 LINE",
"158 453 LINE",
"52 345 LINE",
"100 294 LINE",
"157 356 LINE",
"112 -3 LINE",
"190 -3 LINE"
);
}
);
width = 291;
},
{
layerId = "3C8330F3-4770-4812-9C95-859F387513C1";
paths = (
{
closed = 1;
nodes = (
"172 453 LINE",
"127 453 LINE",
"59 401 LINE",
"78 378 LINE",
"134 420 LINE",
"82 -3 LINE",
"116 -3 LINE"
);
}
);
width = 187;
}
);
},
{
color = 5;
glyphname = two.dnom;
layers = (
{
layerId = "4BC9CD2E-8AD0-40CC-97AA-8C7B556514B0";
paths = (
{
closed = 1;
nodes = (
"313 -3 LINE",
"322 74 LINE",
"112 71 LINE",
"116 84 OFFCURVE",
"146 102 OFFCURVE",
"182 119 CURVE SMOOTH",
"273 171 OFFCURVE",
"345 212 OFFCURVE",
"353 289 CURVE",
"363 374 OFFCURVE",
"310 453 OFFCURVE",
"218 454 CURVE SMOOTH",
"126 455 OFFCURVE",
"60 413 OFFCURVE",
"48 313 CURVE",
"126 307 LINE",
"132 356 OFFCURVE",
"165 377 OFFCURVE",
"217 378 CURVE",
"270 377 OFFCURVE",
"297 312 OFFCURVE",
"261 272 CURVE",
"227 229 OFFCURVE",
"177 208 OFFCURVE",
"129 183 CURVE SMOOTH",
"74 150 OFFCURVE",
"25 114 OFFCURVE",
"17 47 CURVE",
"11 -3 LINE"
);
}
);
width = 388;
},
{
layerId = "3C8330F3-4770-4812-9C95-859F387513C1";
paths = (
{
closed = 1;
nodes = (
"311 -3 LINE",
"315 31 LINE",
"51 30 LINE",
"57 76 OFFCURVE",
"79 82 OFFCURVE",
"150 116 CURVE SMOOTH",
"252 166 OFFCURVE",
"341 219 OFFCURVE",
"353 312 CURVE SMOOTH",
"362 388 OFFCURVE",
"306 457 OFFCURVE",
"210 457 CURVE SMOOTH",
"109 457 OFFCURVE",
"66 408 OFFCURVE",
"53 353 CURVE",
"91 351 LINE",
"104 402 OFFCURVE",
"146 423 OFFCURVE",
"203 423 CURVE SMOOTH",
"272 423 OFFCURVE",
"329 378 OFFCURVE",
"321 316 CURVE SMOOTH",
"313 250 OFFCURVE",
"237 192 OFFCURVE",
"133 146 CURVE SMOOTH",
"72 119 OFFCURVE",
"25 103 OFFCURVE",
"17 34 CURVE",
"12 -3 LINE"
);
}
);
width = 385;
}
);
},
{
color = 5;
glyphname = three.dnom;
layers = (
{
layerId = "4BC9CD2E-8AD0-40CC-97AA-8C7B556514B0";
paths = (
{
closed = 1;
nodes = (
"245 -7 OFFCURVE",
"318 52 OFFCURVE",
"327 127 CURVE SMOOTH",
"332 171 OFFCURVE",
"308 204 OFFCURVE",
"285 228 CURVE",
"318 253 OFFCURVE",
"338 283 OFFCURVE",
"342 317 CURVE SMOOTH",
"352 394 OFFCURVE",
"294 454 OFFCURVE",
"218 454 CURVE SMOOTH",
"146 454 OFFCURVE",
"91 413 OFFCURVE",
"62 333 CURVE",
"140 311 LINE",
"154 351 OFFCURVE",
"180 373 OFFCURVE",
"218 373 CURVE SMOOTH",
"247 373 OFFCURVE",
"267 355 OFFCURVE",
"264 329 CURVE SMOOTH",
"260 300 OFFCURVE",
"244 259 OFFCURVE",
"197 259 CURVE SMOOTH",
"139 259 LINE",
"132 202 LINE",
"191 202 LINE SMOOTH",
"242 202 OFFCURVE",
"252 166 OFFCURVE",
"248 139 CURVE SMOOTH",
"244 105 OFFCURVE",
"210 75 OFFCURVE",
"167 75 CURVE SMOOTH",
"137 75 OFFCURVE",
"112 95 OFFCURVE",
"102 134 CURVE",
"24 116 LINE",
"39 45 OFFCURVE",
"87 -7 OFFCURVE",
"168 -7 CURVE SMOOTH"
);
}
);
width = 382;
},
{
layerId = "3C8330F3-4770-4812-9C95-859F387513C1";
paths = (
{
closed = 1;
nodes = (
"225 -8 OFFCURVE",
"300 45 OFFCURVE",
"309 118 CURVE SMOOTH",
"314 159 OFFCURVE",
"302 206 OFFCURVE",
"251 232 CURVE",
"306 264 OFFCURVE",
"321 299 OFFCURVE",
"325 333 CURVE SMOOTH",
"334 407 OFFCURVE",
"278 455 OFFCURVE",
"205 455 CURVE SMOOTH",
"151 455 OFFCURVE",
"91 422 OFFCURVE",
"67 366 CURVE",
"100 353 LINE",
"118 396 OFFCURVE",
"161 422 OFFCURVE",
"205 422 CURVE SMOOTH",
"254 422 OFFCURVE",
"298 389 OFFCURVE",
"292 339 CURVE SMOOTH",
"285 286 OFFCURVE",
"236 248 OFFCURVE",
"177 248 CURVE SMOOTH",
"141 248 LINE",
"137 218 LINE",
"175 218 LINE SMOOTH",
"235 218 OFFCURVE",
"282 177 OFFCURVE",
"275 124 CURVE SMOOTH",
"269 68 OFFCURVE",
"210 25 OFFCURVE",
"148 25 CURVE SMOOTH",
"110 25 OFFCURVE",
"71 47 OFFCURVE",
"53 80 CURVE",
"18 71 LINE",
"43 22 OFFCURVE",
"84 -8 OFFCURVE",
"148 -8 CURVE SMOOTH"
);
}
);
width = 365;
}
);
},
{
color = 5;
glyphname = four.dnom;
layers = (
{
layerId = "4BC9CD2E-8AD0-40CC-97AA-8C7B556514B0";
paths = (
{
closed = 1;
nodes = (
"364 189 LINE",
"301 189 LINE",
"333 453 LINE",
"230 453 LINE",
"30 179 LINE",
"23 113 LINE",
"213 113 LINE",
"199 -3 LINE",
"277 -3 LINE",
"291 113 LINE",
"354 113 LINE"
);
},
{
closed = 1;
nodes = (
"121 189 LINE",
"244 355 LINE",
"243 355 LINE",
"223 189 LINE"
);
}
);
width = 411;
},
{
layerId = "3C8330F3-4770-4812-9C95-859F387513C1";
paths = (
{
closed = 1;
nodes = (
"358 156 LINE",
"285 156 LINE",
"322 454 LINE",
"248 454 LINE",
"29 164 LINE",
"25 126 LINE",
"249 126 LINE",
"233 -3 LINE",
"266 -3 LINE",
"282 126 LINE",
"355 126 LINE"
);
},
{
closed = 1;
nodes = (
"60 156 LINE",
"259 420 LINE",
"285 420 LINE",
"252 156 LINE"
);
}
);
width = 410;
}
);
},
{
color = 5;
glyphname = five.dnom;
layers = (
{
layerId = "4BC9CD2E-8AD0-40CC-97AA-8C7B556514B0";
paths = (
{
closed = 1;
nodes = (
"239 -7 OFFCURVE",
"319 60 OFFCURVE",
"329 145 CURVE SMOOTH",
"342 253 OFFCURVE",
"289 337 OFFCURVE",
"160 306 CURVE",
"180 371 LINE",
"344 371 LINE",
"354 453 LINE",
"116 453 LINE",
"69 224 LINE",
"131 195 LINE",
"174 264 OFFCURVE",
"264 231 OFFCURVE",
"255 157 CURVE SMOOTH",
"249 113 OFFCURVE",
"201 74 OFFCURVE",
"159 74 CURVE SMOOTH",
"123 74 OFFCURVE",
"105 89 OFFCURVE",
"79 124 CURVE",
"19 70 LINE",
"58 17 OFFCURVE",
"97 -7 OFFCURVE",
"160 -7 CURVE SMOOTH"
);
}
);
width = 382;
},
{
layerId = "3C8330F3-4770-4812-9C95-859F387513C1";
paths = (
{
closed = 1;
nodes = (
"225 -6 OFFCURVE",
"303 58 OFFCURVE",
"314 140 CURVE SMOOTH",
"328 261 OFFCURVE",
"222 333 OFFCURVE",
"106 271 CURVE",
"144 421 LINE",
"340 421 LINE",
"344 453 LINE",
"114 453 LINE",
"67 241 LINE",
"104 226 LINE",
"189 294 OFFCURVE",
"294 251 OFFCURVE",
"281 146 CURVE SMOOTH",
"273 79 OFFCURVE",
"209 26 OFFCURVE",
"145 26 CURVE SMOOTH",
"97 26 OFFCURVE",
"71 39 OFFCURVE",
"42 71 CURVE",
"16 49 LINE",
"49 10 OFFCURVE",
"86 -6 OFFCURVE",
"146 -6 CURVE SMOOTH"
);
}
);
width = 367;
}
);
},
{
color = 5;
glyphname = six.dnom;
layers = (
{
layerId = "4BC9CD2E-8AD0-40CC-97AA-8C7B556514B0";
paths = (
{
closed = 1;
nodes = (
"247 -8 OFFCURVE",
"323 58 OFFCURVE",
"334 144 CURVE SMOOTH",
"346 245 OFFCURVE",
"267 323 OFFCURVE",
"173 295 CURVE",
"213 349 OFFCURVE",
"284 404 OFFCURVE",
"334 451 CURVE",
"230 455 LINE",
"186 416 OFFCURVE",
"146 380 OFFCURVE",
"112 344 CURVE SMOOTH",
"66 286 OFFCURVE",
"37 228 OFFCURVE",
"28 156 CURVE SMOOTH",
"18 67 OFFCURVE",
"79 -8 OFFCURVE",
"166 -8 CURVE SMOOTH"
);
},
{
closed = 1;
nodes = (
"128 74 OFFCURVE",
"101 106 OFFCURVE",
"106 144 CURVE SMOOTH",
"112 190 OFFCURVE",
"153 226 OFFCURVE",
"195 226 CURVE SMOOTH",
"232 226 OFFCURVE",
"260 197 OFFCURVE",
"255 156 CURVE SMOOTH",
"250 110 OFFCURVE",
"210 74 OFFCURVE",
"166 74 CURVE SMOOTH"
);
}
);
width = 387;
},
{
layerId = "3C8330F3-4770-4812-9C95-859F387513C1";
paths = (
{
closed = 1;
nodes = (
"247 -6 OFFCURVE",
"323 58 OFFCURVE",
"333 139 CURVE SMOOTH",
"349 265 OFFCURVE",
"204 343 OFFCURVE",
"103 257 CURVE",
"152 324 OFFCURVE",
"205 382 OFFCURVE",
"283 452 CURVE",
"238 454 LINE",
"224 440 OFFCURVE",
"199 416 OFFCURVE",
"179 399 CURVE SMOOTH",
"76 294 OFFCURVE",
"36 216 OFFCURVE",
"27 145 CURVE SMOOTH",
"17 60 OFFCURVE",
"80 -6 OFFCURVE",
"164 -6 CURVE SMOOTH"
);
},
{
closed = 1;
nodes = (
"106 27 OFFCURVE",
"55 76 OFFCURVE",
"62 139 CURVE SMOOTH",
"71 206 OFFCURVE",
"133 257 OFFCURVE",
"198 257 CURVE SMOOTH",
"263 257 OFFCURVE",
"308 207 OFFCURVE",
"300 145 CURVE SMOOTH",
"292 80 OFFCURVE",
"230 27 OFFCURVE",
"166 27 CURVE SMOOTH"
);
}
);
width = 387;
}
);
},
{
color = 5;
glyphname = seven.dnom;
layers = (
{
layerId = "4BC9CD2E-8AD0-40CC-97AA-8C7B556514B0";
paths = (
{
closed = 1;
nodes = (
"65 453 LINE",
"55 372 LINE",
"213 372 LINE",
"56 -3 LINE",
"138 -3 LINE",
"302 394 LINE",
"310 453 LINE"
);
}
);
width = 325;
},
{
layerId = "3C8330F3-4770-4812-9C95-859F387513C1";
paths = (
{
closed = 1;
nodes = (
"65 454 LINE",
"61 420 LINE",
"270 420 LINE",
"80 -3 LINE",
"119 -3 LINE",
"308 420 LINE",
"313 454 LINE"
);
}
);
width = 328;
}
);
},
{
color = 5;
glyphname = eight.dnom;
layers = (
{
layerId = "4BC9CD2E-8AD0-40CC-97AA-8C7B556514B0";
paths = (
{
closed = 1;
nodes = (
"243 -6 OFFCURVE",
"317 49 OFFCURVE",
"327 131 CURVE SMOOTH",
"333 177 OFFCURVE",
"312 214 OFFCURVE",
"282 237 CURVE",
"310 262 OFFCURVE",
"330 290 OFFCURVE",
"334 320 CURVE SMOOTH",
"343 395 OFFCURVE",
"291 456 OFFCURVE",
"211 456 CURVE SMOOTH",
"140 456 OFFCURVE",
"77 402 OFFCURVE",
"68 332 CURVE SMOOTH",
"64 296 OFFCURVE",
"80 266 OFFCURVE",
"97 245 CURVE",
"61 218 OFFCURVE",
"32 183 OFFCURVE",
"27 143 CURVE SMOOTH",
"17 60 OFFCURVE",
"75 -6 OFFCURVE",
"165 -6 CURVE SMOOTH"
);
},
{
closed = 1;
nodes = (
"122 70 OFFCURVE",
"101 93 OFFCURVE",
"105 131 CURVE SMOOTH",
"111 173 OFFCURVE",
"143 199 OFFCURVE",
"190 199 CURVE SMOOTH",
"230 199 OFFCURVE",
"253 179 OFFCURVE",
"249 143 CURVE SMOOTH",
"243 99 OFFCURVE",
"209 70 OFFCURVE",
"164 70 CURVE SMOOTH"
);
},
{
closed = 1;
nodes = (
"158 274 OFFCURVE",
"142 290 OFFCURVE",
"146 320 CURVE SMOOTH",
"150 357 OFFCURVE",
"176 378 OFFCURVE",
"212 378 CURVE SMOOTH",
"242 378 OFFCURVE",
"259 363 OFFCURVE",
"255 332 CURVE SMOOTH",
"251 296 OFFCURVE",
"224 274 OFFCURVE",
"189 274 CURVE SMOOTH"
);
}
);
width = 382;
},
{
layerId = "3C8330F3-4770-4812-9C95-859F387513C1";
paths = (
{
closed = 1;
nodes = (
"241 -6 OFFCURVE",
"316 49 OFFCURVE",
"325 123 CURVE SMOOTH",
"331 166 OFFCURVE",
"310 216 OFFCURVE",
"259 240 CURVE",
"307 264 OFFCURVE",
"328 307 OFFCURVE",
"332 336 CURVE SMOOTH",
"340 403 OFFCURVE",
"286 456 OFFCURVE",
"213 456 CURVE SMOOTH",
"146 456 OFFCURVE",
"79 406 OFFCURVE",
"71 342 CURVE SMOOTH",
"67 309 OFFCURVE",
"82 265 OFFCURVE",
"120 242 CURVE",
"62 219 OFFCURVE",
"30 168 OFFCURVE",
"25 129 CURVE SMOOTH",
"15 48 OFFCURVE",
"78 -6 OFFCURVE",
"161 -6 CURVE SMOOTH"
);
},
{
closed = 1;
nodes = (
"96 27 OFFCURVE",
"51 63 OFFCURVE",
"58 123 CURVE SMOOTH",
"66 183 OFFCURVE",
"121 222 OFFCURVE",
"189 222 CURVE SMOOTH",
"251 222 OFFCURVE",
"300 191 OFFCURVE",
"292 129 CURVE SMOOTH",
"284 63 OFFCURVE",
"227 27 OFFCURVE",
"161 27 CURVE SMOOTH"
);
},
{
closed = 1;
nodes = (
"135 255 OFFCURVE",
"99 285 OFFCURVE",
"106 336 CURVE SMOOTH",
"112 389 OFFCURVE",
"154 423 OFFCURVE",
"213 423 CURVE SMOOTH",
"269 423 OFFCURVE",
"303 392 OFFCURVE",
"297 342 CURVE SMOOTH",
"291 289 OFFCURVE",
"249 255 OFFCURVE",
"189 255 CURVE SMOOTH"
);
}
);
width = 381;
}
);
},
{
color = 5;
glyphname = nine.dnom;
layers = (
{
layerId = "4BC9CD2E-8AD0-40CC-97AA-8C7B556514B0";
paths = (
{
closed = 1;
nodes = (
"134 458 OFFCURVE",
"58 393 OFFCURVE",
"47 307 CURVE SMOOTH",
"35 206 OFFCURVE",
"113 128 OFFCURVE",
"207 156 CURVE",
"168 102 OFFCURVE",
"97 47 OFFCURVE",
"47 0 CURVE",
"151 -4 LINE",
"196 34 OFFCURVE",
"235 70 OFFCURVE",
"269 106 CURVE SMOOTH",
"314 164 OFFCURVE",
"344 223 OFFCURVE",
"353 295 CURVE SMOOTH",
"363 384 OFFCURVE",
"302 458 OFFCURVE",
"215 458 CURVE SMOOTH"
);
},
{
closed = 1;
nodes = (
"253 376 OFFCURVE",
"279 344 OFFCURVE",
"275 307 CURVE SMOOTH",
"269 261 OFFCURVE",
"228 225 OFFCURVE",
"185 225 CURVE SMOOTH",
"149 225 OFFCURVE",
"121 254 OFFCURVE",
"126 295 CURVE SMOOTH",
"131 341 OFFCURVE",
"171 376 OFFCURVE",
"214 376 CURVE SMOOTH"
);
}
);
width = 387;
},
{
layerId = "3C8330F3-4770-4812-9C95-859F387513C1";
paths = (
{
closed = 1;
nodes = (
"134 456 OFFCURVE",
"58 393 OFFCURVE",
"48 311 CURVE SMOOTH",
"32 186 OFFCURVE",
"178 108 OFFCURVE",
"279 194 CURVE",
"229 126 OFFCURVE",
"176 68 OFFCURVE",
"98 -1 CURVE",
"142 -3 LINE",
"157 11 OFFCURVE",
"182 34 OFFCURVE",
"202 52 CURVE SMOOTH",
"305 157 OFFCURVE",
"345 235 OFFCURVE",
"354 306 CURVE SMOOTH",
"364 390 OFFCURVE",
"301 456 OFFCURVE",
"218 456 CURVE SMOOTH"
);
},
{
closed = 1;
nodes = (
"275 423 OFFCURVE",
"327 375 OFFCURVE",
"319 311 CURVE SMOOTH",
"311 244 OFFCURVE",
"248 194 OFFCURVE",
"183 194 CURVE SMOOTH",
"118 194 OFFCURVE",
"73 243 OFFCURVE",
"81 306 CURVE SMOOTH",
"89 370 OFFCURVE",
"151 423 OFFCURVE",
"216 423 CURVE SMOOTH"
);
}
);
width = 387;
}
);
},
{
color = 5;
glyphname = fraction;
layers = (
{
layerId = "4BC9CD2E-8AD0-40CC-97AA-8C7B556514B0";
paths = (
{
closed = 1;
nodes = (
"358 700 LINE",
"-112 -6 LINE",
"-31 -6 LINE",
"440 700 LINE"
);
}
);
width = 284;
},
{
layerId = "3C8330F3-4770-4812-9C95-859F387513C1";
paths = (
{
closed = 1;
nodes = (
"382 700 LINE",
"-112 -6 LINE",
"-72 -6 LINE",
"422 700 LINE"
);
}
);
width = 266;
}
);
unicode = 2044;
},
{
color = 5;
glyphname = period;
layers = (
{
layerId = "4BC9CD2E-8AD0-40CC-97AA-8C7B556514B0";
paths = (
{
closed = 1;
nodes = (
"83 -5 OFFCURVE",
"113 22 OFFCURVE",
"116 56 CURVE SMOOTH",
"120 95 OFFCURVE",
"94 127 OFFCURVE",
"56 126 CURVE SMOOTH",
"21 125 OFFCURVE",
"-7 101 OFFCURVE",
"-13 68 CURVE SMOOTH",
"-18 28 OFFCURVE",
"11 -3 OFFCURVE",
"50 -4 CURVE SMOOTH"
);
}
);
width = 190;
},
{
layerId = "3C8330F3-4770-4812-9C95-859F387513C1";
paths = (
{
closed = 1;
nodes = (
"46 -4 OFFCURVE",
"67 15 OFFCURVE",
"70 36 CURVE SMOOTH",
"73 61 OFFCURVE",
"54 82 OFFCURVE",
"30 82 CURVE SMOOTH",
"8 82 OFFCURVE",
"-13 63 OFFCURVE",
"-16 42 CURVE SMOOTH",
"-19 17 OFFCURVE",
"0 -4 OFFCURVE",
"24 -4 CURVE SMOOTH"
);
}
);
width = 146;
}
);
unicode = 002E;
},
{
color = 5;
glyphname = comma;
layers = (
{
layerId = "4BC9CD2E-8AD0-40CC-97AA-8C7B556514B0";
paths = (
{
closed = 1;
nodes = (
"-10 15 OFFCURVE",
"15 -17 OFFCURVE",
"46 -14 CURVE",
"35 -46 OFFCURVE",
"23 -79 OFFCURVE",
"5 -107 CURVE",
"50 -132 LINE",
"79 -79 OFFCURVE",
"119 -1 OFFCURVE",
"124 39 CURVE SMOOTH",
"129 78 OFFCURVE",
"102 110 OFFCURVE",
"64 109 CURVE SMOOTH",
"29 108 OFFCURVE",
"1 84 OFFCURVE",
"-5 51 CURVE SMOOTH"
);
}
);
width = 190;
},
{
layerId = "3C8330F3-4770-4812-9C95-859F387513C1";
paths = (
{
closed = 1;
nodes = (
"-6 38 OFFCURVE",
"12 16 OFFCURVE",
"41 18 CURVE",
"27 -22 OFFCURVE",
"-2 -82 OFFCURVE",
"-10 -93 CURVE",
"10 -104 LINE",
"20 -85 OFFCURVE",
"84 32 OFFCURVE",
"88 56 CURVE",
"95 83 OFFCURVE",
"75 110 OFFCURVE",
"49 110 CURVE SMOOTH",
"22 110 OFFCURVE",
"0 89 OFFCURVE",
"-3 66 CURVE SMOOTH"
);
}
);
width = 152;
}
);
unicode = 002C;
},
{
color = 5;
glyphname = colon;
layers = (
{
layerId = "4BC9CD2E-8AD0-40CC-97AA-8C7B556514B0";
paths = (
{
closed = 1;
nodes = (
"123 -10 OFFCURVE",
"152 17 OFFCURVE",
"155 51 CURVE SMOOTH",
"159 90 OFFCURVE",
"134 122 OFFCURVE",
"95 121 CURVE SMOOTH",
"60 120 OFFCURVE",
"32 96 OFFCURVE",
"27 63 CURVE SMOOTH",
"21 23 OFFCURVE",
"50 -8 OFFCURVE",
"89 -9 CURVE SMOOTH"
);
},
{
closed = 1;
nodes = (
"161 302 OFFCURVE",
"191 329 OFFCURVE",
"194 363 CURVE SMOOTH",
"198 402 OFFCURVE",
"172 434 OFFCURVE",
"133 433 CURVE SMOOTH",
"99 432 OFFCURVE",
"70 408 OFFCURVE",
"65 375 CURVE SMOOTH",
"59 335 OFFCURVE",
"88 304 OFFCURVE",
"128 303 CURVE SMOOTH"
);
}
);
width = 230;
},
{
layerId = "3C8330F3-4770-4812-9C95-859F387513C1";
paths = (
{
closed = 1;
nodes = (
"85 -9 OFFCURVE",
"106 10 OFFCURVE",
"109 31 CURVE SMOOTH",
"112 56 OFFCURVE",
"94 77 OFFCURVE",
"70 77 CURVE SMOOTH",
"48 77 OFFCURVE",
"26 58 OFFCURVE",
"24 37 CURVE SMOOTH",
"21 12 OFFCURVE",
"39 -9 OFFCURVE",
"63 -9 CURVE SMOOTH"
);
},
{
closed = 1;
nodes = (
"127 333 OFFCURVE",
"148 352 OFFCURVE",
"151 373 CURVE SMOOTH",
"154 398 OFFCURVE",
"136 419 OFFCURVE",
"112 419 CURVE SMOOTH",
"90 419 OFFCURVE",
"68 400 OFFCURVE",
"66 379 CURVE SMOOTH",
"63 354 OFFCURVE",
"81 333 OFFCURVE",
"105 333 CURVE SMOOTH"
);
}
);
width = 186;
}
);
unicode = 003A;
},
{
color = 5;
glyphname = semicolon;
layers = (
{
layerId = "4BC9CD2E-8AD0-40CC-97AA-8C7B556514B0";
paths = (
{
closed = 1;
nodes = (
"132 309 OFFCURVE",
"162 336 OFFCURVE",
"165 370 CURVE SMOOTH",
"168 409 OFFCURVE",
"143 441 OFFCURVE",
"104 440 CURVE SMOOTH",
"70 439 OFFCURVE",
"41 415 OFFCURVE",
"36 382 CURVE SMOOTH",
"30 342 OFFCURVE",
"59 311 OFFCURVE",
"99 310 CURVE SMOOTH"
);
},
{
closed = 1;
nodes = (
"-8 5 OFFCURVE",
"17 -27 OFFCURVE",
"47 -24 CURVE",
"37 -56 OFFCURVE",
"25 -89 OFFCURVE",
"7 -117 CURVE",
"51 -142 LINE",
"80 -89 OFFCURVE",
"121 -11 OFFCURVE",
"126 29 CURVE SMOOTH",
"131 68 OFFCURVE",
"104 100 OFFCURVE",
"65 99 CURVE SMOOTH",
"31 98 OFFCURVE",
"2 74 OFFCURVE",
"-3 41 CURVE SMOOTH"
);
}
);
width = 193;
},
{
layerId = "3C8330F3-4770-4812-9C95-859F387513C1";
paths = (
{
closed = 1;
nodes = (
"98 330 OFFCURVE",
"119 349 OFFCURVE",
"122 370 CURVE SMOOTH",
"125 395 OFFCURVE",
"106 416 OFFCURVE",
"82 416 CURVE SMOOTH",
"60 416 OFFCURVE",
"39 397 OFFCURVE",
"36 376 CURVE SMOOTH",
"33 351 OFFCURVE",
"52 330 OFFCURVE",
"76 330 CURVE SMOOTH"
);
},
{
closed = 1;
nodes = (
"-9 11 OFFCURVE",
"9 -11 OFFCURVE",
"38 -9 CURVE",
"24 -49 OFFCURVE",
"-6 -109 OFFCURVE",
"-13 -120 CURVE",
"7 -131 LINE",
"17 -112 OFFCURVE",
"81 5 OFFCURVE",
"85 29 CURVE",
"91 56 OFFCURVE",
"71 83 OFFCURVE",
"45 83 CURVE SMOOTH",
"18 83 OFFCURVE",
"-3 62 OFFCURVE",
"-6 39 CURVE SMOOTH"
);
}
);
width = 152;
}
);
unicode = 003B;
},
{
color = 5;
glyphname = ellipsis;
layers = (
{
layerId = "4BC9CD2E-8AD0-40CC-97AA-8C7B556514B0";
paths = (
{
closed = 1;
nodes = (
"113 -9 OFFCURVE",
"142 18 OFFCURVE",
"146 52 CURVE SMOOTH",
"149 91 OFFCURVE",
"124 123 OFFCURVE",
"85 122 CURVE SMOOTH",
"51 121 OFFCURVE",
"22 97 OFFCURVE",
"17 64 CURVE SMOOTH",
"11 24 OFFCURVE",
"40 -7 OFFCURVE",
"79 -8 CURVE SMOOTH"
);
},
{
closed = 1;
nodes = (
"320 -9 OFFCURVE",
"349 18 OFFCURVE",
"353 52 CURVE SMOOTH",
"356 91 OFFCURVE",
"331 123 OFFCURVE",
"292 122 CURVE SMOOTH",
"258 121 OFFCURVE",
"229 97 OFFCURVE",
"224 64 CURVE SMOOTH",
"218 24 OFFCURVE",
"247 -7 OFFCURVE",
"286 -8 CURVE SMOOTH"
);
},
{
closed = 1;
nodes = (
"520 -9 OFFCURVE",
"549 18 OFFCURVE",
"553 52 CURVE SMOOTH",
"556 91 OFFCURVE",
"531 123 OFFCURVE",
"492 122 CURVE SMOOTH",
"458 121 OFFCURVE",
"429 97 OFFCURVE",
"424 64 CURVE SMOOTH",
"418 24 OFFCURVE",
"447 -7 OFFCURVE",
"486 -8 CURVE SMOOTH"
);
}
);
width = 617;
},
{
layerId = "3C8330F3-4770-4812-9C95-859F387513C1";
paths = (
{
closed = 1;
nodes = (
"75 -7 OFFCURVE",
"97 12 OFFCURVE",
"99 33 CURVE SMOOTH",
"102 58 OFFCURVE",
"84 79 OFFCURVE",
"60 79 CURVE SMOOTH",
"38 79 OFFCURVE",
"17 60 OFFCURVE",
"14 39 CURVE SMOOTH",
"11 14 OFFCURVE",
"29 -7 OFFCURVE",
"53 -7 CURVE SMOOTH"
);
},
{
closed = 1;
nodes = (
"282 -7 OFFCURVE",
"304 12 OFFCURVE",
"306 33 CURVE SMOOTH",
"309 58 OFFCURVE",
"291 79 OFFCURVE",
"267 79 CURVE SMOOTH",
"245 79 OFFCURVE",
"224 60 OFFCURVE",
"221 39 CURVE SMOOTH",
"218 14 OFFCURVE",
"236 -7 OFFCURVE",
"260 -7 CURVE SMOOTH"
);
},
{
closed = 1;
nodes = (
"482 -7 OFFCURVE",
"504 12 OFFCURVE",
"506 33 CURVE SMOOTH",
"509 58 OFFCURVE",
"491 79 OFFCURVE",
"467 79 CURVE SMOOTH",
"445 79 OFFCURVE",
"424 60 OFFCURVE",
"421 39 CURVE SMOOTH",
"418 14 OFFCURVE",
"436 -7 OFFCURVE",
"460 -7 CURVE SMOOTH"
);
}
);
width = 573;
}
);
unicode = 2026;
},
{
color = 5;
glyphname = exclam;
layers = (
{
layerId = "4BC9CD2E-8AD0-40CC-97AA-8C7B556514B0";
paths = (
{
closed = 1;
nodes = (
"115 700 LINE",
"56 180 LINE",
"156 180 LINE",
"225 700 LINE"
);
},
{
closed = 1;
nodes = (
"122 -15 OFFCURVE",
"152 12 OFFCURVE",
"155 46 CURVE SMOOTH",
"159 85 OFFCURVE",
"133 117 OFFCURVE",
"94 116 CURVE SMOOTH",
"60 115 OFFCURVE",
"31 91 OFFCURVE",
"26 58 CURVE SMOOTH",
"20 18 OFFCURVE",
"49 -13 OFFCURVE",
"89 -14 CURVE SMOOTH"
);
}
);
width = 230;
},
{
layerId = "3C8330F3-4770-4812-9C95-859F387513C1";
paths = (
{
closed = 1;
nodes = (
"122 700 LINE",
"62 180 LINE",
"108 180 LINE",
"174 700 LINE"
);
},
{
closed = 1;
nodes = (
"86 -6 OFFCURVE",
"107 13 OFFCURVE",
"110 34 CURVE SMOOTH",
"113 59 OFFCURVE",
"94 80 OFFCURVE",
"70 80 CURVE SMOOTH",
"48 80 OFFCURVE",
"27 61 OFFCURVE",
"24 40 CURVE SMOOTH",
"21 15 OFFCURVE",
"40 -6 OFFCURVE",
"64 -6 CURVE SMOOTH"
);
}
);
width = 186;
}
);
unicode = 0021;
},
{
color = 5;
glyphname = exclamdown;
layers = (
{
layerId = "4BC9CD2E-8AD0-40CC-97AA-8C7B556514B0";
paths = (
{
closed = 1;
nodes = (
"175 330 LINE",
"75 330 LINE",
"6 -190 LINE",
"116 -190 LINE"
);
},
{
closed = 1;
nodes = (
"110 523 OFFCURVE",
"80 498 OFFCURVE",
"76 464 CURVE SMOOTH",
"73 425 OFFCURVE",
"99 395 OFFCURVE",
"139 394 CURVE SMOOTH",
"172 393 OFFCURVE",
"200 419 OFFCURVE",
"205 452 CURVE SMOOTH",
"211 492 OFFCURVE",
"183 525 OFFCURVE",
"145 524 CURVE SMOOTH"
);
}
);
width = 230;
},
{
layerId = "3C8330F3-4770-4812-9C95-859F387513C1";
paths = (
{
closed = 1;
nodes = (
"127 330 LINE",
"81 330 LINE",
"13 -190 LINE",
"65 -190 LINE"
);
},
{
closed = 1;
nodes = (
"102 516 OFFCURVE",
"80 497 OFFCURVE",
"78 476 CURVE SMOOTH",
"75 451 OFFCURVE",
"93 430 OFFCURVE",
"117 430 CURVE SMOOTH",
"139 430 OFFCURVE",
"160 449 OFFCURVE",
"163 470 CURVE SMOOTH",
"166 495 OFFCURVE",
"148 516 OFFCURVE",
"124 516 CURVE SMOOTH"
);
}
);
width = 186;
}
);
unicode = 00A1;
},
{
color = 5;
glyphname = question;
layers = (
{
layerId = "4BC9CD2E-8AD0-40CC-97AA-8C7B556514B0";
paths = (
{
closed = 1;
nodes = (
"308 163 LINE",
"316 228 OFFCURVE",
"317 248 OFFCURVE",
"376 269 CURVE SMOOTH",
"482 311 OFFCURVE",
"531 364 OFFCURVE",
"548 470 CURVE SMOOTH",
"570 601 OFFCURVE",
"483 706 OFFCURVE",
"340 706 CURVE SMOOTH",
"194 706 OFFCURVE",
"98 638 OFFCURVE",
"78 482 CURVE",
"197 476 LINE",
"206 553 OFFCURVE",
"255 593 OFFCURVE",
"331 593 CURVE SMOOTH",
"396 593 OFFCURVE",
"441 554 OFFCURVE",
"433 488 CURVE SMOOTH",
"425 422 OFFCURVE",
"388 395 OFFCURVE",
"345 379 CURVE SMOOTH",
"297 355 OFFCURVE",
"239 345 OFFCURVE",
"214 284 CURVE SMOOTH",
"211 272 OFFCURVE",
"209 262 OFFCURVE",
"207 251 CURVE",
"195 166 LINE"
);
},
{
closed = 1;
nodes = (
"271 -10 OFFCURVE",
"300 17 OFFCURVE",
"303 51 CURVE SMOOTH",
"307 90 OFFCURVE",
"282 122 OFFCURVE",
"243 121 CURVE SMOOTH",
"208 120 OFFCURVE",
"180 96 OFFCURVE",
"175 63 CURVE SMOOTH",
"169 23 OFFCURVE",
"198 -8 OFFCURVE",
"237 -9 CURVE SMOOTH"
);
}
);
width = 571;
},
{
layerId = "3C8330F3-4770-4812-9C95-859F387513C1";
paths = (
{
closed = 1;
nodes = (
"274 180 LINE",
"285 267 OFFCURVE",
"273 247 OFFCURVE",
"383 293 CURVE SMOOTH",
"477 333 OFFCURVE",
"538 397 OFFCURVE",
"551 499 CURVE SMOOTH",
"566 621 OFFCURVE",
"483 708 OFFCURVE",
"342 708 CURVE SMOOTH",
"195 708 OFFCURVE",
"98 642 OFFCURVE",
"86 544 CURVE",
"138 542 LINE",
"148 627 OFFCURVE",
"238 663 OFFCURVE",
"342 663 CURVE SMOOTH",
"451 663 OFFCURVE",
"516 603 OFFCURVE",
"504 505 CURVE SMOOTH",
"493 414 OFFCURVE",
"443 361 OFFCURVE",
"355 333 CURVE",
"300 310 OFFCURVE",
"269 297 OFFCURVE",
"251 282 CURVE SMOOTH",
"239 269 OFFCURVE",
"234 255 OFFCURVE",
"231 235 CURVE",
"225 181 LINE"
);
},
{
closed = 1;
nodes = (
"248 -9 OFFCURVE",
"269 10 OFFCURVE",
"272 31 CURVE SMOOTH",
"275 56 OFFCURVE",
"257 77 OFFCURVE",
"233 77 CURVE SMOOTH",
"211 77 OFFCURVE",
"189 58 OFFCURVE",
"187 37 CURVE SMOOTH",
"184 12 OFFCURVE",
"202 -9 OFFCURVE",
"226 -9 CURVE SMOOTH"
);
}
);
width = 570;
}
);
unicode = 003F;
},
{
color = 5;
glyphname = questiondown;
layers = (
{
layerId = "4BC9CD2E-8AD0-40CC-97AA-8C7B556514B0";
paths = (
{
closed = 1;
nodes = (
"208.551 262 LINE",
"208.2 251 OFFCURVE",
"207.972 241 OFFCURVE",
"208.867 232 CURVE SMOOTH",
"218.009 168 OFFCURVE",
"274.536 156 OFFCURVE",
"319.835 134 CURVE SMOOTH",
"355.625 116 OFFCURVE",
"384.555 91 OFFCURVE",
"376.82 28 CURVE SMOOTH",
"368.348 -41 OFFCURVE",
"310.191 -83 OFFCURVE",
"243.191 -83 CURVE SMOOTH",
"169.191 -83 OFFCURVE",
"132.734 -46 OFFCURVE",
"142.188 31 CURVE",
"23.188 31 LINE",
"4.035 -125 OFFCURVE",
"86.317 -196 OFFCURVE",
"234.317 -196 CURVE SMOOTH",
"375.317 -196 OFFCURVE",
"484.841 -94 OFFCURVE",
"494.557 34 CURVE SMOOTH",
"503.94 143 OFFCURVE",
"465.693 198 OFFCURVE",
"367.727 239 CURVE SMOOTH",
"316.428 261 OFFCURVE",
"322.638 279 OFFCURVE",
"330.619 344 CURVE",
"216.619 344 LINE"
);
},
{
closed = 1;
nodes = (
"259.982 518 OFFCURVE",
"226.544 490 OFFCURVE",
"223.002 453 CURVE SMOOTH",
"219.581 417 OFFCURVE",
"244.266 390 OFFCURVE",
"281.144 389 CURVE SMOOTH",
"317.021 388 OFFCURVE",
"347.581 417 OFFCURVE",
"353.002 453 CURVE SMOOTH",
"358.544 490 OFFCURVE",
"333.228 520 OFFCURVE",
"297.105 519 CURVE SMOOTH"
);
}
);
width = 571;
},
{
layerId = "3C8330F3-4770-4812-9C95-859F387513C1";
paths = (
{
closed = 1;
nodes = (
"236.269 276 LINE",
"233.814 256 OFFCURVE",
"236.095 242 OFFCURVE",
"245.622 230 CURVE SMOOTH",
"259.657 214 OFFCURVE",
"288.061 201 OFFCURVE",
"338.237 178 CURVE",
"417.676 149 OFFCURVE",
"454.292 97 OFFCURVE",
"443.364 8 CURVE SMOOTH",
"431.086 -92 OFFCURVE",
"349.597 -153 OFFCURVE",
"239.597 -153 CURVE SMOOTH",
"136.597 -153 OFFCURVE",
"56.894 -118 OFFCURVE",
"67.33 -33 CURVE",
"15.33 -33 LINE",
"3.298 -131 OFFCURVE",
"85.072 -198 OFFCURVE",
"233.072 -198 CURVE SMOOTH",
"373.072 -198 OFFCURVE",
"475.631 -112 OFFCURVE",
"490.364 8 CURVE SMOOTH",
"503.134 112 OFFCURVE",
"456.991 176 OFFCURVE",
"371.903 216 CURVE SMOOTH",
"273.551 262 OFFCURVE",
"282.095 242 OFFCURVE",
"292.777 329 CURVE",
"242.777 329 LINE"
);
},
{
closed = 1;
nodes = (
"266.105 519 OFFCURVE",
"243.649 499 OFFCURVE",
"240.825 476 CURVE SMOOTH",
"238.002 453 OFFCURVE",
"255.546 433 OFFCURVE",
"278.546 433 CURVE SMOOTH",
"301.546 433 OFFCURVE",
"324.002 453 OFFCURVE",
"326.825 476 CURVE SMOOTH",
"329.649 499 OFFCURVE",
"312.105 519 OFFCURVE",
"289.105 519 CURVE SMOOTH"
);
}
);
width = 570;
}
);
unicode = 00BF;
},
{
color = 5;
glyphname = periodcentered;
layers = (
{
layerId = "4BC9CD2E-8AD0-40CC-97AA-8C7B556514B0";
paths = (
{
closed = 1;
nodes = (
"154 248 OFFCURVE",
"184 275 OFFCURVE",
"187 309 CURVE SMOOTH",
"191 348 OFFCURVE",
"165 380 OFFCURVE",
"127 379 CURVE SMOOTH",
"92 378 OFFCURVE",
"64 354 OFFCURVE",
"59 321 CURVE SMOOTH",
"53 281 OFFCURVE",
"82 250 OFFCURVE",
"121 249 CURVE SMOOTH"
);
}
);
width = 230;
},
{
layerId = "3C8330F3-4770-4812-9C95-859F387513C1";
paths = (
{
closed = 1;
nodes = (
"120 271 OFFCURVE",
"141 290 OFFCURVE",
"144 311 CURVE SMOOTH",
"147 336 OFFCURVE",
"128 357 OFFCURVE",
"104 357 CURVE SMOOTH",
"82 357 OFFCURVE",
"61 338 OFFCURVE",
"58 317 CURVE SMOOTH",
"55 292 OFFCURVE",
"74 271 OFFCURVE",
"98 271 CURVE SMOOTH"
);
}
);
width = 219;
}
);
unicode = 00B7;
},
{
color = 5;
glyphname = bullet;
layers = (
{
layerId = "4BC9CD2E-8AD0-40CC-97AA-8C7B556514B0";
paths = (
{
closed = 1;
nodes = (
"248 183 OFFCURVE",
"311 240 OFFCURVE",
"317 311 CURVE SMOOTH",
"325 386 OFFCURVE",
"276 447 OFFCURVE",
"201 445 CURVE SMOOTH",
"129 443 OFFCURVE",
"69 392 OFFCURVE",
"59 323 CURVE SMOOTH",
"47 246 OFFCURVE",
"103 187 OFFCURVE",
"179 185 CURVE SMOOTH"
);
}
);
width = 360;
},
{
layerId = "3C8330F3-4770-4812-9C95-859F387513C1";
paths = (
{
closed = 1;
nodes = (
"180 229 OFFCURVE",
"224 268 OFFCURVE",
"230 312 CURVE SMOOTH",
"235 360 OFFCURVE",
"200 401 OFFCURVE",
"152 401 CURVE SMOOTH",
"108 401 OFFCURVE",
"64 362 OFFCURVE",
"58 318 CURVE SMOOTH",
"52 270 OFFCURVE",
"88 229 OFFCURVE",
"135 229 CURVE SMOOTH"
);
}
);
width = 272;
}
);
unicode = 2022;
},
{
color = 5;
glyphname = asterisk;
layers = (
{
layerId = "4BC9CD2E-8AD0-40CC-97AA-8C7B556514B0";
paths = (
{
closed = 1;
nodes = (
"337 550 LINE",
"402 584 LINE",
"363 663 LINE",
"296 625 LINE",
"306 700 LINE",
"216 700 LINE",
"206 620 LINE",
"138 657 LINE",
"89 575 LINE",
"147 545 LINE",
"82 511 LINE",
"121 432 LINE",
"189 470 LINE",
"179 395 LINE",
"269 395 LINE",
"279 474 LINE",
"345 438 LINE",
"395 519 LINE"
);
}
);
width = 412;
},
{
layerId = "3C8330F3-4770-4812-9C95-859F387513C1";
paths = (
{
closed = 1;
nodes = (
"268 547 LINE",
"390 612 LINE",
"376 640 LINE",
"257 575 LINE",
"273 706 LINE",
"239 706 LINE",
"222 573 LINE",
"111 634 LINE",
"93 603 LINE",
"202 545 LINE",
"81 482 LINE",
"96 455 LINE",
"217 521 LINE",
"200 389 LINE",
"234 389 LINE",
"250 521 LINE",
"361 461 LINE",
"379 491 LINE"
);
}
);
width = 399;
}
);
unicode = 002A;
},
{
color = 5;
glyphname = numbersign;
layers = (
{
layerId = "4BC9CD2E-8AD0-40CC-97AA-8C7B556514B0";
paths = (
{
closed = 1;
nodes = (
"651 523 LINE",
"718 697 LINE",
"592 697 LINE",
"523 524 LINE",
"411 524 LINE",
"478 697 LINE",
"353 697 LINE",
"285 524 LINE",
"128 525 LINE",
"113 403 LINE",
"238 403 LINE",
"196 298 LINE",
"46 298 LINE",
"31 178 LINE",
"149 178 LINE",
"80 1 LINE",
"206 1 LINE",
"276 178 LINE",
"384 177 LINE",
"314 1 LINE",
"446 1 LINE",
"516 177 LINE",
"676 177 LINE",
"691 297 LINE",
"562 297 LINE",
"603 402 LINE",
"757 402 LINE",
"773 523 LINE"
);
},
{
closed = 1;
nodes = (
"432 297 LINE",
"322 297 LINE",
"363 403 LINE",
"475 403 LINE"
);
}
);
width = 779;
},
{
layerId = "3C8330F3-4770-4812-9C95-859F387513C1";
paths = (
{
closed = 1;
nodes = (
"619 500 LINE",
"695 697 LINE",
"646 697 LINE",
"568 501 LINE",
"348 501 LINE",
"423 697 LINE",
"377 697 LINE",
"300 501 LINE",
"133 502 LINE",
"127 456 LINE",
"281 456 LINE",
"199 246 LINE",
"40 246 LINE",
"34 201 LINE",
"181 201 LINE",
"103 1 LINE",
"151 1 LINE",
"229 201 LINE",
"448 200 LINE",
"367 1 LINE",
"423 1 LINE",
"501 200 LINE",
"671 200 LINE",
"676 244 LINE",
"519 244 LINE",
"600 455 LINE",
"763 455 LINE",
"770 500 LINE"
);
},
{
closed = 1;
nodes = (
"466 245 LINE",
"247 245 LINE",
"330 456 LINE",
"550 455 LINE"
);
}
);
width = 779;
}
);
unicode = 0023;
},
{
color = 5;
glyphname = slash;
layers = (
{
layerId = "4BC9CD2E-8AD0-40CC-97AA-8C7B556514B0";
paths = (
{
closed = 1;
nodes = (
"430 700 LINE",
"-9 -104 LINE",
"113 -104 LINE",
"554 700 LINE"
);
}
);
width = 533;
},
{
layerId = "3C8330F3-4770-4812-9C95-859F387513C1";
paths = (
{
closed = 1;
nodes = (
"462 700 LINE",
"-9 -104 LINE",
"36 -104 LINE",
"508 700 LINE"
);
}
);
width = 487;
}
);
unicode = 002F;
},
{
color = 5;
glyphname = backslash;
layers = (
{
layerId = "4BC9CD2E-8AD0-40CC-97AA-8C7B556514B0";
paths = (
{
closed = 1;
nodes = (
"211 700 LINE",
"91 700 LINE",
"334 -104 LINE",
"454 -104 LINE"
);
}
);
width = 533;
},
{
layerId = "3C8330F3-4770-4812-9C95-859F387513C1";
paths = (
{
closed = 1;
nodes = (
"135 700 LINE",
"91 700 LINE",
"365 -104 LINE",
"408 -104 LINE"
);
}
);
width = 487;
}
);
unicode = 005C;
},
{
color = 5;
glyphname = parenleft;
layers = (
{
layerId = "4BC9CD2E-8AD0-40CC-97AA-8C7B556514B0";
paths = (
{
closed = 1;
nodes = (
"159 12 OFFCURVE",
"146 195 OFFCURVE",
"160 309 CURVE SMOOTH",
"174 422 OFFCURVE",
"235 603 OFFCURVE",
"340 703 CURVE",
"229 707 LINE",
"143 607 OFFCURVE",
"79 489 OFFCURVE",
"59 321 CURVE SMOOTH",
"38 156 OFFCURVE",
"69 20 OFFCURVE",
"134 -88 CURVE",
"239 -92 LINE"
);
}
);
width = 323;
},
{
layerId = "3C8330F3-4770-4812-9C95-859F387513C1";
paths = (
{
closed = 1;
nodes = (
"122 5 OFFCURVE",
"87 147 OFFCURVE",
"108 312 CURVE SMOOTH",
"128 475 OFFCURVE",
"201 612 OFFCURVE",
"297 704 CURVE",
"245 706 LINE",
"147 614 OFFCURVE",
"80 491 OFFCURVE",
"58 318 CURVE SMOOTH",
"39 158 OFFCURVE",
"67 17 OFFCURVE",
"152 -89 CURVE",
"201 -91 LINE"
);
}
);
width = 284;
}
);
unicode = 0028;
},
{
color = 5;
glyphname = parenright;
layers = (
{
layerId = "4BC9CD2E-8AD0-40CC-97AA-8C7B556514B0";
paths = (
{
closed = 1;
nodes = (
"113 -92 LINE",
"205 16 OFFCURVE",
"266 150 OFFCURVE",
"285 309 CURVE SMOOTH",
"307 483 OFFCURVE",
"269 603 OFFCURVE",
"208 703 CURVE",
"103 707 LINE",
"184 607 OFFCURVE",
"197 428 OFFCURVE",
"184 321 CURVE SMOOTH",
"169 201 OFFCURVE",
"108 16 OFFCURVE",
"2 -88 CURVE"
);
}
);
width = 328;
},
{
layerId = "3C8330F3-4770-4812-9C95-859F387513C1";
paths = (
{
closed = 1;
nodes = (
"50 -91 LINE",
"161 15 OFFCURVE",
"222 156 OFFCURVE",
"242 312 CURVE SMOOTH",
"263 489 OFFCURVE",
"225 612 OFFCURVE",
"149 704 CURVE",
"100 706 LINE",
"173 614 OFFCURVE",
"212 477 OFFCURVE",
"192 318 CURVE SMOOTH",
"172 149 OFFCURVE",
"100 7 OFFCURVE",
"-2 -89 CURVE"
);
}
);
width = 284;
}
);
unicode = 0029;
},
{
color = 5;
glyphname = braceleft;
layers = (
{
layerId = "4BC9CD2E-8AD0-40CC-97AA-8C7B556514B0";
paths = (
{
closed = 1;
nodes = (
"239 -146 LINE",
"251 -50 LINE",
"170 -50 LINE SMOOTH",
"159 -50 OFFCURVE",
"157 -40 OFFCURVE",
"156 -22 CURVE SMOOTH",
"157 39 OFFCURVE",
"190 157 OFFCURVE",
"197 217 CURVE SMOOTH",
"201 249 OFFCURVE",
"184 269 OFFCURVE",
"170 282 CURVE",
"192 299 OFFCURVE",
"210 317 OFFCURVE",
"212 343 CURVE SMOOTH",
"220 410 OFFCURVE",
"217 530 OFFCURVE",
"232 584 CURVE SMOOTH",
"237 607 OFFCURVE",
"247 622 OFFCURVE",
"257 622 CURVE SMOOTH",
"334 622 LINE",
"345 718 LINE",
"262 718 LINE SMOOTH",
"185 718 OFFCURVE",
"144 633 OFFCURVE",
"133 545 CURVE SMOOTH",
"116 405 LINE SMOOTH",
"107 329 OFFCURVE",
"110 330 OFFCURVE",
"57 330 CURVE",
"52 242 LINE",
"104 242 OFFCURVE",
"97 252 OFFCURVE",
"88 173 CURVE SMOOTH",
"70 33 LINE SMOOTH",
"59 -56 OFFCURVE",
"85 -146 OFFCURVE",
"161 -146 CURVE SMOOTH"
);
}
);
width = 328;
},
{
layerId = "3C8330F3-4770-4812-9C95-859F387513C1";
paths = (
{
closed = 1;
nodes = (
"228 -138 LINE",
"232 -109 LINE",
"166 -109 LINE SMOOTH",
"143 -109 OFFCURVE",
"133 -95 OFFCURVE",
"128 -80 CURVE SMOOTH",
"107 -10 OFFCURVE",
"160 120 OFFCURVE",
"157 198 CURVE SMOOTH",
"157 234 OFFCURVE",
"149 279 OFFCURVE",
"119 289 CURVE",
"153 301 OFFCURVE",
"171 344 OFFCURVE",
"180 376 CURVE SMOOTH",
"202 458 OFFCURVE",
"181 588 OFFCURVE",
"220 656 CURVE SMOOTH",
"228 673 OFFCURVE",
"243 689 OFFCURVE",
"266 689 CURVE SMOOTH",
"330 689 LINE",
"333 718 LINE",
"267 718 LINE SMOOTH",
"198 718 OFFCURVE",
"159 646 OFFCURVE",
"149 567 CURVE SMOOTH",
"133 431 LINE SMOOTH",
"123 350 OFFCURVE",
"119 307 OFFCURVE",
"56 305 CURVE",
"54 275 LINE",
"117 273 OFFCURVE",
"109 231 OFFCURVE",
"99 151 CURVE SMOOTH",
"81 15 LINE SMOOTH",
"71 -64 OFFCURVE",
"95 -138 OFFCURVE",
"164 -138 CURVE SMOOTH"
);
}
);
width = 316;
}
);
unicode = 007B;
},
{
color = 5;
glyphname = braceright;
layers = (
{
layerId = "4BC9CD2E-8AD0-40CC-97AA-8C7B556514B0";
paths = (
{
closed = 1;
nodes = (
"151 -146 OFFCURVE",
"193 -62 OFFCURVE",
"204 27 CURVE SMOOTH",
"221 167 LINE SMOOTH",
"231 246 OFFCURVE",
"228 242 OFFCURVE",
"280 242 CURVE",
"285 330 LINE",
"232 330 OFFCURVE",
"240 323 OFFCURVE",
"249 399 CURVE SMOOTH",
"266 539 LINE SMOOTH",
"277 627 OFFCURVE",
"253 718 OFFCURVE",
"176 718 CURVE SMOOTH",
"97 718 LINE",
"86 622 LINE",
"167 622 LINE SMOOTH",
"177 622 OFFCURVE",
"180 613 OFFCURVE",
"181 596 CURVE SMOOTH",
"181 536 OFFCURVE",
"148 416 OFFCURVE",
"140 355 CURVE SMOOTH",
"135 323 OFFCURVE",
"152 303 OFFCURVE",
"167 290 CURVE",
"145 273 OFFCURVE",
"128 255 OFFCURVE",
"124 229 CURVE SMOOTH",
"116 163 OFFCURVE",
"120 45 OFFCURVE",
"105 -10 CURVE SMOOTH",
"100 -34 OFFCURVE",
"91 -50 OFFCURVE",
"80 -50 CURVE SMOOTH",
"3 -50 LINE",
"-9 -146 LINE",
"75 -146 LINE SMOOTH"
);
}
);
width = 328;
},
{
layerId = "3C8330F3-4770-4812-9C95-859F387513C1";
paths = (
{
closed = 1;
nodes = (
"127 -138 OFFCURVE",
"167 -66 OFFCURVE",
"177 13 CURVE SMOOTH",
"193 149 LINE SMOOTH",
"202 229 OFFCURVE",
"207 273 OFFCURVE",
"270 275 CURVE",
"272 305 LINE",
"209 307 OFFCURVE",
"217 348 OFFCURVE",
"227 429 CURVE SMOOTH",
"245 565 LINE SMOOTH",
"254 644 OFFCURVE",
"230 718 OFFCURVE",
"161 718 CURVE SMOOTH",
"97 718 LINE",
"94 689 LINE",
"160 689 LINE SMOOTH",
"183 689 OFFCURVE",
"193 675 OFFCURVE",
"198 660 CURVE SMOOTH",
"219 590 OFFCURVE",
"166 460 OFFCURVE",
"168 382 CURVE SMOOTH",
"169 346 OFFCURVE",
"177 301 OFFCURVE",
"207 291 CURVE",
"173 279 OFFCURVE",
"155 236 OFFCURVE",
"146 204 CURVE SMOOTH",
"124 122 OFFCURVE",
"145 -8 OFFCURVE",
"106 -76 CURVE SMOOTH",
"98 -93 OFFCURVE",
"83 -109 OFFCURVE",
"60 -109 CURVE SMOOTH",
"-4 -109 LINE",
"-8 -138 LINE",
"58 -138 LINE SMOOTH"
);
}
);
width = 316;
}
);
unicode = 007D;
},
{
color = 5;
glyphname = bracketleft;
layers = (
{
layerId = "4BC9CD2E-8AD0-40CC-97AA-8C7B556514B0";
paths = (
{
closed = 1;
nodes = (
"202 -37 LINE",
"114 -37 LINE",
"191 590 LINE",
"279 590 LINE",
"292 700 LINE",
"105 700 LINE",
"1 -147 LINE",
"188 -147 LINE"
);
}
);
width = 277;
},
{
layerId = "3C8330F3-4770-4812-9C95-859F387513C1";
paths = (
{
closed = 1;
nodes = (
"194 -100 LINE",
"55 -100 LINE",
"148 655 LINE",
"287 655 LINE",
"292 700 LINE",
"105 700 LINE",
"2 -145 LINE",
"189 -145 LINE"
);
}
);
width = 277;
}
);
unicode = 005B;
},
{
color = 5;
glyphname = bracketright;
layers = (
{
layerId = "4BC9CD2E-8AD0-40CC-97AA-8C7B556514B0";
paths = (
{
closed = 1;
nodes = (
"178 -147 LINE",
"282 700 LINE",
"95 700 LINE",
"82 590 LINE",
"170 590 LINE",
"93 -37 LINE",
"5 -37 LINE",
"-9 -147 LINE"
);
}
);
width = 277;
},
{
layerId = "3C8330F3-4770-4812-9C95-859F387513C1";
paths = (
{
closed = 1;
nodes = (
"179 -145 LINE",
"282 700 LINE",
"95 700 LINE",
"90 655 LINE",
"229 655 LINE",
"136 -100 LINE",
"-3 -100 LINE",
"-8 -145 LINE"
);
}
);
width = 277;
}
);
unicode = 005D;
},
{
color = 5;
glyphname = hyphen;
layers = (
{
layerId = "4BC9CD2E-8AD0-40CC-97AA-8C7B556514B0";
paths = (
{
closed = 1;
nodes = (
"412 350 LINE",
"62 350 LINE",
"50 250 LINE",
"400 250 LINE"
);
}
);
width = 450;
},
{
layerId = "3C8330F3-4770-4812-9C95-859F387513C1";
paths = (
{
closed = 1;
nodes = (
"418 325 LINE",
"68 325 LINE",
"56 275 LINE",
"406 275 LINE"
);
}
);
width = 450;
}
);
unicode = 002D;
},
{
color = 5;
glyphname = endash;
layers = (
{
layerId = "4BC9CD2E-8AD0-40CC-97AA-8C7B556514B0";
paths = (
{
closed = 1;
nodes = (
"557 350 LINE",
"62 350 LINE",
"50 250 LINE",
"545 250 LINE"
);
}
);
width = 595;
},
{
layerId = "3C8330F3-4770-4812-9C95-859F387513C1";
paths = (
{
closed = 1;
nodes = (
"563 325 LINE",
"68 325 LINE",
"56 275 LINE",
"551 275 LINE"
);
}
);
width = 595;
}
);
unicode = 2013;
},
{
color = 5;
glyphname = emdash;
layers = (
{
layerId = "4BC9CD2E-8AD0-40CC-97AA-8C7B556514B0";
paths = (
{
closed = 1;
nodes = (
"938 350 LINE",
"32 350 LINE",
"20 250 LINE",
"926 250 LINE"
);
}
);
width = 946;
},
{
layerId = "3C8330F3-4770-4812-9C95-859F387513C1";
paths = (
{
closed = 1;
nodes = (
"944 325 LINE",
"38 325 LINE",
"26 275 LINE",
"932 275 LINE"
);
}
);
width = 946;
}
);
unicode = 2014;
},
{
color = 5;
glyphname = underscore;
layers = (
{
layerId = "4BC9CD2E-8AD0-40CC-97AA-8C7B556514B0";
paths = (
{
closed = 1;
nodes = (
"509 -40 LINE",
"14 -40 LINE",
"5 -120 LINE",
"500 -120 LINE"
);
}
);
width = 595;
},
{
layerId = "3C8330F3-4770-4812-9C95-859F387513C1";
paths = (
{
closed = 1;
nodes = (
"464 -80 LINE",
"-32 -80 LINE",
"-41 -120 LINE",
"455 -120 LINE"
);
}
);
width = 595;
}
);
unicode = 005F;
},
{
color = 5;
glyphname = quotesinglbase;
layers = (
{
layerId = "4BC9CD2E-8AD0-40CC-97AA-8C7B556514B0";
paths = (
{
closed = 1;
nodes = (
"-10 15 OFFCURVE",
"15 -17 OFFCURVE",
"46 -14 CURVE",
"35 -46 OFFCURVE",
"23 -79 OFFCURVE",
"5 -107 CURVE",
"50 -132 LINE",
"79 -79 OFFCURVE",
"119 -1 OFFCURVE",
"124 39 CURVE SMOOTH",
"129 78 OFFCURVE",
"102 110 OFFCURVE",
"64 109 CURVE SMOOTH",
"29 108 OFFCURVE",
"1 84 OFFCURVE",
"-5 51 CURVE SMOOTH"
);
}
);
width = 170;
},
{
layerId = "3C8330F3-4770-4812-9C95-859F387513C1";
paths = (
{
closed = 1;
nodes = (
"-6 38 OFFCURVE",
"12 16 OFFCURVE",
"41 18 CURVE",
"27 -22 OFFCURVE",
"-2 -82 OFFCURVE",
"-10 -93 CURVE",
"10 -104 LINE",
"20 -85 OFFCURVE",
"84 32 OFFCURVE",
"88 56 CURVE",
"95 83 OFFCURVE",
"75 110 OFFCURVE",
"49 110 CURVE SMOOTH",
"22 110 OFFCURVE",
"0 89 OFFCURVE",
"-3 66 CURVE SMOOTH"
);
}
);
width = 132;
}
);
unicode = 201A;
},
{
color = 5;
glyphname = quotedblbase;
layers = (
{
layerId = "4BC9CD2E-8AD0-40CC-97AA-8C7B556514B0";
paths = (
{
closed = 1;
nodes = (
"154 15 OFFCURVE",
"179 -17 OFFCURVE",
"210 -14 CURVE",
"199 -46 OFFCURVE",
"187 -79 OFFCURVE",
"169 -107 CURVE",
"214 -132 LINE",
"243 -79 OFFCURVE",
"283 -1 OFFCURVE",
"288 39 CURVE SMOOTH",
"293 78 OFFCURVE",
"266 110 OFFCURVE",
"228 109 CURVE SMOOTH",
"193 108 OFFCURVE",
"165 84 OFFCURVE",
"159 51 CURVE SMOOTH"
);
},
{
closed = 1;
nodes = (
"-10 15 OFFCURVE",
"15 -17 OFFCURVE",
"46 -14 CURVE",
"35 -46 OFFCURVE",
"23 -79 OFFCURVE",
"5 -107 CURVE",
"50 -132 LINE",
"79 -79 OFFCURVE",
"119 -1 OFFCURVE",
"124 39 CURVE SMOOTH",
"129 78 OFFCURVE",
"102 110 OFFCURVE",
"64 109 CURVE SMOOTH",
"29 108 OFFCURVE",
"1 84 OFFCURVE",
"-5 51 CURVE SMOOTH"
);
}
);
width = 334;
},
{
layerId = "3C8330F3-4770-4812-9C95-859F387513C1";
paths = (
{
closed = 1;
nodes = (
"138 38 OFFCURVE",
"156 16 OFFCURVE",
"185 18 CURVE",
"171 -22 OFFCURVE",
"142 -82 OFFCURVE",
"134 -93 CURVE",
"154 -104 LINE",
"164 -85 OFFCURVE",
"228 32 OFFCURVE",
"232 56 CURVE",
"239 83 OFFCURVE",
"219 110 OFFCURVE",
"193 110 CURVE SMOOTH",
"166 110 OFFCURVE",
"144 89 OFFCURVE",
"141 66 CURVE SMOOTH"
);
},
{
closed = 1;
nodes = (
"-6 38 OFFCURVE",
"12 16 OFFCURVE",
"41 18 CURVE",
"27 -22 OFFCURVE",
"-2 -82 OFFCURVE",
"-10 -93 CURVE",
"10 -104 LINE",
"20 -85 OFFCURVE",
"84 32 OFFCURVE",
"88 56 CURVE",
"95 83 OFFCURVE",
"75 110 OFFCURVE",
"49 110 CURVE SMOOTH",
"22 110 OFFCURVE",
"0 89 OFFCURVE",
"-3 66 CURVE SMOOTH"
);
}
);
width = 276;
}
);
unicode = 201E;
},
{
color = 5;
glyphname = quotedblleft;
layers = (
{
layerId = "4BC9CD2E-8AD0-40CC-97AA-8C7B556514B0";
paths = (
{
closed = 1;
nodes = (
"371 575 OFFCURVE",
"346 607 OFFCURVE",
"315 604 CURVE",
"326 636 OFFCURVE",
"338 669 OFFCURVE",
"356 697 CURVE",
"311 722 LINE",
"282 669 OFFCURVE",
"242 591 OFFCURVE",
"237 551 CURVE SMOOTH",
"232 512 OFFCURVE",
"259 480 OFFCURVE",
"297 481 CURVE SMOOTH",
"332 482 OFFCURVE",
"361 506 OFFCURVE",
"366 539 CURVE SMOOTH"
);
},
{
closed = 1;
nodes = (
"201 575 OFFCURVE",
"176 607 OFFCURVE",
"145 604 CURVE",
"156 636 OFFCURVE",
"168 669 OFFCURVE",
"186 697 CURVE",
"141 722 LINE",
"112 669 OFFCURVE",
"72 591 OFFCURVE",
"67 551 CURVE SMOOTH",
"62 512 OFFCURVE",
"89 480 OFFCURVE",
"127 481 CURVE SMOOTH",
"162 482 OFFCURVE",
"191 506 OFFCURVE",
"196 539 CURVE SMOOTH"
);
}
);
width = 350;
},
{
layerId = "3C8330F3-4770-4812-9C95-859F387513C1";
paths = (
{
closed = 1;
nodes = (
"292 552 OFFCURVE",
"274 574 OFFCURVE",
"245 572 CURVE",
"259 612 OFFCURVE",
"288 672 OFFCURVE",
"296 683 CURVE",
"276 694 LINE",
"266 675 OFFCURVE",
"202 558 OFFCURVE",
"198 534 CURVE",
"191 507 OFFCURVE",
"211 480 OFFCURVE",
"237 480 CURVE SMOOTH",
"264 480 OFFCURVE",
"286 501 OFFCURVE",
"289 524 CURVE SMOOTH"
);
},
{
closed = 1;
nodes = (
"159 552 OFFCURVE",
"141 574 OFFCURVE",
"112 572 CURVE",
"126 612 OFFCURVE",
"155 672 OFFCURVE",
"163 683 CURVE",
"143 694 LINE",
"133 675 OFFCURVE",
"69 558 OFFCURVE",
"65 534 CURVE",
"58 507 OFFCURVE",
"78 480 OFFCURVE",
"104 480 CURVE SMOOTH",
"131 480 OFFCURVE",
"153 501 OFFCURVE",
"156 524 CURVE SMOOTH"
);
}
);
width = 275;
}
);
unicode = 201C;
},
{
color = 5;
glyphname = quotedblright;
layers = (
{
layerId = "4BC9CD2E-8AD0-40CC-97AA-8C7B556514B0";
paths = (
{
closed = 1;
nodes = (
"63 605 OFFCURVE",
"87 573 OFFCURVE",
"118 576 CURVE",
"108 544 OFFCURVE",
"96 511 OFFCURVE",
"77 483 CURVE",
"122 458 LINE",
"151 511 OFFCURVE",
"192 589 OFFCURVE",
"197 629 CURVE SMOOTH",
"201 668 OFFCURVE",
"175 700 OFFCURVE",
"136 699 CURVE SMOOTH",
"101 698 OFFCURVE",
"73 674 OFFCURVE",
"68 641 CURVE SMOOTH"
);
},
{
closed = 1;
nodes = (
"233 605 OFFCURVE",
"257 573 OFFCURVE",
"288 576 CURVE",
"278 544 OFFCURVE",
"266 511 OFFCURVE",
"247 483 CURVE",
"292 458 LINE",
"321 511 OFFCURVE",
"362 589 OFFCURVE",
"367 629 CURVE SMOOTH",
"371 668 OFFCURVE",
"345 700 OFFCURVE",
"306 699 CURVE SMOOTH",
"271 698 OFFCURVE",
"243 674 OFFCURVE",
"238 641 CURVE SMOOTH"
);
}
);
width = 350;
},
{
layerId = "3C8330F3-4770-4812-9C95-859F387513C1";
paths = (
{
closed = 1;
nodes = (
"66 628 OFFCURVE",
"85 606 OFFCURVE",
"114 608 CURVE",
"100 568 OFFCURVE",
"70 508 OFFCURVE",
"63 497 CURVE",
"83 486 LINE",
"93 505 OFFCURVE",
"157 622 OFFCURVE",
"161 646 CURVE",
"167 673 OFFCURVE",
"147 700 OFFCURVE",
"121 700 CURVE SMOOTH",
"94 700 OFFCURVE",
"73 679 OFFCURVE",
"70 656 CURVE SMOOTH"
);
},
{
closed = 1;
nodes = (
"206 628 OFFCURVE",
"225 606 OFFCURVE",
"254 608 CURVE",
"240 568 OFFCURVE",
"210 508 OFFCURVE",
"203 497 CURVE",
"223 486 LINE",
"233 505 OFFCURVE",
"297 622 OFFCURVE",
"301 646 CURVE",
"307 673 OFFCURVE",
"287 700 OFFCURVE",
"261 700 CURVE SMOOTH",
"234 700 OFFCURVE",
"213 679 OFFCURVE",
"210 656 CURVE SMOOTH"
);
}
);
width = 282;
}
);
unicode = 201D;
},
{
color = 5;
glyphname = quoteleft;
layers = (
{
layerId = "4BC9CD2E-8AD0-40CC-97AA-8C7B556514B0";
paths = (
{
closed = 1;
nodes = (
"201 575 OFFCURVE",
"176 607 OFFCURVE",
"145 604 CURVE",
"156 636 OFFCURVE",
"168 669 OFFCURVE",
"186 697 CURVE",
"141 722 LINE",
"112 669 OFFCURVE",
"72 591 OFFCURVE",
"67 551 CURVE SMOOTH",
"62 512 OFFCURVE",
"89 480 OFFCURVE",
"127 481 CURVE SMOOTH",
"162 482 OFFCURVE",
"191 506 OFFCURVE",
"196 539 CURVE SMOOTH"
);
}
);
width = 180;
},
{
layerId = "3C8330F3-4770-4812-9C95-859F387513C1";
paths = (
{
closed = 1;
nodes = (
"159 552 OFFCURVE",
"141 574 OFFCURVE",
"112 572 CURVE",
"126 612 OFFCURVE",
"155 672 OFFCURVE",
"163 683 CURVE",
"143 694 LINE",
"133 675 OFFCURVE",
"69 558 OFFCURVE",
"65 534 CURVE",
"58 507 OFFCURVE",
"78 480 OFFCURVE",
"104 480 CURVE SMOOTH",
"131 480 OFFCURVE",
"153 501 OFFCURVE",
"156 524 CURVE SMOOTH"
);
}
);
width = 142;
}
);
unicode = 2018;
},
{
color = 5;
glyphname = quoteright;
layers = (
{
layerId = "4BC9CD2E-8AD0-40CC-97AA-8C7B556514B0";
paths = (
{
closed = 1;
nodes = (
"63 605 OFFCURVE",
"87 573 OFFCURVE",
"118 576 CURVE",
"108 544 OFFCURVE",
"96 511 OFFCURVE",
"77 483 CURVE",
"122 458 LINE",
"151 511 OFFCURVE",
"192 589 OFFCURVE",
"197 629 CURVE SMOOTH",
"201 668 OFFCURVE",
"175 700 OFFCURVE",
"136 699 CURVE SMOOTH",
"101 698 OFFCURVE",
"73 674 OFFCURVE",
"68 641 CURVE SMOOTH"
);
}
);
width = 180;
},
{
layerId = "3C8330F3-4770-4812-9C95-859F387513C1";
paths = (
{
closed = 1;
nodes = (
"66 628 OFFCURVE",
"85 606 OFFCURVE",
"114 608 CURVE",
"100 568 OFFCURVE",
"70 508 OFFCURVE",
"63 497 CURVE",
"83 486 LINE",
"93 505 OFFCURVE",
"157 622 OFFCURVE",
"161 646 CURVE",
"167 673 OFFCURVE",
"147 700 OFFCURVE",
"121 700 CURVE SMOOTH",
"94 700 OFFCURVE",
"73 679 OFFCURVE",
"70 656 CURVE SMOOTH"
);
}
);
width = 142;
}
);
unicode = 2019;
},
{
color = 5;
glyphname = guillemetleft;
layers = (
{
layerId = "3C8330F3-4770-4812-9C95-859F387513C1";
paths = (
{
closed = 1;
nodes = (
"420 127 LINE",
"275 268 LINE",
"455 411 LINE",
"462 469 LINE",
"208 271 LINE",
"413 70 LINE"
);
},
{
closed = 1;
nodes = (
"244 127 LINE",
"100 268 LINE",
"279 412 LINE",
"286 469 LINE",
"33 271 LINE",
"237 70 LINE"
);
}
);
width = 475;
},
{
layerId = "4BC9CD2E-8AD0-40CC-97AA-8C7B556514B0";
paths = (
{
closed = 1;
nodes = (
"572 152 LINE",
"445 270 LINE",
"603 388 LINE",
"617 521 LINE",
"297 273 LINE",
"557 19 LINE"
);
},
{
closed = 1;
nodes = (
"309 151 LINE",
"186 270 LINE",
"340 388 LINE",
"354 521 LINE",
"33 273 LINE",
"295 21 LINE"
);
}
);
width = 625;
}
);
unicode = 00AB;
},
{
color = 5;
glyphname = guillemetright;
layers = (
{
layerId = "3C8330F3-4770-4812-9C95-859F387513C1";
paths = (
{
closed = 1;
nodes = (
"273 271 LINE",
"67 469 LINE",
"60 411 LINE",
"204 268 LINE",
"25 127 LINE",
"18 70 LINE"
);
},
{
closed = 1;
nodes = (
"448 271 LINE",
"243 469 LINE",
"236 412 LINE",
"379 268 LINE",
"201 127 LINE",
"194 70 LINE"
);
}
);
width = 475;
},
{
layerId = "4BC9CD2E-8AD0-40CC-97AA-8C7B556514B0";
paths = (
{
closed = 1;
nodes = (
"334 273 LINE",
"72 521 LINE",
"58 388 LINE",
"184 270 LINE",
"27 152 LINE",
"12 19 LINE"
);
},
{
closed = 1;
nodes = (
"598 273 LINE",
"335 521 LINE",
"321 388 LINE",
"443 270 LINE",
"290 151 LINE",
"276 21 LINE"
);
}
);
width = 625;
}
);
unicode = 00BB;
},
{
color = 5;
glyphname = guilsinglleft;
layers = (
{
layerId = "4BC9CD2E-8AD0-40CC-97AA-8C7B556514B0";
paths = (
{
closed = 1;
nodes = (
"291 150 LINE",
"173 269 LINE",
"322 387 LINE",
"336 521 LINE",
"33 272 LINE",
"276 19 LINE"
);
}
);
width = 344;
},
{
layerId = "3C8330F3-4770-4812-9C95-859F387513C1";
paths = (
{
closed = 1;
nodes = (
"245 128 LINE",
"100 269 LINE",
"280 412 LINE",
"287 470 LINE",
"33 272 LINE",
"238 71 LINE"
);
}
);
width = 300;
}
);
unicode = 2039;
},
{
color = 5;
glyphname = guilsinglright;
layers = (
{
layerId = "4BC9CD2E-8AD0-40CC-97AA-8C7B556514B0";
paths = (
{
closed = 1;
nodes = (
"317 272 LINE",
"72 521 LINE",
"58 387 LINE",
"175 269 LINE",
"27 150 LINE",
"13 19 LINE"
);
}
);
width = 344;
},
{
layerId = "3C8330F3-4770-4812-9C95-859F387513C1";
paths = (
{
closed = 1;
nodes = (
"273 272 LINE",
"67 470 LINE",
"60 412 LINE",
"204 269 LINE",
"25 128 LINE",
"18 71 LINE"
);
}
);
width = 300;
}
);
unicode = 203A;
},
{
color = 5;
glyphname = quotedbl;
layers = (
{
layerId = "4BC9CD2E-8AD0-40CC-97AA-8C7B556514B0";
paths = (
{
closed = 1;
nodes = (
"266 700 LINE",
"248 463 LINE",
"336 463 LINE",
"376 700 LINE"
);
},
{
closed = 1;
nodes = (
"95 700 LINE",
"77 463 LINE",
"165 463 LINE",
"205 700 LINE"
);
}
);
width = 361;
},
{
layerId = "3C8330F3-4770-4812-9C95-859F387513C1";
paths = (
{
closed = 1;
nodes = (
"213 700 LINE",
"190 463 LINE",
"230 463 LINE",
"265 700 LINE"
);
},
{
closed = 1;
nodes = (
"95 700 LINE",
"72 463 LINE",
"112 463 LINE",
"147 700 LINE"
);
}
);
width = 250;
}
);
unicode = 0022;
},
{
color = 5;
glyphname = quotesingle;
layers = (
{
layerId = "4BC9CD2E-8AD0-40CC-97AA-8C7B556514B0";
paths = (
{
closed = 1;
nodes = (
"95 700 LINE",
"77 463 LINE",
"165 463 LINE",
"205 700 LINE"
);
}
);
width = 190;
},
{
layerId = "3C8330F3-4770-4812-9C95-859F387513C1";
paths = (
{
closed = 1;
nodes = (
"95 700 LINE",
"72 463 LINE",
"112 463 LINE",
"147 700 LINE"
);
}
);
width = 132;
}
);
unicode = 0027;
},
{
glyphname = .notdef;
layers = (
{
layerId = "4BC9CD2E-8AD0-40CC-97AA-8C7B556514B0";
paths = (
{
closed = 1;
nodes = (
"311 -60 LINE",
"79 -60 LINE",
"159 596 LINE",
"391 596 LINE",
"400 664 LINE",
"101 664 LINE",
"4 -128 LINE",
"303 -128 LINE"
);
},
{
closed = 1;
nodes = (
"483 -128 LINE",
"580 664 LINE",
"371 664 LINE",
"362 596 LINE",
"504 596 LINE",
"424 -60 LINE",
"282 -60 LINE",
"274 -128 LINE"
);
}
);
width = 579;
},
{
associatedMasterId = "3C8330F3-4770-4812-9C95-859F387513C1";
layerId = "E1ADDF7C-A343-4E6D-B630-136BDFE64807";
paths = (
{
closed = 1;
nodes = (
"366 -38 LINE",
"132 -38 LINE",
"132 574 LINE",
"366 574 LINE",
"366 664 LINE",
"50 664 LINE",
"50 -128 LINE",
"366 -128 LINE"
);
},
{
closed = 1;
nodes = (
"529 -128 LINE",
"529 664 LINE",
"320 664 LINE",
"320 574 LINE",
"447 574 LINE",
"447 -38 LINE",
"320 -38 LINE",
"320 -128 LINE"
);
}
);
width = 579;
},
{
layerId = "3C8330F3-4770-4812-9C95-859F387513C1";
paths = (
{
closed = 1;
nodes = (
"308 -84 LINE",
"57 -84 LINE",
"143 620 LINE",
"394 620 LINE",
"400 664 LINE",
"101 664 LINE",
"4 -128 LINE",
"303 -128 LINE"
);
},
{
closed = 1;
nodes = (
"483 -128 LINE",
"580 664 LINE",
"371 664 LINE",
"365 620 LINE",
"526 620 LINE",
"440 -84 LINE",
"279 -84 LINE",
"274 -128 LINE"
);
}
);
width = 579;
}
);
},
{
color = 5;
glyphname = cent;
layers = (
{
components = (
{
name = c;
transform = "{1, 0, 0, 1, 0, 94}";
}
);
layerId = "4BC9CD2E-8AD0-40CC-97AA-8C7B556514B0";
paths = (
{
closed = 1;
nodes = (
"273 539 LINE",
"363 539 LINE",
"376 639 LINE",
"286 639 LINE"
);
},
{
closed = 1;
nodes = (
"213 49 LINE",
"303 49 LINE",
"316 149 LINE",
"226 149 LINE"
);
}
);
width = 508;
},
{
components = (
{
name = c;
transform = "{1, 0, 0, 1, 0, 92}";
}
);
layerId = "3C8330F3-4770-4812-9C95-859F387513C1";
paths = (
{
closed = 1;
nodes = (
"293 551 LINE",
"333 551 LINE",
"343 636 LINE",
"303 636 LINE"
);
},
{
closed = 1;
nodes = (
"231 49 LINE",
"271 49 LINE",
"281 130 LINE",
"241 130 LINE"
);
}
);
width = 483;
}
);
unicode = 00A2;
},
{
color = 5;
glyphname = currency;
layers = (
{
layerId = "4BC9CD2E-8AD0-40CC-97AA-8C7B556514B0";
paths = (
{
closed = 1;
nodes = (
"513 217 LINE",
"539 252 OFFCURVE",
"555 291 OFFCURVE",
"560 331 CURVE SMOOTH",
"566 379 OFFCURVE",
"556 419 OFFCURVE",
"540 454 CURVE",
"638 544 LINE",
"571 620 LINE",
"470 532 LINE",
"439 552 OFFCURVE",
"402 567 OFFCURVE",
"355 567 CURVE SMOOTH",
"312 567 OFFCURVE",
"273 554 OFFCURVE",
"236 534 CURVE",
"160 620 LINE",
"76 544 LINE",
"151 459 LINE",
"126 424 OFFCURVE",
"109 385 OFFCURVE",
"103 343 CURVE SMOOTH",
"98 297 OFFCURVE",
"107 257 OFFCURVE",
"123 222 CURVE",
"26 133 LINE",
"94 57 LINE",
"192 143 LINE",
"224 123 OFFCURVE",
"261 108 OFFCURVE",
"309 108 CURVE SMOOTH",
"351 108 OFFCURVE",
"391 121 OFFCURVE",
"429 142 CURVE",
"505 57 LINE",
"588 133 LINE"
);
},
{
closed = 1;
nodes = (
"444 400 OFFCURVE",
"452 372 OFFCURVE",
"448 343 CURVE SMOOTH",
"444 308 OFFCURVE",
"426 278 OFFCURVE",
"401 259 CURVE SMOOTH",
"379 236 OFFCURVE",
"347 221 OFFCURVE",
"312 221 CURVE SMOOTH",
"283 221 OFFCURVE",
"256 232 OFFCURVE",
"236 251 CURVE SMOOTH",
"219 274 OFFCURVE",
"211 302 OFFCURVE",
"215 331 CURVE SMOOTH",
"219 366 OFFCURVE",
"238 396 OFFCURVE",
"263 415 CURVE SMOOTH",
"285 438 OFFCURVE",
"316 453 OFFCURVE",
"351 453 CURVE SMOOTH",
"380 453 OFFCURVE",
"407 442 OFFCURVE",
"428 423 CURVE SMOOTH"
);
}
);
width = 642;
},
{
layerId = "3C8330F3-4770-4812-9C95-859F387513C1";
paths = (
{
closed = 1;
nodes = (
"466 191 LINE",
"510 244 OFFCURVE",
"530 289 OFFCURVE",
"535 334 CURVE SMOOTH",
"541 383 OFFCURVE",
"532 427 OFFCURVE",
"500 483 CURVE",
"608 579 LINE",
"587 602 LINE",
"479 505 LINE",
"429 544 OFFCURVE",
"386 559 OFFCURVE",
"340 559 CURVE SMOOTH",
"296 559 OFFCURVE",
"249 546 OFFCURVE",
"190 507 CURVE",
"107 603 LINE",
"80 579 LINE",
"165 485 LINE",
"118 429 OFFCURVE",
"100 385 OFFCURVE",
"94 340 CURVE SMOOTH",
"88 291 OFFCURVE",
"98 246 OFFCURVE",
"129 193 CURVE",
"21 98 LINE",
"43 74 LINE",
"149 170 LINE",
"199 131 OFFCURVE",
"242 116 OFFCURVE",
"290 116 CURVE SMOOTH",
"336 116 OFFCURVE",
"383 130 OFFCURVE",
"440 169 CURVE",
"524 75 LINE",
"549 98 LINE"
);
},
{
closed = 1;
nodes = (
"486 432 OFFCURVE",
"498 386 OFFCURVE",
"492 340 CURVE SMOOTH",
"486 288 OFFCURVE",
"462 245 OFFCURVE",
"424 214 CURVE SMOOTH",
"389 180 OFFCURVE",
"342 160 OFFCURVE",
"291 160 CURVE SMOOTH",
"242 160 OFFCURVE",
"201 178 OFFCURVE",
"173 210 CURVE SMOOTH",
"144 243 OFFCURVE",
"131 286 OFFCURVE",
"137 334 CURVE SMOOTH",
"144 386 OFFCURVE",
"169 430 OFFCURVE",
"206 461 CURVE SMOOTH",
"242 495 OFFCURVE",
"289 514 OFFCURVE",
"338 514 CURVE SMOOTH",
"385 514 OFFCURVE",
"429 497 OFFCURVE",
"458 465 CURVE SMOOTH"
);
}
);
width = 608;
}
);
unicode = 00A4;
},
{
color = 5;
glyphname = dollar;
layers = (
{
components = (
{
name = S;
}
);
layerId = "4BC9CD2E-8AD0-40CC-97AA-8C7B556514B0";
paths = (
{
closed = 1;
nodes = (
"190 -65 LINE",
"285 -65 LINE",
"387 762 LINE",
"292 762 LINE"
);
}
);
width = 553;
},
{
components = (
{
name = S;
}
);
layerId = "3C8330F3-4770-4812-9C95-859F387513C1";
paths = (
{
closed = 1;
nodes = (
"210 -46 LINE",
"256 -46 LINE",
"353 745 LINE",
"307 745 LINE"
);
}
);
width = 538;
}
);
unicode = 0024;
},
{
color = 5;
glyphname = euro;
layers = (
{
layerId = "3C8330F3-4770-4812-9C95-859F387513C1";
paths = (
{
closed = 1;
nodes = (
"466 -5 LINE",
"472 44 LINE",
"409 44 LINE SMOOTH",
"282 44 OFFCURVE",
"181 129 OFFCURVE",
"155 251 CURVE",
"418 252 LINE",
"423 287 LINE",
"150 286 LINE",
"147 325 OFFCURVE",
"154 376 OFFCURVE",
"167 413 CURVE",
"438 414 LINE",
"442 449 LINE",
"181 448 LINE",
"236 567 OFFCURVE",
"356 656 OFFCURVE",
"486 656 CURVE SMOOTH",
"547 656 LINE",
"553 705 LINE",
"490 705 LINE SMOOTH",
"335 705 OFFCURVE",
"184 600 OFFCURVE",
"124 450 CURVE",
"64 449 LINE",
"60 414 LINE",
"112 415 LINE",
"101 376 OFFCURVE",
"95 333 OFFCURVE",
"97 288 CURVE",
"45 287 LINE",
"40 252 LINE",
"101 253 LINE",
"123 102 OFFCURVE",
"249 -5 OFFCURVE",
"405 -5 CURVE SMOOTH"
);
}
);
width = 547;
},
{
layerId = "4BC9CD2E-8AD0-40CC-97AA-8C7B556514B0";
paths = (
{
closed = 1;
nodes = (
"469 -5 LINE",
"484 119 LINE",
"405 119 LINE SMOOTH",
"312 119 OFFCURVE",
"258 158 OFFCURVE",
"232 222 CURVE",
"429 225 LINE",
"441 320 LINE",
"216 317 LINE",
"214 338 OFFCURVE",
"218 359 OFFCURVE",
"224 380 CURVE",
"448 383 LINE",
"460 478 LINE",
"268 475 LINE",
"309 538 OFFCURVE",
"376 581 OFFCURVE",
"467 581 CURVE SMOOTH",
"541 581 LINE",
"556 705 LINE",
"477 705 LINE SMOOTH",
"329 705 OFFCURVE",
"201 629 OFFCURVE",
"137 481 CURVE",
"68 478 LINE",
"56 383 LINE",
"106 386 LINE",
"102 365 OFFCURVE",
"100 344 OFFCURVE",
"99 323 CURVE",
"49 320 LINE",
"37 225 LINE",
"106 228 LINE",
"133 86 OFFCURVE",
"239 -5 OFFCURVE",
"395 -5 CURVE SMOOTH"
);
}
);
width = 550;
}
);
unicode = 20AC;
},
{
color = 5;
glyphname = sterling;
layers = (
{
layerId = "4BC9CD2E-8AD0-40CC-97AA-8C7B556514B0";
paths = (
{
closed = 1;
nodes = (
"392 0 LINE",
"406 111 LINE",
"148 109 LINE",
"188 165 OFFCURVE",
"220 241 OFFCURVE",
"235 308 CURVE",
"356 311 LINE",
"369 412 LINE",
"246 409 LINE",
"233 473 OFFCURVE",
"234 505 OFFCURVE",
"246 528 CURVE",
"253 551 OFFCURVE",
"267 562 OFFCURVE",
"281 568 CURVE SMOOTH",
"309 589 OFFCURVE",
"373 609 OFFCURVE",
"462 592 CURVE",
"470 696 LINE",
"362 715 OFFCURVE",
"263 708 OFFCURVE",
"197 654 CURVE SMOOTH",
"171 628 OFFCURVE",
"151 597 OFFCURVE",
"137 559 CURVE SMOOTH",
"122 512 OFFCURVE",
"122 463 OFFCURVE",
"131 415 CURVE",
"70 412 LINE",
"57 311 LINE",
"125 314 LINE",
"115 258 OFFCURVE",
"77 180 OFFCURVE",
"20 100 CURVE",
"9 0 LINE"
);
}
);
width = 468;
},
{
layerId = "3C8330F3-4770-4812-9C95-859F387513C1";
paths = (
{
closed = 1;
nodes = (
"396 0 LINE",
"403 51 LINE",
"71 50 LINE",
"136 127 OFFCURVE",
"187 217 OFFCURVE",
"208 315 CURVE",
"354 316 LINE",
"359 357 LINE",
"214 356 LINE",
"211 395 OFFCURVE",
"199 473 OFFCURVE",
"201 505 CURVE",
"203 551 OFFCURVE",
"221 599 OFFCURVE",
"274 630 CURVE SMOOTH",
"331 663 OFFCURVE",
"408 661 OFFCURVE",
"483 653 CURVE",
"486 699 LINE",
"410 709 OFFCURVE",
"313 709 OFFCURVE",
"248 670 CURVE SMOOTH",
"224 655 OFFCURVE",
"205 637 OFFCURVE",
"190 621 CURVE SMOOTH",
"140 559 OFFCURVE",
"152 483 OFFCURVE",
"166 358 CURVE",
"76 357 LINE",
"71 316 LINE",
"162 317 LINE",
"139 222 OFFCURVE",
"101 154 OFFCURVE",
"15 55 CURVE",
"9 0 LINE"
);
}
);
width = 477;
}
);
unicode = 00A3;
},
{
color = 5;
glyphname = notequal;
layers = (
{
components = (
{
name = endash;
transform = "{0.95, 0, 0.24556, 1, -77, -75}";
},
{
name = endash;
transform = "{0.95, 0, 0.24556, 1, -39, 75}";
}
);
layerId = "4BC9CD2E-8AD0-40CC-97AA-8C7B556514B0";
paths = (
{
closed = 1;
nodes = (
"208 107 LINE",
"497 506 LINE",
"391 506 LINE",
"101 107 LINE"
);
}
);
width = 571;
},
{
components = (
{
name = endash;
transform = "{0.95, 0, 0.12278, 1, -37, -75}";
},
{
name = endash;
transform = "{0.95, 0, 0.12278, 1, -18, 75}";
}
);
layerId = "3C8330F3-4770-4812-9C95-859F387513C1";
paths = (
{
closed = 1;
nodes = (
"200 107 LINE",
"440 506 LINE",
"386 506 LINE",
"145 107 LINE"
);
}
);
width = 571;
}
);
unicode = 2260;
},
{
color = 5;
glyphname = greater;
layers = (
{
layerId = "4BC9CD2E-8AD0-40CC-97AA-8C7B556514B0";
paths = (
{
closed = 1;
nodes = (
"475 326 LINE",
"76 544 LINE",
"59 405 LINE",
"339 272 LINE",
"26 136 LINE",
"9 -4 LINE",
"462 217 LINE"
);
}
);
width = 506;
},
{
layerId = "3C8330F3-4770-4812-9C95-859F387513C1";
paths = (
{
closed = 1;
nodes = (
"473 297 LINE",
"72 511 LINE",
"65 456 LINE",
"417 270 LINE",
"19 83 LINE",
"13 30 LINE",
"466 243 LINE"
);
}
);
width = 507;
}
);
unicode = 003E;
},
{
color = 5;
glyphname = greaterequal;
layers = (
{
layerId = "4BC9CD2E-8AD0-40CC-97AA-8C7B556514B0";
paths = (
{
closed = 1;
nodes = (
"486 411 LINE",
"78 558 LINE",
"62 425 LINE",
"343 356 LINE",
"44 287 LINE",
"28 154 LINE",
"472 297 LINE"
);
},
{
closed = 1;
nodes = (
"448 100 LINE",
"22 100 LINE",
"9 0 LINE",
"435 0 LINE"
);
}
);
width = 506;
},
{
layerId = "3C8330F3-4770-4812-9C95-859F387513C1";
paths = (
{
closed = 1;
nodes = (
"477 339 LINE",
"68 476 LINE",
"61 424 LINE",
"427 306 LINE",
"33 192 LINE",
"27 141 LINE",
"469 272 LINE"
);
},
{
closed = 1;
nodes = (
"441 50 LINE",
"15 50 LINE",
"9 0 LINE",
"435 0 LINE"
);
}
);
width = 506;
}
);
unicode = 2265;
},
{
color = 5;
glyphname = plusminus;
layers = (
{
layerId = "4BC9CD2E-8AD0-40CC-97AA-8C7B556514B0";
paths = (
{
closed = 1;
nodes = (
"563 396 LINE",
"373 396 LINE",
"383 474 LINE",
"273 474 LINE",
"263 396 LINE",
"68 396 LINE",
"55 288 LINE",
"250 288 LINE",
"240 209 LINE",
"350 209 LINE",
"360 288 LINE",
"550 288 LINE"
);
},
{
closed = 1;
nodes = (
"532 146 LINE",
"37 146 LINE",
"24 38 LINE",
"519 38 LINE"
);
}
);
width = 595;
},
{
layerId = "3C8330F3-4770-4812-9C95-859F387513C1";
paths = (
{
closed = 1;
nodes = (
"530 328 LINE",
"320 328 LINE",
"331 419 LINE",
"281 419 LINE",
"270 328 LINE",
"60 328 LINE",
"53 278 LINE",
"263 278 LINE",
"252 186 LINE",
"302 186 LINE",
"313 278 LINE",
"523 278 LINE"
);
},
{
closed = 1;
nodes = (
"500 88 LINE",
"30 88 LINE",
"24 38 LINE",
"494 38 LINE"
);
}
);
width = 570;
}
);
unicode = 00B1;
},
{
color = 5;
glyphname = approxequal;
layers = (
{
layerId = "4BC9CD2E-8AD0-40CC-97AA-8C7B556514B0";
paths = (
{
closed = 1;
nodes = (
"154 299 LINE",
"159 341 OFFCURVE",
"190 371 OFFCURVE",
"230 371 CURVE SMOOTH",
"269 371 OFFCURVE",
"334 311 OFFCURVE",
"403 311 CURVE SMOOTH",
"486 311 OFFCURVE",
"560 382 OFFCURVE",
"572 480 CURVE",
"466 486 LINE",
"459 433 OFFCURVE",
"426 411 OFFCURVE",
"393 415 CURVE",
"369 421 OFFCURVE",
"307 469 OFFCURVE",
"260 473 CURVE",
"215 482 OFFCURVE",
"164 469 OFFCURVE",
"122 442 CURVE SMOOTH",
"84 411 OFFCURVE",
"54 368 OFFCURVE",
"47 305 CURVE"
);
},
{
closed = 1;
nodes = (
"159 99 LINE",
"165 141 OFFCURVE",
"196 171 OFFCURVE",
"235 171 CURVE SMOOTH",
"275 171 OFFCURVE",
"339 111 OFFCURVE",
"408 111 CURVE SMOOTH",
"491 111 OFFCURVE",
"566 182 OFFCURVE",
"578 280 CURVE",
"471 286 LINE",
"465 233 OFFCURVE",
"432 211 OFFCURVE",
"399 215 CURVE",
"374 221 OFFCURVE",
"313 269 OFFCURVE",
"266 273 CURVE",
"220 282 OFFCURVE",
"169 269 OFFCURVE",
"127 242 CURVE SMOOTH",
"89 211 OFFCURVE",
"60 168 OFFCURVE",
"52 105 CURVE"
);
}
);
width = 614;
},
{
layerId = "3C8330F3-4770-4812-9C95-859F387513C1";
paths = (
{
closed = 1;
nodes = (
"95 320 LINE",
"114 370 OFFCURVE",
"171 408 OFFCURVE",
"230 402 CURVE SMOOTH",
"283 396 OFFCURVE",
"339 332 OFFCURVE",
"406 332 CURVE SMOOTH",
"470 332 OFFCURVE",
"535 390 OFFCURVE",
"551 454 CURVE",
"505 456 LINE",
"490 403 OFFCURVE",
"443 371 OFFCURVE",
"388 379 CURVE SMOOTH",
"355 384 OFFCURVE",
"278 440 OFFCURVE",
"238 445 CURVE",
"200 452 OFFCURVE",
"157 442 OFFCURVE",
"118 417 CURVE SMOOTH",
"84 392 OFFCURVE",
"59 358 OFFCURVE",
"49 322 CURVE"
);
},
{
closed = 1;
nodes = (
"85 130 LINE",
"105 180 OFFCURVE",
"162 218 OFFCURVE",
"220 212 CURVE SMOOTH",
"274 206 OFFCURVE",
"330 142 OFFCURVE",
"397 142 CURVE SMOOTH",
"461 142 OFFCURVE",
"526 200 OFFCURVE",
"542 264 CURVE",
"496 266 LINE",
"480 213 OFFCURVE",
"433 181 OFFCURVE",
"378 189 CURVE SMOOTH",
"346 194 OFFCURVE",
"269 250 OFFCURVE",
"229 255 CURVE",
"190 262 OFFCURVE",
"147 252 OFFCURVE",
"108 227 CURVE SMOOTH",
"74 202 OFFCURVE",
"50 168 OFFCURVE",
"39 132 CURVE"
);
}
);
width = 580;
}
);
unicode = 2248;
},
{
color = 5;
glyphname = asciitilde;
layers = (
{
layerId = "4BC9CD2E-8AD0-40CC-97AA-8C7B556514B0";
paths = (
{
closed = 1;
nodes = (
"542 180 OFFCURVE",
"590 260 OFFCURVE",
"603 363 CURVE",
"487 369 LINE",
"480 317 OFFCURVE",
"443 289 OFFCURVE",
"405 289 CURVE SMOOTH",
"347 289 OFFCURVE",
"368 373 OFFCURVE",
"225 373 CURVE SMOOTH",
"102 373 OFFCURVE",
"47 305 OFFCURVE",
"33 190 CURVE",
"150 184 LINE",
"156 235 OFFCURVE",
"192 257 OFFCURVE",
"231 257 CURVE",
"288 257 OFFCURVE",
"271 176 OFFCURVE",
"414 178 CURVE SMOOTH"
);
}
);
width = 629;
},
{
layerId = "3C8330F3-4770-4812-9C95-859F387513C1";
paths = (
{
closed = 1;
nodes = (
"524 202 OFFCURVE",
"571 285 OFFCURVE",
"580 353 CURVE",
"524 355 LINE",
"516 294 OFFCURVE",
"483 256 OFFCURVE",
"422 256 CURVE SMOOTH",
"356 256 OFFCURVE",
"298 345 OFFCURVE",
"206 345 CURVE SMOOTH",
"104 345 OFFCURVE",
"43 275 OFFCURVE",
"32 188 CURVE",
"88 186 LINE",
"96 252 OFFCURVE",
"142 291 OFFCURVE",
"199 291 CURVE SMOOTH",
"286 291 OFFCURVE",
"311 202 OFFCURVE",
"417 202 CURVE SMOOTH"
);
}
);
width = 607;
}
);
unicode = 007E;
},
{
color = 5;
glyphname = logicalnot;
layers = (
{
layerId = "4BC9CD2E-8AD0-40CC-97AA-8C7B556514B0";
paths = (
{
closed = 1;
nodes = (
"477 320 LINE",
"49 320 LINE",
"36 219 LINE",
"358 219 LINE",
"342 90 LINE",
"448 90 LINE"
);
}
);
width = 518;
},
{
layerId = "3C8330F3-4770-4812-9C95-859F387513C1";
paths = (
{
closed = 1;
nodes = (
"477 320 LINE",
"49 320 LINE",
"43 271 LINE",
"427 271 LINE",
"403 81 LINE",
"447 81 LINE"
);
}
);
width = 518;
}
);
unicode = 00AC;
},
{
color = 5;
glyphname = asciicircum;
layers = (
{
layerId = "4BC9CD2E-8AD0-40CC-97AA-8C7B556514B0";
paths = (
{
closed = 1;
nodes = (
"376 700 LINE",
"274 700 LINE",
"54 370 LINE",
"188 370 LINE",
"313 565 LINE",
"387 370 LINE",
"518 370 LINE"
);
}
);
width = 544;
},
{
layerId = "3C8330F3-4770-4812-9C95-859F387513C1";
paths = (
{
closed = 1;
nodes = (
"321 700 LINE",
"265 700 LINE",
"54 370 LINE",
"112 370 LINE",
"289 654 LINE",
"395 370 LINE",
"451 370 LINE"
);
}
);
width = 477;
}
);
unicode = 005E;
},
{
color = 5;
glyphname = emptyset;
layers = (
{
layerId = "4BC9CD2E-8AD0-40CC-97AA-8C7B556514B0";
paths = (
{
closed = 1;
nodes = (
"487 38 OFFCURVE",
"635 170 OFFCURVE",
"655 334 CURVE SMOOTH",
"676 503 OFFCURVE",
"555 641 OFFCURVE",
"386 641 CURVE SMOOTH",
"222 641 OFFCURVE",
"74 509 OFFCURVE",
"54 346 CURVE SMOOTH",
"33 176 OFFCURVE",
"154 38 OFFCURVE",
"322 38 CURVE SMOOTH"
);
},
{
closed = 1;
nodes = (
"225 151 OFFCURVE",
"153 233 OFFCURVE",
"165 334 CURVE SMOOTH",
"178 440 OFFCURVE",
"277 528 OFFCURVE",
"382 528 CURVE SMOOTH",
"484 528 OFFCURVE",
"556 446 OFFCURVE",
"544 346 CURVE SMOOTH",
"531 239 OFFCURVE",
"432 151 OFFCURVE",
"326 151 CURVE SMOOTH"
);
},
{
closed = 1;
nodes = (
"23 113 LINE",
"93 35 LINE",
"684 567 LINE",
"614 645 LINE"
);
}
);
width = 685;
},
{
layerId = "3C8330F3-4770-4812-9C95-859F387513C1";
paths = (
{
closed = 1;
nodes = (
"483 38 OFFCURVE",
"633 172 OFFCURVE",
"654 337 CURVE SMOOTH",
"674 505 OFFCURVE",
"555 641 OFFCURVE",
"387 641 CURVE SMOOTH",
"222 641 OFFCURVE",
"72 507 OFFCURVE",
"51 343 CURVE SMOOTH",
"31 174 OFFCURVE",
"150 38 OFFCURVE",
"317 38 CURVE SMOOTH"
);
},
{
closed = 1;
nodes = (
"182 88 OFFCURVE",
"84 200 OFFCURVE",
"101 337 CURVE SMOOTH",
"118 477 OFFCURVE",
"246 591 OFFCURVE",
"385 591 CURVE SMOOTH",
"523 591 OFFCURVE",
"621 479 OFFCURVE",
"604 343 CURVE SMOOTH",
"587 202 OFFCURVE",
"459 88 OFFCURVE",
"319 88 CURVE SMOOTH"
);
},
{
closed = 1;
nodes = (
"41 92 LINE",
"73 57 LINE",
"663 588 LINE",
"630 623 LINE"
);
}
);
width = 683;
}
);
unicode = 2205;
},
{
color = 5;
glyphname = infinity;
layers = (
{
layerId = "4BC9CD2E-8AD0-40CC-97AA-8C7B556514B0";
paths = (
{
closed = 1;
nodes = (
"786 114 OFFCURVE",
"799 218 CURVE SMOOTH",
"813 328 OFFCURVE",
"732 420 OFFCURVE",
"614 420 CURVE SMOOTH",
"549 420 OFFCURVE",
"484 388 OFFCURVE",
"428 335 CURVE",
"390 384 OFFCURVE",
"330 420 OFFCURVE",
"261 420 CURVE SMOOTH",
"150 420 OFFCURVE",
"51 336 OFFCURVE",
"38 230 CURVE SMOOTH",
"24 122 OFFCURVE",
"106 29 OFFCURVE",
"223 29 CURVE SMOOTH",
"281 29 OFFCURVE",
"354 60 OFFCURVE",
"408 114 CURVE",
"449 65 OFFCURVE",
"508 29 OFFCURVE",
"576 29 CURVE SMOOTH",
"684 29 OFFCURVE"
);
},
{
closed = 1;
nodes = (
"693 280 OFFCURVE",
"687 230 CURVE SMOOTH",
"680 177 OFFCURVE",
"629 138 OFFCURVE",
"579 138 CURVE SMOOTH",
"531 138 OFFCURVE",
"470 178 OFFCURVE",
"475 218 CURVE SMOOTH",
"481 264 OFFCURVE",
"552 310 OFFCURVE",
"610 310 CURVE SMOOTH",
"654 310 OFFCURVE"
);
},
{
closed = 1;
nodes = (
"367 272 OFFCURVE",
"362 230 CURVE SMOOTH",
"356 184 OFFCURVE",
"285 138 OFFCURVE",
"226 138 CURVE SMOOTH",
"185 138 OFFCURVE",
"144 171 OFFCURVE",
"150 218 CURVE SMOOTH",
"156 270 OFFCURVE",
"206 310 OFFCURVE",
"257 310 CURVE SMOOTH",
"309 310 OFFCURVE"
);
}
);
width = 843;
},
{
layerId = "3C8330F3-4770-4812-9C95-859F387513C1";
paths = (
{
closed = 1;
nodes = (
"795 124 OFFCURVE",
"807 221 CURVE SMOOTH",
"820 322 OFFCURVE",
"759 420 OFFCURVE",
"642 420 CURVE SMOOTH",
"576 420 OFFCURVE",
"472 384 OFFCURVE",
"430 300 CURVE",
"411 382 OFFCURVE",
"315 420 OFFCURVE",
"247 420 CURVE SMOOTH",
"135 420 OFFCURVE",
"49 325 OFFCURVE",
"37 227 CURVE SMOOTH",
"25 129 OFFCURVE",
"89 29 OFFCURVE",
"203 29 CURVE SMOOTH",
"269 29 OFFCURVE",
"372 67 OFFCURVE",
"413 147 CURVE",
"434 69 OFFCURVE",
"530 29 OFFCURVE",
"598 29 CURVE SMOOTH",
"713 29 OFFCURVE"
);
},
{
closed = 1;
nodes = (
"777 313 OFFCURVE",
"766 227 CURVE SMOOTH",
"756 140 OFFCURVE",
"681 70 OFFCURVE",
"599 70 CURVE SMOOTH",
"514 70 OFFCURVE",
"433 140 OFFCURVE",
"443 221 CURVE SMOOTH",
"454 307 OFFCURVE",
"552 378 OFFCURVE",
"641 378 CURVE SMOOTH",
"720 378 OFFCURVE"
);
},
{
closed = 1;
nodes = (
"411 309 OFFCURVE",
"401 227 CURVE SMOOTH",
"391 145 OFFCURVE",
"297 70 OFFCURVE",
"204 70 CURVE SMOOTH",
"126 70 OFFCURVE",
"68 136 OFFCURVE",
"78 221 CURVE SMOOTH",
"89 308 OFFCURVE",
"163 378 OFFCURVE",
"246 378 CURVE SMOOTH",
"335 378 OFFCURVE"
);
}
);
width = 851;
}
);
unicode = 221E;
},
{
color = 5;
glyphname = integral;
layers = (
{
layerId = "4BC9CD2E-8AD0-40CC-97AA-8C7B556514B0";
paths = (
{
closed = 1;
nodes = (
"573 707 LINE",
"474 707 LINE SMOOTH",
"344 707 OFFCURVE",
"297 533 OFFCURVE",
"233 311 CURVE SMOOTH",
"196 170 OFFCURVE",
"140 -38 OFFCURVE",
"93 -38 CURVE SMOOTH",
"5 -38 LINE",
"-10 -158 LINE",
"89 -158 LINE SMOOTH",
"217 -158 OFFCURVE",
"270 7 OFFCURVE",
"325 199 CURVE SMOOTH",
"420 529 OFFCURVE",
"440 587 OFFCURVE",
"470 587 CURVE SMOOTH",
"558 587 LINE"
);
}
);
width = 557;
},
{
layerId = "3C8330F3-4770-4812-9C95-859F387513C1";
paths = (
{
closed = 1;
nodes = (
"573 707 LINE",
"502 707 LINE SMOOTH",
"376 707 OFFCURVE",
"334 519 OFFCURVE",
"268 304 CURVE SMOOTH",
"195 63 OFFCURVE",
"150 -113 OFFCURVE",
"57 -113 CURVE SMOOTH",
"-5 -113 LINE",
"-10 -158 LINE",
"61 -158 LINE SMOOTH",
"190 -158 OFFCURVE",
"233 32 OFFCURVE",
"319 301 CURVE SMOOTH",
"386 516 OFFCURVE",
"418 662 OFFCURVE",
"506 662 CURVE SMOOTH",
"568 662 LINE"
);
}
);
width = 557;
}
);
unicode = 222B;
},
{
color = 5;
glyphname = product;
layers = (
{
layerId = "4BC9CD2E-8AD0-40CC-97AA-8C7B556514B0";
paths = (
{
closed = 1;
nodes = (
"590 700 LINE",
"95 700 LINE",
"83 600 LINE",
"181 600 LINE",
"95 -101 LINE",
"202 -101 LINE",
"288 600 LINE",
"383 600 LINE",
"297 -101 LINE",
"405 -101 LINE",
"491 600 LINE",
"578 600 LINE"
);
}
);
width = 575;
},
{
layerId = "3C8330F3-4770-4812-9C95-859F387513C1";
paths = (
{
closed = 1;
nodes = (
"590 700 LINE",
"95 700 LINE",
"89 652 LINE",
"202 652 LINE",
"110 -101 LINE",
"156 -101 LINE",
"248 652 LINE",
"437 652 LINE",
"345 -101 LINE",
"391 -101 LINE",
"483 652 LINE",
"584 652 LINE"
);
}
);
width = 575;
}
);
unicode = 220F;
},
{
color = 5;
glyphname = summation;
layers = (
{
guideLines = (
{
angle = 57.1715;
position = "{277, 162}";
},
{
angle = -57.1715;
position = "{346, 441}";
}
);
layerId = "4BC9CD2E-8AD0-40CC-97AA-8C7B556514B0";
paths = (
{
closed = 1;
nodes = (
"487 12 LINE",
"175 12 LINE",
"395 301 LINE",
"244 590 LINE",
"558 590 LINE",
"571 700 LINE",
"100 700 LINE",
"89 602 LINE",
"263 301 LINE",
"13 0 LINE",
"2 -98 LINE",
"473 -98 LINE"
);
}
);
width = 561;
},
{
layerId = "3C8330F3-4770-4812-9C95-859F387513C1";
paths = (
{
closed = 1;
nodes = (
"478 -58 LINE",
"59 -58 LINE",
"353 297 LINE",
"145 652 LINE",
"565 652 LINE",
"571 700 LINE",
"100 700 LINE",
"94 646 LINE",
"296 297 LINE",
"8 -52 LINE",
"1 -106 LINE",
"472 -106 LINE"
);
}
);
width = 561;
}
);
unicode = 2211;
},
{
color = 5;
glyphname = radical;
layers = (
{
layerId = "4BC9CD2E-8AD0-40CC-97AA-8C7B556514B0";
paths = (
{
closed = 1;
nodes = (
"645 700 LINE",
"390 700 LINE",
"181 17 LINE",
"143 211 LINE",
"26 211 LINE",
"102 -145 LINE",
"243 -145 LINE",
"477 585 LINE",
"631 585 LINE"
);
}
);
width = 635;
},
{
layerId = "3C8330F3-4770-4812-9C95-859F387513C1";
paths = (
{
closed = 1;
nodes = (
"596 700 LINE",
"382 700 LINE",
"118 -97 LINE",
"71 152 LINE",
"18 152 LINE",
"77 -151 LINE",
"152 -151 LINE",
"418 656 LINE",
"591 656 LINE"
);
}
);
width = 586;
}
);
unicode = 221A;
},
{
color = 5;
glyphname = partialdiff;
layers = (
{
layerId = "4BC9CD2E-8AD0-40CC-97AA-8C7B556514B0";
paths = (
{
closed = 1;
nodes = (
"347 -17 OFFCURVE",
"483 71 OFFCURVE",
"516 203 CURVE SMOOTH",
"557 368 OFFCURVE",
"481 520 OFFCURVE",
"388 697 CURVE",
"258 703 LINE",
"257 702 OFFCURVE",
"326 618 OFFCURVE",
"374 459 CURVE",
"249 517 OFFCURVE",
"81 426 OFFCURVE",
"44 274 CURVE SMOOTH",
"14 145 OFFCURVE",
"90 14 OFFCURVE",
"223 -1 CURVE SMOOTH"
);
},
{
closed = 1;
nodes = (
"186 132 OFFCURVE",
"148 185 OFFCURVE",
"164 248 CURVE SMOOTH",
"179 309 OFFCURVE",
"239 355 OFFCURVE",
"308 354 CURVE SMOOTH",
"378 353 OFFCURVE",
"412 291 OFFCURVE",
"396 231 CURVE",
"384 169 OFFCURVE",
"319 112 OFFCURVE",
"242 122 CURVE SMOOTH"
);
}
);
width = 564;
},
{
layerId = "3C8330F3-4770-4812-9C95-859F387513C1";
paths = (
{
closed = 1;
nodes = (
"340 -18 OFFCURVE",
"472 65 OFFCURVE",
"504 191 CURVE SMOOTH",
"548 368 OFFCURVE",
"462 523 OFFCURVE",
"359 699 CURVE",
"300 701 LINE",
"375 585 OFFCURVE",
"420 490 OFFCURVE",
"454 381 CURVE",
"352 519 OFFCURVE",
"90 444 OFFCURVE",
"42 255 CURVE SMOOTH",
"11 125 OFFCURVE",
"94 13 OFFCURVE",
"221 -3 CURVE SMOOTH"
);
},
{
closed = 1;
nodes = (
"130 59 OFFCURVE",
"69 147 OFFCURVE",
"93 242 CURVE SMOOTH",
"117 338 OFFCURVE",
"213 409 OFFCURVE",
"316 397 CURVE SMOOTH",
"410 386 OFFCURVE",
"474 303 OFFCURVE",
"450 203 CURVE SMOOTH",
"426 104 OFFCURVE",
"321 36 OFFCURVE",
"226 47 CURVE SMOOTH"
);
}
);
width = 554;
}
);
unicode = 2202;
},
{
color = 5;
glyphname = percent;
layers = (
{
layerId = "4BC9CD2E-8AD0-40CC-97AA-8C7B556514B0";
paths = (
{
closed = 1;
nodes = (
"328 -1 LINE",
"726 701 LINE",
"606 701 LINE",
"207 -1 LINE"
);
},
{
closed = 1;
nodes = (
"333 358 OFFCURVE",
"419 427 OFFCURVE",
"431 524 CURVE SMOOTH",
"443 625 OFFCURVE",
"374 703 OFFCURVE",
"275 703 CURVE SMOOTH",
"182 703 OFFCURVE",
"97 635 OFFCURVE",
"85 536 CURVE SMOOTH",
"73 436 OFFCURVE",
"144 358 OFFCURVE",
"243 358 CURVE SMOOTH"
);
},
{
closed = 1;
nodes = (
"207 462 OFFCURVE",
"184 488 OFFCURVE",
"189 524 CURVE SMOOTH",
"194 566 OFFCURVE",
"229 598 OFFCURVE",
"273 598 CURVE SMOOTH",
"307 598 OFFCURVE",
"333 572 OFFCURVE",
"328 536 CURVE SMOOTH",
"323 494 OFFCURVE",
"285 462 OFFCURVE",
"246 462 CURVE SMOOTH"
);
},
{
closed = 1;
nodes = (
"749 -3 OFFCURVE",
"836 67 OFFCURVE",
"847 163 CURVE SMOOTH",
"860 264 OFFCURVE",
"791 342 OFFCURVE",
"690 342 CURVE SMOOTH",
"594 342 OFFCURVE",
"513 270 OFFCURVE",
"502 175 CURVE SMOOTH",
"490 77 OFFCURVE",
"560 -3 OFFCURVE",
"658 -3 CURVE SMOOTH"
);
},
{
closed = 1;
nodes = (
"624 102 OFFCURVE",
"600 129 OFFCURVE",
"604 163 CURVE SMOOTH",
"609 205 OFFCURVE",
"646 238 OFFCURVE",
"688 238 CURVE SMOOTH",
"724 238 OFFCURVE",
"748 212 OFFCURVE",
"744 175 CURVE SMOOTH",
"739 135 OFFCURVE",
"702 102 OFFCURVE",
"661 102 CURVE SMOOTH"
);
}
);
width = 908;
},
{
layerId = "3C8330F3-4770-4812-9C95-859F387513C1";
paths = (
{
closed = 1;
nodes = (
"237 -1 LINE",
"631 701 LINE",
"573 701 LINE",
"179 -1 LINE"
);
},
{
closed = 1;
nodes = (
"284 426 OFFCURVE",
"352 481 OFFCURVE",
"362 560 CURVE SMOOTH",
"372 640 OFFCURVE",
"319 701 OFFCURVE",
"241 701 CURVE SMOOTH",
"164 701 OFFCURVE",
"98 641 OFFCURVE",
"89 566 CURVE SMOOTH",
"80 492 OFFCURVE",
"132 426 OFFCURVE",
"212 426 CURVE SMOOTH"
);
},
{
closed = 1;
nodes = (
"164 472 OFFCURVE",
"128 512 OFFCURVE",
"134 560 CURVE SMOOTH",
"141 615 OFFCURVE",
"186 655 OFFCURVE",
"240 655 CURVE SMOOTH",
"289 655 OFFCURVE",
"323 615 OFFCURVE",
"317 566 CURVE SMOOTH",
"311 517 OFFCURVE",
"267 472 OFFCURVE",
"213 472 CURVE SMOOTH"
);
},
{
closed = 1;
nodes = (
"662 -4 OFFCURVE",
"731 51 OFFCURVE",
"740 130 CURVE SMOOTH",
"750 210 OFFCURVE",
"698 271 OFFCURVE",
"620 271 CURVE SMOOTH",
"543 271 OFFCURVE",
"476 211 OFFCURVE",
"467 136 CURVE SMOOTH",
"458 62 OFFCURVE",
"510 -4 OFFCURVE",
"590 -4 CURVE SMOOTH"
);
},
{
closed = 1;
nodes = (
"542 42 OFFCURVE",
"506 82 OFFCURVE",
"512 130 CURVE SMOOTH",
"519 185 OFFCURVE",
"564 225 OFFCURVE",
"618 225 CURVE SMOOTH",
"667 225 OFFCURVE",
"701 185 OFFCURVE",
"695 136 CURVE SMOOTH",
"689 87 OFFCURVE",
"645 42 OFFCURVE",
"591 42 CURVE SMOOTH"
);
}
);
width = 805;
}
);
unicode = 0025;
},
{
color = 5;
glyphname = perthousand;
layers = (
{
layerId = "4BC9CD2E-8AD0-40CC-97AA-8C7B556514B0";
paths = (
{
closed = 1;
nodes = (
"353 -1 LINE",
"756 701 LINE",
"633 701 LINE",
"229 -1 LINE"
);
},
{
closed = 1;
nodes = (
"337 358 OFFCURVE",
"425 427 OFFCURVE",
"437 524 CURVE SMOOTH",
"449 622 OFFCURVE",
"383 703 OFFCURVE",
"277 703 CURVE SMOOTH",
"179 703 OFFCURVE",
"97 633 OFFCURVE",
"85 536 CURVE SMOOTH",
"73 438 OFFCURVE",
"141 358 OFFCURVE",
"245 358 CURVE SMOOTH"
);
},
{
closed = 1;
nodes = (
"209 462 OFFCURVE",
"185 490 OFFCURVE",
"190 524 CURVE SMOOTH",
"195 566 OFFCURVE",
"231 598 OFFCURVE",
"275 598 CURVE SMOOTH",
"311 598 OFFCURVE",
"337 572 OFFCURVE",
"332 536 CURVE SMOOTH",
"327 496 OFFCURVE",
"289 462 OFFCURVE",
"248 462 CURVE SMOOTH"
);
},
{
closed = 1;
nodes = (
"799 -3 OFFCURVE",
"885 70 OFFCURVE",
"896 163 CURVE SMOOTH",
"908 261 OFFCURVE",
"841 342 OFFCURVE",
"736 342 CURVE SMOOTH",
"640 342 OFFCURVE",
"555 270 OFFCURVE",
"544 175 CURVE SMOOTH",
"532 77 OFFCURVE",
"606 -3 OFFCURVE",
"704 -3 CURVE SMOOTH"
);
},
{
closed = 1;
nodes = (
"670 102 OFFCURVE",
"646 129 OFFCURVE",
"650 163 CURVE SMOOTH",
"655 205 OFFCURVE",
"692 238 OFFCURVE",
"734 238 CURVE SMOOTH",
"770 238 OFFCURVE",
"795 212 OFFCURVE",
"791 175 CURVE SMOOTH",
"786 135 OFFCURVE",
"749 102 OFFCURVE",
"707 102 CURVE SMOOTH"
);
},
{
closed = 1;
nodes = (
"1210 -3 OFFCURVE",
"1297 66 OFFCURVE",
"1309 163 CURVE SMOOTH",
"1321 262 OFFCURVE",
"1256 342 OFFCURVE",
"1150 342 CURVE SMOOTH",
"1052 342 OFFCURVE",
"970 271 OFFCURVE",
"958 175 CURVE SMOOTH",
"946 77 OFFCURVE",
"1014 -3 OFFCURVE",
"1118 -3 CURVE SMOOTH"
);
},
{
closed = 1;
nodes = (
"1082 102 OFFCURVE",
"1058 129 OFFCURVE",
"1062 163 CURVE SMOOTH",
"1067 205 OFFCURVE",
"1104 238 OFFCURVE",
"1148 238 CURVE SMOOTH",
"1184 238 OFFCURVE",
"1209 212 OFFCURVE",
"1205 175 CURVE SMOOTH",
"1200 135 OFFCURVE",
"1162 102 OFFCURVE",
"1121 102 CURVE SMOOTH"
);
}
);
width = 1370;
},
{
layerId = "3C8330F3-4770-4812-9C95-859F387513C1";
paths = (
{
closed = 1;
nodes = (
"257 -1 LINE",
"651 701 LINE",
"593 701 LINE",
"199 -1 LINE"
);
},
{
closed = 1;
nodes = (
"284 426 OFFCURVE",
"352 481 OFFCURVE",
"362 560 CURVE SMOOTH",
"372 640 OFFCURVE",
"319 701 OFFCURVE",
"241 701 CURVE SMOOTH",
"164 701 OFFCURVE",
"98 641 OFFCURVE",
"89 566 CURVE SMOOTH",
"80 492 OFFCURVE",
"132 426 OFFCURVE",
"212 426 CURVE SMOOTH"
);
},
{
closed = 1;
nodes = (
"164 472 OFFCURVE",
"128 512 OFFCURVE",
"134 560 CURVE SMOOTH",
"141 615 OFFCURVE",
"186 655 OFFCURVE",
"240 655 CURVE SMOOTH",
"289 655 OFFCURVE",
"323 615 OFFCURVE",
"317 566 CURVE SMOOTH",
"311 517 OFFCURVE",
"267 472 OFFCURVE",
"213 472 CURVE SMOOTH"
);
},
{
closed = 1;
nodes = (
"681 -4 OFFCURVE",
"750 51 OFFCURVE",
"759 130 CURVE SMOOTH",
"769 210 OFFCURVE",
"717 271 OFFCURVE",
"639 271 CURVE SMOOTH",
"562 271 OFFCURVE",
"495 211 OFFCURVE",
"486 136 CURVE SMOOTH",
"477 62 OFFCURVE",
"529 -4 OFFCURVE",
"609 -4 CURVE SMOOTH"
);
},
{
closed = 1;
nodes = (
"561 41 OFFCURVE",
"525 85 OFFCURVE",
"530 130 CURVE SMOOTH",
"537 186 OFFCURVE",
"582 226 OFFCURVE",
"637 226 CURVE SMOOTH",
"687 226 OFFCURVE",
"721 182 OFFCURVE",
"715 136 CURVE SMOOTH",
"709 85 OFFCURVE",
"659 41 OFFCURVE",
"610 41 CURVE SMOOTH"
);
},
{
closed = 1;
nodes = (
"1034 -4 OFFCURVE",
"1103 51 OFFCURVE",
"1112 130 CURVE SMOOTH",
"1122 210 OFFCURVE",
"1070 271 OFFCURVE",
"992 271 CURVE SMOOTH",
"915 271 OFFCURVE",
"848 211 OFFCURVE",
"839 136 CURVE SMOOTH",
"830 62 OFFCURVE",
"882 -4 OFFCURVE",
"962 -4 CURVE SMOOTH"
);
},
{
closed = 1;
nodes = (
"914 41 OFFCURVE",
"878 85 OFFCURVE",
"883 130 CURVE SMOOTH",
"890 186 OFFCURVE",
"935 226 OFFCURVE",
"990 226 CURVE SMOOTH",
"1040 226 OFFCURVE",
"1074 182 OFFCURVE",
"1068 136 CURVE SMOOTH",
"1062 85 OFFCURVE",
"1012 41 OFFCURVE",
"963 41 CURVE SMOOTH"
);
}
);
width = 1177;
}
);
unicode = 2030;
},
{
color = 5;
glyphname = lozenge;
layers = (
{
layerId = "4BC9CD2E-8AD0-40CC-97AA-8C7B556514B0";
paths = (
{
closed = 1;
nodes = (
"371 660 LINE",
"269 660 LINE",
"60 330 LINE",
"190 0 LINE",
"292 0 LINE",
"503 330 LINE"
);
},
{
closed = 1;
nodes = (
"257 139 LINE",
"190 330 LINE",
"307 521 LINE",
"373 330 LINE"
);
}
);
width = 543;
},
{
layerId = "3C8330F3-4770-4812-9C95-859F387513C1";
paths = (
{
closed = 1;
nodes = (
"350 660 LINE",
"282 660 LINE",
"60 330 LINE",
"202 0 LINE",
"270 0 LINE",
"493 330 LINE"
);
},
{
closed = 1;
nodes = (
"241 41 LINE",
"113 330 LINE",
"313 620 LINE",
"440 330 LINE"
);
}
);
width = 533;
}
);
unicode = 25CA;
},
{
color = 5;
glyphname = at;
layers = (
{
layerId = "4BC9CD2E-8AD0-40CC-97AA-8C7B556514B0";
paths = (
{
closed = 1;
nodes = (
"451 -1 LINE",
"266 -37 OFFCURVE",
"128 76 OFFCURVE",
"149 251 CURVE SMOOTH",
"169 413 OFFCURVE",
"316 550 OFFCURVE",
"476 550 CURVE SMOOTH",
"623 550 OFFCURVE",
"720 430 OFFCURVE",
"710 285 CURVE SMOOTH",
"702 193 OFFCURVE",
"671 100 OFFCURVE",
"592 100 CURVE",
"582 101 OFFCURVE",
"579 102 OFFCURVE",
"580 110 CURVE SMOOTH",
"608 343 LINE SMOOTH",
"619 431 OFFCURVE",
"557 484 OFFCURVE",
"467 484 CURVE SMOOTH",
"405 484 OFFCURVE",
"336 455 OFFCURVE",
"270 402 CURVE",
"323 339 LINE",
"356 371 OFFCURVE",
"416 395 OFFCURVE",
"456 395 CURVE SMOOTH",
"485 395 OFFCURVE",
"505 379 OFFCURVE",
"501 346 CURVE SMOOTH",
"496 325 LINE",
"354 325 OFFCURVE",
"253 298 OFFCURVE",
"239 188 CURVE SMOOTH",
"223 58 OFFCURVE",
"371 7 OFFCURVE",
"472 97 CURVE",
"469 27 OFFCURVE",
"524 -3 OFFCURVE",
"584 -3 CURVE SMOOTH",
"723 -3 OFFCURVE",
"796 121 OFFCURVE",
"811 283 CURVE SMOOTH",
"832 493 OFFCURVE",
"689 660 OFFCURVE",
"485 660 CURVE SMOOTH",
"269 660 OFFCURVE",
"68 481 OFFCURVE",
"42 267 CURVE SMOOTH",
"12 26 OFFCURVE",
"191 -142 OFFCURVE",
"443 -108 CURVE"
);
},
{
closed = 1;
nodes = (
"348 147 OFFCURVE",
"332 154 OFFCURVE",
"335 177 CURVE SMOOTH",
"341 228 OFFCURVE",
"431 247 OFFCURVE",
"492 247 CURVE",
"480 185 LINE",
"456 168 OFFCURVE",
"407 147 OFFCURVE",
"369 147 CURVE SMOOTH"
);
}
);
width = 847;
},
{
layerId = "3C8330F3-4770-4812-9C95-859F387513C1";
paths = (
{
closed = 1;
nodes = (
"426 -72 LINE",
"203 -84 OFFCURVE",
"66 35 OFFCURVE",
"91 245 CURVE SMOOTH",
"116 442 OFFCURVE",
"293 607 OFFCURVE",
"495 607 CURVE SMOOTH",
"670 607 OFFCURVE",
"797 470 OFFCURVE",
"780 283 CURVE SMOOTH",
"769 163 OFFCURVE",
"734 81 OFFCURVE",
"686 49 CURVE SMOOTH",
"629 9 OFFCURVE",
"565 21 OFFCURVE",
"572 82 CURVE SMOOTH",
"605 344 LINE SMOOTH",
"614 419 OFFCURVE",
"560 464 OFFCURVE",
"481 464 CURVE SMOOTH",
"419 464 OFFCURVE",
"348 435 OFFCURVE",
"299 394 CURVE",
"327 357 LINE",
"369 386 OFFCURVE",
"431 413 OFFCURVE",
"483 413 CURVE SMOOTH",
"536 413 OFFCURVE",
"559 388 OFFCURVE",
"553 342 CURVE SMOOTH",
"547 301 LINE",
"414 301 OFFCURVE",
"275 280 OFFCURVE",
"261 165 CURVE SMOOTH",
"244 32 OFFCURVE",
"390 19 OFFCURVE",
"526 113 CURVE",
"514 21 OFFCURVE",
"536 -25 OFFCURVE",
"619 -25 CURVE SMOOTH",
"739 -25 OFFCURVE",
"811 83 OFFCURVE",
"830 276 CURVE SMOOTH",
"851 495 OFFCURVE",
"703 660 OFFCURVE",
"497 660 CURVE SMOOTH",
"280 660 OFFCURVE",
"68 478 OFFCURVE",
"41 256 CURVE SMOOTH",
"10 8 OFFCURVE",
"177 -145 OFFCURVE",
"422 -123 CURVE"
);
},
{
closed = 1;
nodes = (
"352 91 OFFCURVE",
"302 95 OFFCURVE",
"310 159 CURVE SMOOTH",
"318 226 OFFCURVE",
"392 255 OFFCURVE",
"545 256 CURVE",
"532 164 LINE",
"496 141 OFFCURVE",
"456 122 OFFCURVE",
"421 113 CURVE SMOOTH"
);
}
);
width = 867;
}
);
unicode = 0040;
},
{
color = 5;
glyphname = ampersand;
layers = (
{
layerId = "4BC9CD2E-8AD0-40CC-97AA-8C7B556514B0";
paths = (
{
closed = 1;
nodes = (
"653 0 LINE",
"536 147 LINE",
"581 210 OFFCURVE",
"592 282 OFFCURVE",
"603 385 CURVE",
"497 391 LINE",
"494 323 OFFCURVE",
"482 277 OFFCURVE",
"469 240 CURVE",
"271 506 LINE",
"250 542 OFFCURVE",
"297 602 OFFCURVE",
"343 603 CURVE SMOOTH",
"387 604 OFFCURVE",
"406 591 OFFCURVE",
"417 538 CURVE",
"527 570 LINE",
"503 664 OFFCURVE",
"457 712 OFFCURVE",
"347 712 CURVE SMOOTH",
"215 712 OFFCURVE",
"109 567 OFFCURVE",
"168 454 CURVE",
"192 412 LINE",
"-154 215 OFFCURVE",
"126 -164 OFFCURVE",
"455 66 CURVE",
"509 0 LINE"
);
},
{
closed = 1;
nodes = (
"190 30 OFFCURVE",
"59 203 OFFCURVE",
"247 337 CURVE",
"390 149 LINE"
);
}
);
width = 725;
},
{
layerId = "3C8330F3-4770-4812-9C95-859F387513C1";
paths = (
{
closed = 1;
nodes = (
"605 0 LINE",
"501 131 LINE",
"558 203 OFFCURVE",
"568 263 OFFCURVE",
"579 357 CURVE",
"529 359 LINE",
"517 259 OFFCURVE",
"508 225 OFFCURVE",
"473 174 CURVE",
"229 493 LINE",
"172 566 OFFCURVE",
"236 655 OFFCURVE",
"329 662 CURVE",
"395 664 OFFCURVE",
"429 637 OFFCURVE",
"444 582 CURVE",
"489 598 LINE",
"469 674 OFFCURVE",
"422 712 OFFCURVE",
"332 712 CURVE SMOOTH",
"192 712 OFFCURVE",
"108 568 OFFCURVE",
"173 478 CURVE",
"217 413 LINE",
"-183 229 OFFCURVE",
"125 -198 OFFCURVE",
"463 92 CURVE",
"540 0 LINE"
);
},
{
closed = 1;
nodes = (
"158 -108 OFFCURVE",
"-96 229 OFFCURVE",
"249 374 CURVE",
"434 130 LINE"
);
}
);
width = 676;
}
);
unicode = 0026;
},
{
color = 5;
glyphname = paragraph;
layers = (
{
layerId = "4BC9CD2E-8AD0-40CC-97AA-8C7B556514B0";
paths = (
{
closed = 1;
nodes = (
"330 -56 LINE",
"423 700 LINE",
"252 700 LINE SMOOTH",
"165 700 OFFCURVE",
"86 622 OFFCURVE",
"75 539 CURVE SMOOTH",
"64 449 OFFCURVE",
"124 369 OFFCURVE",
"219 369 CURVE SMOOTH",
"238 369 OFFCURVE",
"259 372 OFFCURVE",
"279 381 CURVE",
"223 -56 LINE"
);
},
{
closed = 1;
nodes = (
"508 -56 LINE",
"601 700 LINE",
"496 700 LINE",
"403 -56 LINE"
);
}
);
width = 586;
},
{
layerId = "3C8330F3-4770-4812-9C95-859F387513C1";
paths = (
{
closed = 1;
nodes = (
"279 -56 LINE",
"372 700 LINE",
"240 700 LINE SMOOTH",
"161 700 OFFCURVE",
"88 637 OFFCURVE",
"78 562 CURVE SMOOTH",
"68 481 OFFCURVE",
"131 420 OFFCURVE",
"209 420 CURVE SMOOTH",
"236 420 OFFCURVE",
"263 429 OFFCURVE",
"293 444 CURVE",
"230 -56 LINE"
);
},
{
closed = 1;
nodes = (
"375 -56 LINE",
"468 700 LINE",
"419 700 LINE",
"326 -56 LINE"
);
}
);
width = 453;
}
);
unicode = 00B6;
},
{
color = 5;
glyphname = section;
layers = (
{
layerId = "4BC9CD2E-8AD0-40CC-97AA-8C7B556514B0";
paths = (
{
closed = 1;
nodes = (
"285 -13 OFFCURVE",
"363 58 OFFCURVE",
"375 150 CURVE SMOOTH",
"380 192 OFFCURVE",
"367 230 OFFCURVE",
"340 245 CURVE",
"377 262 OFFCURVE",
"399 308 OFFCURVE",
"404 346 CURVE SMOOTH",
"411 402 OFFCURVE",
"382 456 OFFCURVE",
"328 480 CURVE",
"293 504 OFFCURVE",
"263 502 OFFCURVE",
"233 510 CURVE",
"165 531 OFFCURVE",
"200 608 OFFCURVE",
"272 599 CURVE SMOOTH",
"295 594 OFFCURVE",
"323 584 OFFCURVE",
"354 551 CURVE",
"439 628 LINE",
"393 679 OFFCURVE",
"335 711 OFFCURVE",
"268 711 CURVE SMOOTH",
"174 711 OFFCURVE",
"94 641 OFFCURVE",
"83 552 CURVE SMOOTH",
"77 506 OFFCURVE",
"102 473 OFFCURVE",
"119 454 CURVE",
"86 428 OFFCURVE",
"58 390 OFFCURVE",
"53 352 CURVE SMOOTH",
"47 295 OFFCURVE",
"80 240 OFFCURVE",
"130 218 CURVE",
"183 184 OFFCURVE",
"268 199 OFFCURVE",
"261 148 CURVE SMOOTH",
"258 123 OFFCURVE",
"231 99 OFFCURVE",
"198 99 CURVE SMOOTH",
"169 99 OFFCURVE",
"132 117 OFFCURVE",
"103 147 CURVE",
"19 70 LINE",
"62 20 OFFCURVE",
"124 -13 OFFCURVE",
"190 -13 CURVE SMOOTH"
);
},
{
closed = 1;
nodes = (
"192 295 OFFCURVE",
"150 311 OFFCURVE",
"154 348 CURVE SMOOTH",
"156 367 OFFCURVE",
"175 394 OFFCURVE",
"216 394 CURVE SMOOTH",
"276 394 OFFCURVE",
"304 369 OFFCURVE",
"307 350 CURVE",
"314 314 OFFCURVE",
"271 295 OFFCURVE",
"231 295 CURVE"
);
}
);
width = 433;
},
{
layerId = "3C8330F3-4770-4812-9C95-859F387513C1";
paths = (
{
closed = 1;
nodes = (
"262 -5 OFFCURVE",
"346 53 OFFCURVE",
"355 131 CURVE SMOOTH",
"361 179 OFFCURVE",
"338 208 OFFCURVE",
"303 240 CURVE",
"356 271 OFFCURVE",
"382 306 OFFCURVE",
"387 349 CURVE SMOOTH",
"396 422 OFFCURVE",
"333 463 OFFCURVE",
"246 478 CURVE SMOOTH",
"198 485 OFFCURVE",
"129 515 OFFCURVE",
"134 560 CURVE SMOOTH",
"142 622 OFFCURVE",
"195 657 OFFCURVE",
"268 657 CURVE SMOOTH",
"299 657 OFFCURVE",
"332 647 OFFCURVE",
"364 622 CURVE",
"404 654 LINE",
"365 683 OFFCURVE",
"309 703 OFFCURVE",
"262 703 CURVE SMOOTH",
"178 703 OFFCURVE",
"94 645 OFFCURVE",
"84 567 CURVE SMOOTH",
"78 519 OFFCURVE",
"101 490 OFFCURVE",
"136 458 CURVE",
"75 428 OFFCURVE",
"57 392 OFFCURVE",
"52 349 CURVE SMOOTH",
"43 276 OFFCURVE",
"106 235 OFFCURVE",
"193 220 CURVE SMOOTH",
"242 212 OFFCURVE",
"314 183 OFFCURVE",
"308 138 CURVE SMOOTH",
"301 76 OFFCURVE",
"244 41 OFFCURVE",
"171 41 CURVE SMOOTH",
"140 41 OFFCURVE",
"107 52 OFFCURVE",
"74 77 CURVE",
"35 44 LINE",
"74 15 OFFCURVE",
"131 -5 OFFCURVE",
"178 -5 CURVE SMOOTH"
);
},
{
closed = 1;
nodes = (
"153 264 OFFCURVE",
"89 292 OFFCURVE",
"97 357 CURVE SMOOTH",
"103 404 OFFCURVE",
"160 438 OFFCURVE",
"208 438 CURVE SMOOTH",
"282 438 OFFCURVE",
"354 404 OFFCURVE",
"346 344 CURVE SMOOTH",
"341 298 OFFCURVE",
"290 264 OFFCURVE",
"217 264 CURVE SMOOTH"
);
}
);
width = 415;
}
);
unicode = 00A7;
},
{
color = 5;
glyphname = copyright;
layers = (
{
layerId = "4BC9CD2E-8AD0-40CC-97AA-8C7B556514B0";
paths = (
{
closed = 1;
nodes = (
"29 160 OFFCURVE",
"164 -3 OFFCURVE",
"357 -3 CURVE SMOOTH",
"544 -3 OFFCURVE",
"713 150 OFFCURVE",
"737 344 CURVE SMOOTH",
"761 542 OFFCURVE",
"627 703 OFFCURVE",
"433 703 CURVE SMOOTH",
"245 703 OFFCURVE",
"76 546 OFFCURVE",
"53 356 CURVE SMOOTH"
);
},
{
closed = 1;
nodes = (
"176 480 OFFCURVE",
"297 597 OFFCURVE",
"431 597 CURVE SMOOTH",
"556 597 OFFCURVE",
"646 490 OFFCURVE",
"630 356 CURVE SMOOTH",
"613 219 OFFCURVE",
"493 103 OFFCURVE",
"360 103 CURVE SMOOTH",
"231 103 OFFCURVE",
"144 214 OFFCURVE",
"160 344 CURVE SMOOTH"
);
},
{
closed = 1;
nodes = (
"186 169 OFFCURVE",
"375 82 OFFCURVE",
"520 208 CURVE",
"467 286 LINE",
"399 220 OFFCURVE",
"300 249 OFFCURVE",
"312 345 CURVE SMOOTH",
"324 444 OFFCURVE",
"431 488 OFFCURVE",
"485 420 CURVE",
"550 490 LINE",
"439 615 OFFCURVE",
"232 540 OFFCURVE",
"209 357 CURVE SMOOTH"
);
}
);
width = 765;
},
{
layerId = "3C8330F3-4770-4812-9C95-859F387513C1";
paths = (
{
closed = 1;
nodes = (
"28 156 OFFCURVE",
"161 -3 OFFCURVE",
"351 -3 CURVE SMOOTH",
"537 -3 OFFCURVE",
"707 150 OFFCURVE",
"731 344 CURVE SMOOTH",
"754 539 OFFCURVE",
"624 703 OFFCURVE",
"434 703 CURVE SMOOTH",
"251 703 OFFCURVE",
"76 543 OFFCURVE",
"52 350 CURVE SMOOTH"
);
},
{
closed = 1;
nodes = (
"125 512 OFFCURVE",
"269 658 OFFCURVE",
"432 658 CURVE SMOOTH",
"593 658 OFFCURVE",
"698 513 OFFCURVE",
"678 350 CURVE SMOOTH",
"658 184 OFFCURVE",
"515 42 OFFCURVE",
"352 42 CURVE SMOOTH",
"191 42 OFFCURVE",
"85 182 OFFCURVE",
"105 344 CURVE SMOOTH"
);
},
{
closed = 1;
nodes = (
"176 161 OFFCURVE",
"353 57 OFFCURVE",
"515 186 CURVE",
"492 222 LINE",
"369 118 OFFCURVE",
"223 191 OFFCURVE",
"241 341 CURVE SMOOTH",
"259 490 OFFCURVE",
"415 552 OFFCURVE",
"524 464 CURVE",
"552 495 LINE",
"421 613 OFFCURVE",
"221 529 OFFCURVE",
"199 347 CURVE SMOOTH"
);
}
);
width = 759;
}
);
unicode = 00A9;
},
{
color = 5;
glyphname = registered;
layers = (
{
layerId = "4BC9CD2E-8AD0-40CC-97AA-8C7B556514B0";
paths = (
{
closed = 1;
nodes = (
"336 322 OFFCURVE",
"425 408 OFFCURVE",
"437 505 CURVE SMOOTH",
"450 606 OFFCURVE",
"381 700 OFFCURVE",
"274 700 CURVE SMOOTH",
"174 700 OFFCURVE",
"85 615 OFFCURVE",
"73 517 CURVE SMOOTH",
"60 415 OFFCURVE",
"131 322 OFFCURVE",
"238 322 CURVE SMOOTH"
);
},
{
closed = 1;
nodes = (
"176 384 OFFCURVE",
"126 436 OFFCURVE",
"134 505 CURVE SMOOTH",
"143 572 OFFCURVE",
"202 637 OFFCURVE",
"277 637 CURVE SMOOTH",
"338 637 OFFCURVE",
"385 586 OFFCURVE",
"377 517 CURVE SMOOTH",
"368 445 OFFCURVE",
"302 384 OFFCURVE",
"235 384 CURVE SMOOTH"
);
},
{
closed = 1;
nodes = (
"230 426 LINE",
"238 483 LINE",
"238 483 LINE",
"269 426 LINE",
"319 426 LINE",
"291 492 LINE",
"308 502 OFFCURVE",
"317 518 OFFCURVE",
"319 532 CURVE SMOOTH",
"323 565 OFFCURVE",
"301 593 OFFCURVE",
"271 593 CURVE SMOOTH",
"202 593 LINE",
"182 426 LINE"
);
},
{
closed = 1;
nodes = (
"243 554 LINE",
"271 554 LINE",
"274 554 OFFCURVE",
"278 552 OFFCURVE",
"277 545 CURVE SMOOTH",
"275 528 OFFCURVE",
"265 523 OFFCURVE",
"261 523 CURVE",
"240 523 LINE"
);
}
);
width = 446;
},
{
layerId = "3C8330F3-4770-4812-9C95-859F387513C1";
paths = (
{
closed = 1;
nodes = (
"332 322 OFFCURVE",
"425 404 OFFCURVE",
"438 508 CURVE SMOOTH",
"451 613 OFFCURVE",
"380 700 OFFCURVE",
"277 700 CURVE SMOOTH",
"175 700 OFFCURVE",
"85 615 OFFCURVE",
"72 514 CURVE SMOOTH",
"60 410 OFFCURVE",
"133 322 OFFCURVE",
"235 322 CURVE SMOOTH"
);
},
{
closed = 1;
nodes = (
"160 359 OFFCURVE",
"100 426 OFFCURVE",
"110 508 CURVE SMOOTH",
"120 592 OFFCURVE",
"195 662 OFFCURVE",
"277 662 CURVE SMOOTH",
"357 662 OFFCURVE",
"411 593 OFFCURVE",
"401 514 CURVE SMOOTH",
"391 431 OFFCURVE",
"314 359 OFFCURVE",
"235 359 CURVE SMOOTH"
);
},
{
closed = 1;
nodes = (
"217 419 LINE",
"226 492 LINE",
"244 492 LINE",
"280 419 LINE",
"321 419 LINE",
"283 496 LINE",
"309 510 OFFCURVE",
"322 528 OFFCURVE",
"325 548 CURVE SMOOTH",
"329 581 OFFCURVE",
"307 609 OFFCURVE",
"278 609 CURVE SMOOTH",
"205 609 LINE",
"182 419 LINE"
);
},
{
closed = 1;
nodes = (
"236 574 LINE",
"276 574 LINE SMOOTH",
"284 574 OFFCURVE",
"291 564 OFFCURVE",
"289 554 CURVE SMOOTH",
"288 540 OFFCURVE",
"276 527 OFFCURVE",
"267 527 CURVE SMOOTH",
"230 527 LINE"
);
}
);
width = 446;
}
);
unicode = 00AE;
},
{
color = 5;
glyphname = trademark;
layers = (
{
layerId = "4BC9CD2E-8AD0-40CC-97AA-8C7B556514B0";
paths = (
{
closed = 1;
nodes = (
"708 700 LINE",
"580 700 LINE",
"494 529 LINE",
"449 700 LINE",
"95 700 LINE",
"84 608 LINE",
"178 608 LINE",
"145 342 LINE",
"243 342 LINE",
"276 608 LINE",
"315 608 LINE",
"282 342 LINE",
"380 342 LINE",
"406 543 LINE",
"406 543 LINE",
"442 393 LINE",
"518 393 LINE",
"591 543 LINE",
"590 543 LINE",
"565 342 LINE",
"664 342 LINE"
);
}
);
width = 693;
},
{
layerId = "3C8330F3-4770-4812-9C95-859F387513C1";
paths = (
{
closed = 1;
nodes = (
"696 700 LINE",
"601 700 LINE",
"488 463 LINE",
"433 700 LINE",
"95 700 LINE",
"90 659 LINE",
"194 659 LINE",
"156 350 LINE",
"199 350 LINE",
"237 659 LINE",
"334 659 LINE",
"296 350 LINE",
"339 350 LINE",
"377 659 LINE",
"397 659 LINE",
"458 404 LINE",
"504 404 LINE",
"629 659 LINE",
"647 659 LINE",
"609 350 LINE",
"653 350 LINE"
);
}
);
width = 681;
}
);
unicode = 2122;
},
{
color = 5;
glyphname = degree;
layers = (
{
layerId = "4BC9CD2E-8AD0-40CC-97AA-8C7B556514B0";
paths = (
{
closed = 1;
nodes = (
"354 470 OFFCURVE",
"364 550 CURVE SMOOTH",
"374 634 OFFCURVE",
"318 700 OFFCURVE",
"234 700 CURVE SMOOTH",
"157 700 OFFCURVE",
"88 639 OFFCURVE",
"78 562 CURVE SMOOTH",
"69 484 OFFCURVE",
"126 413 OFFCURVE",
"209 413 CURVE SMOOTH",
"284 413 OFFCURVE"
);
},
{
closed = 1;
nodes = (
"267 619 OFFCURVE",
"288 594 OFFCURVE",
"284 562 CURVE SMOOTH",
"280 524 OFFCURVE",
"246 494 OFFCURVE",
"209 494 CURVE SMOOTH",
"176 494 OFFCURVE",
"154 518 OFFCURVE",
"158 550 CURVE SMOOTH",
"163 588 OFFCURVE",
"197 619 OFFCURVE",
"234 619 CURVE SMOOTH"
);
}
);
width = 367;
},
{
layerId = "3C8330F3-4770-4812-9C95-859F387513C1";
paths = (
{
closed = 1;
nodes = (
"354 472 OFFCURVE",
"364 553 CURVE SMOOTH",
"374 636 OFFCURVE",
"319 700 OFFCURVE",
"237 700 CURVE SMOOTH",
"158 700 OFFCURVE",
"88 637 OFFCURVE",
"78 559 CURVE SMOOTH",
"69 482 OFFCURVE",
"124 413 OFFCURVE",
"206 413 CURVE SMOOTH",
"282 413 OFFCURVE"
);
},
{
closed = 1;
nodes = (
"292 656 OFFCURVE",
"328 613 OFFCURVE",
"321 559 CURVE SMOOTH",
"314 501 OFFCURVE",
"264 457 OFFCURVE",
"207 457 CURVE SMOOTH",
"155 457 OFFCURVE",
"114 496 OFFCURVE",
"121 553 CURVE SMOOTH",
"128 612 OFFCURVE",
"178 656 OFFCURVE",
"236 656 CURVE SMOOTH"
);
}
);
width = 367;
}
);
unicode = 00B0;
},
{
color = 5;
glyphname = bar;
layers = (
{
layerId = "4BC9CD2E-8AD0-40CC-97AA-8C7B556514B0";
paths = (
{
closed = 1;
nodes = (
"214 698 LINE",
"105 698 LINE",
"12 -58 LINE",
"121 -58 LINE"
);
}
);
width = 209;
},
{
layerId = "3C8330F3-4770-4812-9C95-859F387513C1";
paths = (
{
closed = 1;
nodes = (
"155 698 LINE",
"105 698 LINE",
"12 -58 LINE",
"62 -58 LINE"
);
}
);
width = 150;
}
);
unicode = 007C;
},
{
color = 5;
glyphname = brokenbar;
layers = (
{
layerId = "4BC9CD2E-8AD0-40CC-97AA-8C7B556514B0";
paths = (
{
closed = 1;
nodes = (
"215 700 LINE",
"105 700 LINE",
"64 360 LINE",
"174 360 LINE"
);
},
{
closed = 1;
nodes = (
"154 203 LINE",
"44 203 LINE",
"2 -137 LINE",
"112 -137 LINE"
);
}
);
width = 210;
},
{
layerId = "3C8330F3-4770-4812-9C95-859F387513C1";
paths = (
{
closed = 1;
nodes = (
"155 700 LINE",
"105 700 LINE",
"64 360 LINE",
"114 360 LINE"
);
},
{
closed = 1;
nodes = (
"94 203 LINE",
"44 203 LINE",
"2 -137 LINE",
"52 -137 LINE"
);
}
);
width = 150;
}
);
unicode = 00A6;
},
{
color = 5;
glyphname = dagger;
layers = (
{
layerId = "4BC9CD2E-8AD0-40CC-97AA-8C7B556514B0";
paths = (
{
closed = 1;
nodes = (
"352 594 LINE",
"277 594 LINE",
"290 700 LINE",
"180 700 LINE",
"167 593 LINE",
"92 593 LINE",
"81 504 LINE",
"156 504 LINE",
"119 205 LINE",
"229 205 LINE",
"266 504 LINE",
"341 504 LINE"
);
}
);
width = 360;
},
{
layerId = "3C8330F3-4770-4812-9C95-859F387513C1";
paths = (
{
closed = 1;
nodes = (
"352 594 LINE",
"247 594 LINE",
"260 700 LINE",
"210 700 LINE",
"197 593 LINE",
"92 593 LINE",
"86 544 LINE",
"191 544 LINE",
"149 205 LINE",
"199 205 LINE",
"241 544 LINE",
"346 544 LINE"
);
}
);
width = 360;
}
);
unicode = 2020;
},
{
color = 5;
glyphname = daggerdbl;
layers = (
{
layerId = "4BC9CD2E-8AD0-40CC-97AA-8C7B556514B0";
paths = (
{
closed = 1;
nodes = (
"330 411 LINE",
"255 411 LINE",
"264 487 LINE",
"339 487 LINE",
"353 597 LINE",
"278 597 LINE",
"290 701 LINE",
"180 701 LINE",
"167 595 LINE",
"92 595 LINE",
"79 487 LINE",
"154 487 LINE",
"145 411 LINE",
"70 411 LINE",
"56 301 LINE",
"131 301 LINE",
"120 206 LINE",
"230 206 LINE",
"241 302 LINE",
"316 302 LINE"
);
}
);
width = 360;
},
{
layerId = "3C8330F3-4770-4812-9C95-859F387513C1";
paths = (
{
closed = 1;
nodes = (
"330 411 LINE",
"225 411 LINE",
"234 487 LINE",
"339 487 LINE",
"345 537 LINE",
"240 537 LINE",
"260 701 LINE",
"210 701 LINE",
"190 535 LINE",
"85 535 LINE",
"79 487 LINE",
"184 487 LINE",
"175 411 LINE",
"70 411 LINE",
"64 361 LINE",
"169 361 LINE",
"150 206 LINE",
"200 206 LINE",
"219 363 LINE",
"324 363 LINE"
);
}
);
width = 360;
}
);
unicode = 2021;
},
{
glyphname = dieresiscomb;
layers = (
{
anchors = (
{
name = _top;
position = "{217, 530}";
},
{
name = top;
position = "{239, 705}";
}
);
layerId = "4BC9CD2E-8AD0-40CC-97AA-8C7B556514B0";
paths = (
{
closed = 1;
nodes = (
"167 600 OFFCURVE",
"191 621 OFFCURVE",
"194 647 CURVE SMOOTH",
"198 678 OFFCURVE",
"174 705 OFFCURVE",
"143 705 CURVE SMOOTH",
"117 705 OFFCURVE",
"93 684 OFFCURVE",
"90 659 CURVE SMOOTH",
"86 627 OFFCURVE",
"110 600 OFFCURVE",
"140 600 CURVE SMOOTH"
);
},
{
closed = 1;
nodes = (
"347 600 OFFCURVE",
"371 621 OFFCURVE",
"374 647 CURVE SMOOTH",
"378 678 OFFCURVE",
"354 705 OFFCURVE",
"323 705 CURVE SMOOTH",
"297 705 OFFCURVE",
"273 684 OFFCURVE",
"270 659 CURVE SMOOTH",
"266 627 OFFCURVE",
"290 600 OFFCURVE",
"320 600 CURVE SMOOTH"
);
}
);
width = 365;
},
{
anchors = (
{
name = _top;
position = "{200, 540}";
},
{
name = top;
position = "{219, 698}";
}
);
layerId = "3C8330F3-4770-4812-9C95-859F387513C1";
paths = (
{
closed = 1;
nodes = (
"146 620 OFFCURVE",
"165 637 OFFCURVE",
"168 656 CURVE SMOOTH",
"171 679 OFFCURVE",
"154 698 OFFCURVE",
"132 698 CURVE SMOOTH",
"112 698 OFFCURVE",
"93 681 OFFCURVE",
"91 662 CURVE SMOOTH",
"88 639 OFFCURVE",
"104 620 OFFCURVE",
"126 620 CURVE SMOOTH"
);
},
{
closed = 1;
nodes = (
"325 620 OFFCURVE",
"344 637 OFFCURVE",
"347 656 CURVE SMOOTH",
"350 679 OFFCURVE",
"333 698 OFFCURVE",
"311 698 CURVE SMOOTH",
"291 698 OFFCURVE",
"272 681 OFFCURVE",
"270 662 CURVE SMOOTH",
"267 639 OFFCURVE",
"283 620 OFFCURVE",
"305 620 CURVE SMOOTH"
);
}
);
width = 337;
}
);
unicode = 0308;
},
{
glyphname = dotaccentcomb;
layers = (
{
anchors = (
{
name = _top;
position = "{127, 530}";
},
{
name = top;
position = "{149, 705}";
}
);
layerId = "4BC9CD2E-8AD0-40CC-97AA-8C7B556514B0";
paths = (
{
closed = 1;
nodes = (
"167 600 OFFCURVE",
"191 621 OFFCURVE",
"194 647 CURVE SMOOTH",
"198 678 OFFCURVE",
"174 705 OFFCURVE",
"143 705 CURVE SMOOTH",
"117 705 OFFCURVE",
"93 684 OFFCURVE",
"90 659 CURVE SMOOTH",
"86 627 OFFCURVE",
"110 600 OFFCURVE",
"140 600 CURVE SMOOTH"
);
}
);
width = 185;
},
{
anchors = (
{
name = _top;
position = "{115, 540}";
},
{
name = top;
position = "{134, 698}";
}
);
layerId = "3C8330F3-4770-4812-9C95-859F387513C1";
paths = (
{
closed = 1;
nodes = (
"146 620 OFFCURVE",
"165 637 OFFCURVE",
"168 656 CURVE SMOOTH",
"171 679 OFFCURVE",
"154 698 OFFCURVE",
"132 698 CURVE SMOOTH",
"112 698 OFFCURVE",
"93 681 OFFCURVE",
"91 662 CURVE SMOOTH",
"88 639 OFFCURVE",
"104 620 OFFCURVE",
"126 620 CURVE SMOOTH"
);
}
);
width = 158;
}
);
unicode = 0307;
},
{
glyphname = gravecomb;
layers = (
{
anchors = (
{
name = _top;
position = "{130, 530}";
},
{
name = top;
position = "{156, 739}";
}
);
layerId = "4BC9CD2E-8AD0-40CC-97AA-8C7B556514B0";
paths = (
{
closed = 1;
nodes = (
"175 739 LINE",
"101 739 LINE",
"123 604 LINE",
"181 604 LINE"
);
}
);
width = 178;
},
{
anchors = (
{
name = _top;
position = "{133, 540}";
},
{
name = top;
position = "{157, 739}";
}
);
layerId = "3C8330F3-4770-4812-9C95-859F387513C1";
paths = (
{
closed = 1;
nodes = (
"155 739 LINE",
"100 739 LINE",
"124 606 LINE",
"166 606 LINE"
);
}
);
width = 162;
}
);
unicode = 0300;
},
{
glyphname = acutecomb;
layers = (
{
anchors = (
{
name = _top;
position = "{106, 530}";
},
{
name = top;
position = "{132, 739}";
}
);
layerId = "4BC9CD2E-8AD0-40CC-97AA-8C7B556514B0";
paths = (
{
closed = 1;
nodes = (
"138 604 LINE",
"194 739 LINE",
"118 739 LINE",
"78 604 LINE"
);
}
);
width = 173;
},
{
anchors = (
{
name = _top;
position = "{103, 540}";
},
{
name = top;
position = "{127, 739}";
}
);
layerId = "3C8330F3-4770-4812-9C95-859F387513C1";
paths = (
{
closed = 1;
nodes = (
"126 606 LINE",
"182 739 LINE",
"127 739 LINE",
"84 606 LINE"
);
}
);
width = 162;
}
);
unicode = 0301;
},
{
glyphname = hungarumlautcomb;
layers = (
{
anchors = (
{
name = _top;
position = "{167, 530}";
},
{
name = top;
position = "{193, 739}";
}
);
layerId = "4BC9CD2E-8AD0-40CC-97AA-8C7B556514B0";
paths = (
{
closed = 1;
nodes = (
"138 604 LINE",
"194 739 LINE",
"118 739 LINE",
"78 604 LINE"
);
},
{
closed = 1;
nodes = (
"243 605 LINE",
"299 740 LINE",
"223 740 LINE",
"183 605 LINE"
);
}
);
width = 278;
},
{
anchors = (
{
name = _top;
position = "{169, 540}";
},
{
name = top;
position = "{193, 739}";
}
);
layerId = "3C8330F3-4770-4812-9C95-859F387513C1";
paths = (
{
closed = 1;
nodes = (
"126 606 LINE",
"182 739 LINE",
"127 739 LINE",
"84 606 LINE"
);
},
{
closed = 1;
nodes = (
"226 607 LINE",
"282 740 LINE",
"227 740 LINE",
"184 607 LINE"
);
}
);
width = 262;
}
);
unicode = 030B;
},
{
glyphname = circumflexcomb;
layers = (
{
anchors = (
{
name = _top;
position = "{203, 520}";
},
{
name = top;
position = "{225, 700}";
}
);
layerId = "4BC9CD2E-8AD0-40CC-97AA-8C7B556514B0";
paths = (
{
closed = 1;
nodes = (
"170 589 LINE",
"220 639 LINE",
"256 589 LINE",
"341 589 LINE",
"252 700 LINE",
"196 700 LINE",
"81 589 LINE"
);
}
);
width = 340;
},
{
anchors = (
{
name = _top;
position = "{193, 520}";
},
{
name = top;
position = "{215, 700}";
}
);
layerId = "3C8330F3-4770-4812-9C95-859F387513C1";
paths = (
{
closed = 1;
nodes = (
"138 589 LINE",
"211 662 LINE",
"266 589 LINE",
"321 589 LINE",
"234 700 LINE",
"196 700 LINE",
"81 589 LINE"
);
}
);
width = 320;
}
);
unicode = 0302;
},
